<ttFont>
    <TTGlyph name=".notdef" xMin="150" yMin="0" xMax="744" yMax="1510">
      <contour>
        <pt x="150" y="0" on="1"/>
        <pt x="150" y="1510" on="1"/>
        <pt x="744" y="1510" on="1"/>
        <pt x="744" y="0" on="1"/>
      </contour>
      <contour>
        <pt x="268" y="1392" on="1"/>
        <pt x="268" y="118" on="1"/>
        <pt x="626" y="118" on="1"/>
        <pt x="626" y="1392" on="1"/>
      </contour>
    </TTGlyph>
    <TTGlyph name="A" xMin="200" yMin="-40" xMax="1210" yMax="1530">
      <contour>
        <pt x="200" y="-40" on="1"/>
        <pt x="200" y="1030" on="1"/>
        <pt x="200" y="1246" on="0"/>
        <pt x="335" y="1385" on="1"/>
        <pt x="477" y="1530" on="0"/>
        <pt x="705" y="1530" on="1"/>
        <pt x="929" y="1530" on="0"/>
        <pt x="1075" y="1385" on="1"/>
        <pt x="1210" y="1251" on="0"/>
        <pt x="1210" y="1030" on="1"/>
        <pt x="1210" y="50" on="1"/>
        <pt x="1020" y="-40" on="1"/>
        <pt x="1010" y="-40" on="1"/>
        <pt x="1010" y="700" on="1"/>
        <pt x="400" y="700" on="1"/>
        <pt x="400" y="50" on="1"/>
        <pt x="210" y="-40" on="1"/>
      </contour>
      <contour>
        <pt x="400" y="810" on="1"/>
        <pt x="1010" y="810" on="1"/>
        <pt x="1010" y="1100" on="1"/>
        <pt x="1010" y="1234" on="0"/>
        <pt x="938" y="1317" on="1"/>
        <pt x="848" y="1420" on="0"/>
        <pt x="705" y="1420" on="1"/>
        <pt x="561" y="1420" on="0"/>
        <pt x="472" y="1317" on="1"/>
        <pt x="400" y="1233" on="0"/>
        <pt x="400" y="1100" on="1"/>
      </contour>
    </TTGlyph>
    <TTGlyph name="AE" xMin="200" yMin="-40" xMax="1917" yMax="1530">
      <contour>
        <pt x="200" y="-40" on="1"/>
        <pt x="200" y="1030" on="1"/>
        <pt x="200" y="1246" on="0"/>
        <pt x="335" y="1385" on="1"/>
        <pt x="477" y="1530" on="0"/>
        <pt x="705" y="1530" on="1"/>
        <pt x="882" y="1530" on="0"/>
        <pt x="1010" y="1440" on="1"/>
        <pt x="1010" y="1460" on="1"/>
        <pt x="1116" y="1510" on="1"/>
        <pt x="1750" y="1510" on="1"/>
        <pt x="1750" y="1500" on="1"/>
        <pt x="1703" y="1400" on="1"/>
        <pt x="1210" y="1400" on="1"/>
        <pt x="1210" y="810" on="1"/>
        <pt x="1750" y="810" on="1"/>
        <pt x="1750" y="800" on="1"/>
        <pt x="1703" y="700" on="1"/>
        <pt x="1210" y="700" on="1"/>
        <pt x="1210" y="110" on="1"/>
        <pt x="1917" y="110" on="1"/>
        <pt x="1917" y="100" on="1"/>
        <pt x="1870" y="0" on="1"/>
        <pt x="1010" y="0" on="1"/>
        <pt x="1010" y="700" on="1"/>
        <pt x="400" y="700" on="1"/>
        <pt x="400" y="50" on="1"/>
        <pt x="210" y="-40" on="1"/>
      </contour>
      <contour>
        <pt x="400" y="810" on="1"/>
        <pt x="1010" y="810" on="1"/>
        <pt x="1010" y="1100" on="1"/>
        <pt x="1010" y="1234" on="0"/>
        <pt x="938" y="1317" on="1"/>
        <pt x="848" y="1420" on="0"/>
        <pt x="705" y="1420" on="1"/>
        <pt x="561" y="1420" on="0"/>
        <pt x="472" y="1317" on="1"/>
        <pt x="400" y="1233" on="0"/>
        <pt x="400" y="1100" on="1"/>
      </contour>
    </TTGlyph>
    <TTGlyph name="AEacute" xMin="200" yMin="-40" xMax="1917" yMax="1966">
      <contour>
        <pt x="200" y="-40" on="1"/>
        <pt x="200" y="1030" on="1"/>
        <pt x="200" y="1246" on="0"/>
        <pt x="335" y="1385" on="1"/>
        <pt x="477" y="1530" on="0"/>
        <pt x="705" y="1530" on="1"/>
        <pt x="882" y="1530" on="0"/>
        <pt x="1010" y="1440" on="1"/>
        <pt x="1010" y="1460" on="1"/>
        <pt x="1116" y="1510" on="1"/>
        <pt x="1750" y="1510" on="1"/>
        <pt x="1750" y="1500" on="1"/>
        <pt x="1703" y="1400" on="1"/>
        <pt x="1210" y="1400" on="1"/>
        <pt x="1210" y="810" on="1"/>
        <pt x="1750" y="810" on="1"/>
        <pt x="1750" y="800" on="1"/>
        <pt x="1703" y="700" on="1"/>
        <pt x="1210" y="700" on="1"/>
        <pt x="1210" y="110" on="1"/>
        <pt x="1917" y="110" on="1"/>
        <pt x="1917" y="100" on="1"/>
        <pt x="1870" y="0" on="1"/>
        <pt x="1010" y="0" on="1"/>
        <pt x="1010" y="700" on="1"/>
        <pt x="400" y="700" on="1"/>
        <pt x="400" y="50" on="1"/>
        <pt x="210" y="-40" on="1"/>
      </contour>
      <contour>
        <pt x="400" y="810" on="1"/>
        <pt x="1010" y="810" on="1"/>
        <pt x="1010" y="1100" on="1"/>
        <pt x="1010" y="1234" on="0"/>
        <pt x="938" y="1317" on="1"/>
        <pt x="848" y="1420" on="0"/>
        <pt x="705" y="1420" on="1"/>
        <pt x="561" y="1420" on="0"/>
        <pt x="472" y="1317" on="1"/>
        <pt x="400" y="1233" on="0"/>
        <pt x="400" y="1100" on="1"/>
      </contour>
      <contour>
        <pt x="1075" y="1966" on="1"/>
        <pt x="1085" y="1966" on="1"/>
        <pt x="1261" y="1882" on="1"/>
        <pt x="1040" y="1566" on="1"/>
        <pt x="1030" y="1566" on="1"/>
        <pt x="913" y="1621" on="1"/>
      </contour>
    </TTGlyph>
    <TTGlyph name="Aacute" xMin="200" yMin="-40" xMax="1210" yMax="1966">
      <contour>
        <pt x="200" y="-40" on="1"/>
        <pt x="200" y="1030" on="1"/>
        <pt x="200" y="1246" on="0"/>
        <pt x="335" y="1385" on="1"/>
        <pt x="477" y="1530" on="0"/>
        <pt x="705" y="1530" on="1"/>
        <pt x="929" y="1530" on="0"/>
        <pt x="1075" y="1385" on="1"/>
        <pt x="1210" y="1251" on="0"/>
        <pt x="1210" y="1030" on="1"/>
        <pt x="1210" y="50" on="1"/>
        <pt x="1020" y="-40" on="1"/>
        <pt x="1010" y="-40" on="1"/>
        <pt x="1010" y="700" on="1"/>
        <pt x="400" y="700" on="1"/>
        <pt x="400" y="50" on="1"/>
        <pt x="210" y="-40" on="1"/>
      </contour>
      <contour>
        <pt x="400" y="810" on="1"/>
        <pt x="1010" y="810" on="1"/>
        <pt x="1010" y="1100" on="1"/>
        <pt x="1010" y="1234" on="0"/>
        <pt x="938" y="1317" on="1"/>
        <pt x="848" y="1420" on="0"/>
        <pt x="705" y="1420" on="1"/>
        <pt x="561" y="1420" on="0"/>
        <pt x="472" y="1317" on="1"/>
        <pt x="400" y="1233" on="0"/>
        <pt x="400" y="1100" on="1"/>
      </contour>
      <contour>
        <pt x="817" y="1966" on="1"/>
        <pt x="827" y="1966" on="1"/>
        <pt x="1003" y="1882" on="1"/>
        <pt x="782" y="1566" on="1"/>
        <pt x="772" y="1566" on="1"/>
        <pt x="655" y="1621" on="1"/>
      </contour>
    </TTGlyph>
    <TTGlyph name="Abreve" xMin="200" yMin="-40" xMax="1210" yMax="1947">
      <contour>
        <pt x="200" y="-40" on="1"/>
        <pt x="200" y="1030" on="1"/>
        <pt x="200" y="1246" on="0"/>
        <pt x="335" y="1385" on="1"/>
        <pt x="477" y="1530" on="0"/>
        <pt x="705" y="1530" on="1"/>
        <pt x="929" y="1530" on="0"/>
        <pt x="1075" y="1385" on="1"/>
        <pt x="1210" y="1251" on="0"/>
        <pt x="1210" y="1030" on="1"/>
        <pt x="1210" y="50" on="1"/>
        <pt x="1020" y="-40" on="1"/>
        <pt x="1010" y="-40" on="1"/>
        <pt x="1010" y="700" on="1"/>
        <pt x="400" y="700" on="1"/>
        <pt x="400" y="50" on="1"/>
        <pt x="210" y="-40" on="1"/>
      </contour>
      <contour>
        <pt x="400" y="810" on="1"/>
        <pt x="1010" y="810" on="1"/>
        <pt x="1010" y="1100" on="1"/>
        <pt x="1010" y="1234" on="0"/>
        <pt x="938" y="1317" on="1"/>
        <pt x="848" y="1420" on="0"/>
        <pt x="705" y="1420" on="1"/>
        <pt x="561" y="1420" on="0"/>
        <pt x="472" y="1317" on="1"/>
        <pt x="400" y="1233" on="0"/>
        <pt x="400" y="1100" on="1"/>
      </contour>
      <contour>
        <pt x="468" y="1788" on="1"/>
        <pt x="468" y="1798" on="1"/>
        <pt x="542" y="1947" on="1"/>
        <pt x="614" y="1813" on="0"/>
        <pt x="814" y="1813" on="0"/>
        <pt x="886" y="1947" on="1"/>
        <pt x="962" y="1798" on="1"/>
        <pt x="962" y="1788" on="1"/>
        <pt x="860" y="1638" on="0"/>
        <pt x="712" y="1638" on="1"/>
        <pt x="558" y="1638" on="0"/>
      </contour>
    </TTGlyph>
    <TTGlyph name="Acircumflex" xMin="200" yMin="-40" xMax="1210" yMax="1966">
      <contour>
        <pt x="200" y="-40" on="1"/>
        <pt x="200" y="1030" on="1"/>
        <pt x="200" y="1246" on="0"/>
        <pt x="335" y="1385" on="1"/>
        <pt x="477" y="1530" on="0"/>
        <pt x="705" y="1530" on="1"/>
        <pt x="929" y="1530" on="0"/>
        <pt x="1075" y="1385" on="1"/>
        <pt x="1210" y="1251" on="0"/>
        <pt x="1210" y="1030" on="1"/>
        <pt x="1210" y="50" on="1"/>
        <pt x="1020" y="-40" on="1"/>
        <pt x="1010" y="-40" on="1"/>
        <pt x="1010" y="700" on="1"/>
        <pt x="400" y="700" on="1"/>
        <pt x="400" y="50" on="1"/>
        <pt x="210" y="-40" on="1"/>
      </contour>
      <contour>
        <pt x="400" y="810" on="1"/>
        <pt x="1010" y="810" on="1"/>
        <pt x="1010" y="1100" on="1"/>
        <pt x="1010" y="1234" on="0"/>
        <pt x="938" y="1317" on="1"/>
        <pt x="848" y="1420" on="0"/>
        <pt x="705" y="1420" on="1"/>
        <pt x="561" y="1420" on="0"/>
        <pt x="472" y="1317" on="1"/>
        <pt x="400" y="1233" on="0"/>
        <pt x="400" y="1100" on="1"/>
      </contour>
      <contour>
        <pt x="434" y="1621" on="1"/>
        <pt x="587" y="1882" on="1"/>
        <pt x="763" y="1966" on="1"/>
        <pt x="773" y="1966" on="1"/>
        <pt x="986" y="1621" on="1"/>
        <pt x="870" y="1566" on="1"/>
        <pt x="860" y="1566" on="1"/>
        <pt x="710" y="1774" on="1"/>
        <pt x="562" y="1566" on="1"/>
        <pt x="552" y="1566" on="1"/>
      </contour>
    </TTGlyph>
    <TTGlyph name="Adieresis" xMin="200" yMin="-40" xMax="1210" yMax="1925">
      <contour>
        <pt x="200" y="-40" on="1"/>
        <pt x="200" y="1030" on="1"/>
        <pt x="200" y="1246" on="0"/>
        <pt x="335" y="1385" on="1"/>
        <pt x="477" y="1530" on="0"/>
        <pt x="705" y="1530" on="1"/>
        <pt x="929" y="1530" on="0"/>
        <pt x="1075" y="1385" on="1"/>
        <pt x="1210" y="1251" on="0"/>
        <pt x="1210" y="1030" on="1"/>
        <pt x="1210" y="50" on="1"/>
        <pt x="1020" y="-40" on="1"/>
        <pt x="1010" y="-40" on="1"/>
        <pt x="1010" y="700" on="1"/>
        <pt x="400" y="700" on="1"/>
        <pt x="400" y="50" on="1"/>
        <pt x="210" y="-40" on="1"/>
      </contour>
      <contour>
        <pt x="400" y="810" on="1"/>
        <pt x="1010" y="810" on="1"/>
        <pt x="1010" y="1100" on="1"/>
        <pt x="1010" y="1234" on="0"/>
        <pt x="938" y="1317" on="1"/>
        <pt x="848" y="1420" on="0"/>
        <pt x="705" y="1420" on="1"/>
        <pt x="561" y="1420" on="0"/>
        <pt x="472" y="1317" on="1"/>
        <pt x="400" y="1233" on="0"/>
        <pt x="400" y="1100" on="1"/>
      </contour>
      <contour>
        <pt x="742" y="1752" on="0"/>
        <pt x="742" y="1853" on="0"/>
        <pt x="812" y="1925" on="0"/>
        <pt x="912" y="1925" on="0"/>
        <pt x="982" y="1853" on="0"/>
        <pt x="982" y="1752" on="0"/>
        <pt x="912" y="1680" on="0"/>
        <pt x="812" y="1680" on="0"/>
      </contour>
      <contour>
        <pt x="442" y="1752" on="0"/>
        <pt x="442" y="1853" on="0"/>
        <pt x="512" y="1925" on="0"/>
        <pt x="612" y="1925" on="0"/>
        <pt x="682" y="1853" on="0"/>
        <pt x="682" y="1752" on="0"/>
        <pt x="612" y="1680" on="0"/>
        <pt x="512" y="1680" on="0"/>
      </contour>
    </TTGlyph>
    <TTGlyph name="Agrave" xMin="200" yMin="-40" xMax="1210" yMax="1966">
      <contour>
        <pt x="200" y="-40" on="1"/>
        <pt x="200" y="1030" on="1"/>
        <pt x="200" y="1246" on="0"/>
        <pt x="335" y="1385" on="1"/>
        <pt x="477" y="1530" on="0"/>
        <pt x="705" y="1530" on="1"/>
        <pt x="929" y="1530" on="0"/>
        <pt x="1075" y="1385" on="1"/>
        <pt x="1210" y="1251" on="0"/>
        <pt x="1210" y="1030" on="1"/>
        <pt x="1210" y="50" on="1"/>
        <pt x="1020" y="-40" on="1"/>
        <pt x="1010" y="-40" on="1"/>
        <pt x="1010" y="700" on="1"/>
        <pt x="400" y="700" on="1"/>
        <pt x="400" y="50" on="1"/>
        <pt x="210" y="-40" on="1"/>
      </contour>
      <contour>
        <pt x="400" y="810" on="1"/>
        <pt x="1010" y="810" on="1"/>
        <pt x="1010" y="1100" on="1"/>
        <pt x="1010" y="1234" on="0"/>
        <pt x="938" y="1317" on="1"/>
        <pt x="848" y="1420" on="0"/>
        <pt x="705" y="1420" on="1"/>
        <pt x="561" y="1420" on="0"/>
        <pt x="472" y="1317" on="1"/>
        <pt x="400" y="1233" on="0"/>
        <pt x="400" y="1100" on="1"/>
      </contour>
      <contour>
        <pt x="596" y="1966" on="1"/>
        <pt x="606" y="1966" on="1"/>
        <pt x="768" y="1621" on="1"/>
        <pt x="651" y="1566" on="1"/>
        <pt x="641" y="1566" on="1"/>
        <pt x="420" y="1882" on="1"/>
      </contour>
    </TTGlyph>
    <TTGlyph name="Amacron" xMin="200" yMin="-40" xMax="1210" yMax="1820">
      <contour>
        <pt x="200" y="-40" on="1"/>
        <pt x="200" y="1030" on="1"/>
        <pt x="200" y="1246" on="0"/>
        <pt x="335" y="1385" on="1"/>
        <pt x="477" y="1530" on="0"/>
        <pt x="705" y="1530" on="1"/>
        <pt x="929" y="1530" on="0"/>
        <pt x="1075" y="1385" on="1"/>
        <pt x="1210" y="1251" on="0"/>
        <pt x="1210" y="1030" on="1"/>
        <pt x="1210" y="50" on="1"/>
        <pt x="1020" y="-40" on="1"/>
        <pt x="1010" y="-40" on="1"/>
        <pt x="1010" y="700" on="1"/>
        <pt x="400" y="700" on="1"/>
        <pt x="400" y="50" on="1"/>
        <pt x="210" y="-40" on="1"/>
      </contour>
      <contour>
        <pt x="400" y="810" on="1"/>
        <pt x="1010" y="810" on="1"/>
        <pt x="1010" y="1100" on="1"/>
        <pt x="1010" y="1234" on="0"/>
        <pt x="938" y="1317" on="1"/>
        <pt x="848" y="1420" on="0"/>
        <pt x="705" y="1420" on="1"/>
        <pt x="561" y="1420" on="0"/>
        <pt x="472" y="1317" on="1"/>
        <pt x="400" y="1233" on="0"/>
        <pt x="400" y="1100" on="1"/>
      </contour>
      <contour>
        <pt x="467" y="1638" on="1"/>
        <pt x="467" y="1648" on="1"/>
        <pt x="548" y="1820" on="1"/>
        <pt x="1006" y="1820" on="1"/>
        <pt x="1006" y="1810" on="1"/>
        <pt x="925" y="1638" on="1"/>
      </contour>
    </TTGlyph>
    <TTGlyph name="Aogonek" xMin="200" yMin="-450" xMax="1210" yMax="1530">
      <contour>
        <pt x="400" y="810" on="1"/>
        <pt x="1010" y="810" on="1"/>
        <pt x="1010" y="1100" on="1"/>
        <pt x="1010" y="1234" on="0"/>
        <pt x="938" y="1317" on="1"/>
        <pt x="848" y="1420" on="0"/>
        <pt x="705" y="1420" on="1"/>
        <pt x="561" y="1420" on="0"/>
        <pt x="472" y="1317" on="1"/>
        <pt x="400" y="1233" on="0"/>
        <pt x="400" y="1100" on="1"/>
      </contour>
      <contour>
        <pt x="200" y="-40" on="1"/>
        <pt x="200" y="1030" on="1"/>
        <pt x="200" y="1246" on="0"/>
        <pt x="335" y="1385" on="1"/>
        <pt x="477" y="1530" on="0"/>
        <pt x="705" y="1530" on="1"/>
        <pt x="929" y="1530" on="0"/>
        <pt x="1075" y="1385" on="1"/>
        <pt x="1210" y="1251" on="0"/>
        <pt x="1210" y="1030" on="1"/>
        <pt x="1210" y="50" on="1"/>
        <pt x="1031" y="-35" on="1"/>
        <pt x="996" y="-95" on="0"/>
        <pt x="996" y="-152" on="1"/>
        <pt x="996" y="-273" on="0"/>
        <pt x="1130" y="-360" on="1"/>
        <pt x="940" y="-450" on="1"/>
        <pt x="930" y="-450" on="1"/>
        <pt x="821" y="-343" on="0"/>
        <pt x="821" y="-206" on="1"/>
        <pt x="821" y="-38" on="0"/>
        <pt x="1010" y="82" on="1"/>
        <pt x="1010" y="700" on="1"/>
        <pt x="400" y="700" on="1"/>
        <pt x="400" y="50" on="1"/>
        <pt x="210" y="-40" on="1"/>
      </contour>
    </TTGlyph>
    <TTGlyph name="Aring" xMin="200" yMin="-40" xMax="1210" yMax="1966">
      <contour>
        <pt x="200" y="-40" on="1"/>
        <pt x="200" y="1030" on="1"/>
        <pt x="200" y="1246" on="0"/>
        <pt x="335" y="1385" on="1"/>
        <pt x="477" y="1530" on="0"/>
        <pt x="705" y="1530" on="1"/>
        <pt x="929" y="1530" on="0"/>
        <pt x="1075" y="1385" on="1"/>
        <pt x="1210" y="1251" on="0"/>
        <pt x="1210" y="1030" on="1"/>
        <pt x="1210" y="50" on="1"/>
        <pt x="1020" y="-40" on="1"/>
        <pt x="1010" y="-40" on="1"/>
        <pt x="1010" y="700" on="1"/>
        <pt x="400" y="700" on="1"/>
        <pt x="400" y="50" on="1"/>
        <pt x="210" y="-40" on="1"/>
      </contour>
      <contour>
        <pt x="400" y="810" on="1"/>
        <pt x="1010" y="810" on="1"/>
        <pt x="1010" y="1100" on="1"/>
        <pt x="1010" y="1234" on="0"/>
        <pt x="938" y="1317" on="1"/>
        <pt x="848" y="1420" on="0"/>
        <pt x="705" y="1420" on="1"/>
        <pt x="561" y="1420" on="0"/>
        <pt x="472" y="1317" on="1"/>
        <pt x="400" y="1233" on="0"/>
        <pt x="400" y="1100" on="1"/>
      </contour>
      <contour>
        <pt x="785" y="1588" on="0"/>
        <pt x="625" y="1588" on="0"/>
        <pt x="570" y="1637" on="1"/>
        <pt x="508" y="1692" on="0"/>
        <pt x="508" y="1777" on="1"/>
        <pt x="508" y="1860" on="0"/>
        <pt x="570" y="1917" on="1"/>
        <pt x="623" y="1966" on="0"/>
        <pt x="705" y="1966" on="1"/>
        <pt x="785" y="1966" on="0"/>
        <pt x="840" y="1917" on="1"/>
        <pt x="902" y="1862" on="0"/>
        <pt x="902" y="1692" on="0"/>
        <pt x="840" y="1637" on="1"/>
      </contour>
      <contour>
        <pt x="705" y="1862" on="1"/>
        <pt x="671" y="1862" on="0"/>
        <pt x="631" y="1820" on="0"/>
        <pt x="631" y="1777" on="1"/>
        <pt x="631" y="1731" on="0"/>
        <pt x="652" y="1712" on="1"/>
        <pt x="674" y="1692" on="0"/>
        <pt x="704" y="1692" on="1"/>
        <pt x="735" y="1692" on="0"/>
        <pt x="757" y="1714" on="1"/>
        <pt x="777" y="1733" on="0"/>
        <pt x="777" y="1777" on="1"/>
        <pt x="777" y="1822" on="0"/>
        <pt x="755" y="1843" on="1"/>
        <pt x="735" y="1862" on="0"/>
      </contour>
    </TTGlyph>
    <TTGlyph name="Atilde" xMin="200" yMin="-40" xMax="1210" yMax="1924">
      <contour>
        <pt x="200" y="-40" on="1"/>
        <pt x="200" y="1030" on="1"/>
        <pt x="200" y="1246" on="0"/>
        <pt x="335" y="1385" on="1"/>
        <pt x="477" y="1530" on="0"/>
        <pt x="705" y="1530" on="1"/>
        <pt x="929" y="1530" on="0"/>
        <pt x="1075" y="1385" on="1"/>
        <pt x="1210" y="1251" on="0"/>
        <pt x="1210" y="1030" on="1"/>
        <pt x="1210" y="50" on="1"/>
        <pt x="1020" y="-40" on="1"/>
        <pt x="1010" y="-40" on="1"/>
        <pt x="1010" y="700" on="1"/>
        <pt x="400" y="700" on="1"/>
        <pt x="400" y="50" on="1"/>
        <pt x="210" y="-40" on="1"/>
      </contour>
      <contour>
        <pt x="400" y="810" on="1"/>
        <pt x="1010" y="810" on="1"/>
        <pt x="1010" y="1100" on="1"/>
        <pt x="1010" y="1234" on="0"/>
        <pt x="938" y="1317" on="1"/>
        <pt x="848" y="1420" on="0"/>
        <pt x="705" y="1420" on="1"/>
        <pt x="561" y="1420" on="0"/>
        <pt x="472" y="1317" on="1"/>
        <pt x="400" y="1233" on="0"/>
        <pt x="400" y="1100" on="1"/>
      </contour>
      <contour>
        <pt x="471" y="1638" on="1"/>
        <pt x="471" y="1924" on="0"/>
        <pt x="612" y="1924" on="1"/>
        <pt x="676" y="1924" on="0"/>
        <pt x="749" y="1854" on="1"/>
        <pt x="800" y="1805" on="0"/>
        <pt x="824" y="1805" on="1"/>
        <pt x="858" y="1805" on="0"/>
        <pt x="858" y="1877" on="1"/>
        <pt x="968" y="1924" on="1"/>
        <pt x="974" y="1924" on="1"/>
        <pt x="974" y="1638" on="0"/>
        <pt x="833" y="1638" on="1"/>
        <pt x="769" y="1638" on="0"/>
        <pt x="696" y="1708" on="1"/>
        <pt x="645" y="1757" on="0"/>
        <pt x="621" y="1757" on="1"/>
        <pt x="587" y="1757" on="0"/>
        <pt x="587" y="1685" on="1"/>
        <pt x="477" y="1638" on="1"/>
      </contour>
    </TTGlyph>
    <TTGlyph name="B" xMin="200" yMin="0" xMax="1190" yMax="1510">
      <contour>
        <pt x="400" y="110" on="1"/>
        <pt x="685" y="110" on="1"/>
        <pt x="836" y="110" on="0"/>
        <pt x="925" y="205" on="1"/>
        <pt x="990" y="274" on="0"/>
        <pt x="990" y="457" on="1"/>
        <pt x="990" y="605" on="0"/>
        <pt x="921" y="687" on="1"/>
        <pt x="844" y="779" on="0"/>
        <pt x="685" y="779" on="1"/>
        <pt x="400" y="779" on="1"/>
      </contour>
      <contour>
        <pt x="400" y="889" on="1"/>
        <pt x="685" y="889" on="1"/>
        <pt x="785" y="889" on="0"/>
        <pt x="846" y="954" on="1"/>
        <pt x="900" y="1012" on="0"/>
        <pt x="900" y="1142" on="1"/>
        <pt x="900" y="1292" on="0"/>
        <pt x="835" y="1349" on="1"/>
        <pt x="777" y="1400" on="0"/>
        <pt x="685" y="1400" on="1"/>
        <pt x="400" y="1400" on="1"/>
      </contour>
      <contour>
        <pt x="200" y="0" on="1"/>
        <pt x="200" y="1460" on="1"/>
        <pt x="306" y="1510" on="1"/>
        <pt x="685" y="1510" on="1"/>
        <pt x="854" y="1510" on="0"/>
        <pt x="966" y="1418" on="1"/>
        <pt x="1099" y="1310" on="0"/>
        <pt x="1099" y="1141" on="1"/>
        <pt x="1099" y="969" on="0"/>
        <pt x="947" y="855" on="1"/>
        <pt x="996" y="834" on="0"/>
        <pt x="1044" y="792" on="1"/>
        <pt x="1190" y="659" on="0"/>
        <pt x="1190" y="462" on="1"/>
        <pt x="1190" y="264" on="0"/>
        <pt x="1062" y="137" on="1"/>
        <pt x="925" y="0" on="0"/>
        <pt x="685" y="0" on="1"/>
      </contour>
    </TTGlyph>
    <TTGlyph name="C" xMin="200" yMin="-20" xMax="1210" yMax="1530">
      <contour>
        <pt x="1210" y="550" on="1"/>
        <pt x="1210" y="480" on="1"/>
        <pt x="1210" y="263" on="0"/>
        <pt x="1075" y="125" on="1"/>
        <pt x="933" y="-20" on="0"/>
        <pt x="477" y="-20" on="0"/>
        <pt x="335" y="125" on="1"/>
        <pt x="200" y="263" on="0"/>
        <pt x="200" y="480" on="1"/>
        <pt x="200" y="1030" on="1"/>
        <pt x="200" y="1247" on="0"/>
        <pt x="335" y="1385" on="1"/>
        <pt x="477" y="1530" on="0"/>
        <pt x="705" y="1530" on="1"/>
        <pt x="941" y="1530" on="0"/>
        <pt x="1210" y="1240" on="0"/>
        <pt x="1210" y="1050" on="1"/>
        <pt x="1020" y="960" on="1"/>
        <pt x="1010" y="960" on="1"/>
        <pt x="1010" y="1100" on="1"/>
        <pt x="1010" y="1234" on="0"/>
        <pt x="938" y="1317" on="1"/>
        <pt x="849" y="1420" on="0"/>
        <pt x="561" y="1420" on="0"/>
        <pt x="472" y="1317" on="1"/>
        <pt x="400" y="1234" on="0"/>
        <pt x="400" y="1100" on="1"/>
        <pt x="400" y="410" on="1"/>
        <pt x="400" y="276" on="0"/>
        <pt x="472" y="193" on="1"/>
        <pt x="561" y="90" on="0"/>
        <pt x="849" y="90" on="0"/>
        <pt x="938" y="193" on="1"/>
        <pt x="1010" y="276" on="0"/>
        <pt x="1010" y="460" on="1"/>
        <pt x="1200" y="550" on="1"/>
      </contour>
    </TTGlyph>
    <TTGlyph name="Cacute" xMin="200" yMin="-20" xMax="1210" yMax="1966">
      <contour>
        <pt x="1210" y="550" on="1"/>
        <pt x="1210" y="480" on="1"/>
        <pt x="1210" y="263" on="0"/>
        <pt x="1075" y="125" on="1"/>
        <pt x="933" y="-20" on="0"/>
        <pt x="477" y="-20" on="0"/>
        <pt x="335" y="125" on="1"/>
        <pt x="200" y="263" on="0"/>
        <pt x="200" y="480" on="1"/>
        <pt x="200" y="1030" on="1"/>
        <pt x="200" y="1247" on="0"/>
        <pt x="335" y="1385" on="1"/>
        <pt x="477" y="1530" on="0"/>
        <pt x="705" y="1530" on="1"/>
        <pt x="941" y="1530" on="0"/>
        <pt x="1210" y="1240" on="0"/>
        <pt x="1210" y="1050" on="1"/>
        <pt x="1020" y="960" on="1"/>
        <pt x="1010" y="960" on="1"/>
        <pt x="1010" y="1100" on="1"/>
        <pt x="1010" y="1234" on="0"/>
        <pt x="938" y="1317" on="1"/>
        <pt x="849" y="1420" on="0"/>
        <pt x="561" y="1420" on="0"/>
        <pt x="472" y="1317" on="1"/>
        <pt x="400" y="1234" on="0"/>
        <pt x="400" y="1100" on="1"/>
        <pt x="400" y="410" on="1"/>
        <pt x="400" y="276" on="0"/>
        <pt x="472" y="193" on="1"/>
        <pt x="561" y="90" on="0"/>
        <pt x="849" y="90" on="0"/>
        <pt x="938" y="193" on="1"/>
        <pt x="1010" y="276" on="0"/>
        <pt x="1010" y="460" on="1"/>
        <pt x="1200" y="550" on="1"/>
      </contour>
      <contour>
        <pt x="817" y="1966" on="1"/>
        <pt x="827" y="1966" on="1"/>
        <pt x="1003" y="1882" on="1"/>
        <pt x="782" y="1566" on="1"/>
        <pt x="772" y="1566" on="1"/>
        <pt x="655" y="1621" on="1"/>
      </contour>
    </TTGlyph>
    <TTGlyph name="Ccaron" xMin="200" yMin="-20" xMax="1210" yMax="1966">
      <contour>
        <pt x="1210" y="550" on="1"/>
        <pt x="1210" y="480" on="1"/>
        <pt x="1210" y="263" on="0"/>
        <pt x="1075" y="125" on="1"/>
        <pt x="933" y="-20" on="0"/>
        <pt x="477" y="-20" on="0"/>
        <pt x="335" y="125" on="1"/>
        <pt x="200" y="263" on="0"/>
        <pt x="200" y="480" on="1"/>
        <pt x="200" y="1030" on="1"/>
        <pt x="200" y="1247" on="0"/>
        <pt x="335" y="1385" on="1"/>
        <pt x="477" y="1530" on="0"/>
        <pt x="705" y="1530" on="1"/>
        <pt x="941" y="1530" on="0"/>
        <pt x="1210" y="1240" on="0"/>
        <pt x="1210" y="1050" on="1"/>
        <pt x="1020" y="960" on="1"/>
        <pt x="1010" y="960" on="1"/>
        <pt x="1010" y="1100" on="1"/>
        <pt x="1010" y="1234" on="0"/>
        <pt x="938" y="1317" on="1"/>
        <pt x="849" y="1420" on="0"/>
        <pt x="561" y="1420" on="0"/>
        <pt x="472" y="1317" on="1"/>
        <pt x="400" y="1234" on="0"/>
        <pt x="400" y="1100" on="1"/>
        <pt x="400" y="410" on="1"/>
        <pt x="400" y="276" on="0"/>
        <pt x="472" y="193" on="1"/>
        <pt x="561" y="90" on="0"/>
        <pt x="849" y="90" on="0"/>
        <pt x="938" y="193" on="1"/>
        <pt x="1010" y="276" on="0"/>
        <pt x="1010" y="460" on="1"/>
        <pt x="1200" y="550" on="1"/>
      </contour>
      <contour>
        <pt x="647" y="1566" on="1"/>
        <pt x="434" y="1911" on="1"/>
        <pt x="550" y="1966" on="1"/>
        <pt x="560" y="1966" on="1"/>
        <pt x="710" y="1758" on="1"/>
        <pt x="858" y="1966" on="1"/>
        <pt x="868" y="1966" on="1"/>
        <pt x="986" y="1911" on="1"/>
        <pt x="833" y="1650" on="1"/>
        <pt x="657" y="1566" on="1"/>
      </contour>
    </TTGlyph>
    <TTGlyph name="Ccedilla" xMin="200" yMin="-450" xMax="1210" yMax="1530">
      <contour>
        <pt x="1210" y="550" on="1"/>
        <pt x="1210" y="480" on="1"/>
        <pt x="1210" y="263" on="0"/>
        <pt x="1075" y="125" on="1"/>
        <pt x="956" y="3" on="0"/>
        <pt x="776" y="-16" on="1"/>
        <pt x="849" y="-102" on="0"/>
        <pt x="849" y="-206" on="1"/>
        <pt x="849" y="-343" on="0"/>
        <pt x="740" y="-450" on="1"/>
        <pt x="730" y="-450" on="1"/>
        <pt x="540" y="-360" on="1"/>
        <pt x="674" y="-273" on="0"/>
        <pt x="674" y="-152" on="1"/>
        <pt x="674" y="-87" on="0"/>
        <pt x="627" y="-15" on="1"/>
        <pt x="452" y="6" on="0"/>
        <pt x="335" y="125" on="1"/>
        <pt x="200" y="262" on="0"/>
        <pt x="200" y="480" on="1"/>
        <pt x="200" y="1030" on="1"/>
        <pt x="200" y="1247" on="0"/>
        <pt x="335" y="1385" on="1"/>
        <pt x="477" y="1530" on="0"/>
        <pt x="705" y="1530" on="1"/>
        <pt x="941" y="1530" on="0"/>
        <pt x="1210" y="1240" on="0"/>
        <pt x="1210" y="1050" on="1"/>
        <pt x="1020" y="960" on="1"/>
        <pt x="1010" y="960" on="1"/>
        <pt x="1010" y="1100" on="1"/>
        <pt x="1010" y="1234" on="0"/>
        <pt x="938" y="1317" on="1"/>
        <pt x="849" y="1420" on="0"/>
        <pt x="561" y="1420" on="0"/>
        <pt x="472" y="1317" on="1"/>
        <pt x="400" y="1234" on="0"/>
        <pt x="400" y="1100" on="1"/>
        <pt x="400" y="410" on="1"/>
        <pt x="400" y="276" on="0"/>
        <pt x="472" y="193" on="1"/>
        <pt x="561" y="90" on="0"/>
        <pt x="849" y="90" on="0"/>
        <pt x="938" y="193" on="1"/>
        <pt x="1010" y="276" on="0"/>
        <pt x="1010" y="460" on="1"/>
        <pt x="1200" y="550" on="1"/>
      </contour>
    </TTGlyph>
    <TTGlyph name="Ccircumflex" xMin="200" yMin="-20" xMax="1210" yMax="1966">
      <contour>
        <pt x="1210" y="550" on="1"/>
        <pt x="1210" y="480" on="1"/>
        <pt x="1210" y="263" on="0"/>
        <pt x="1075" y="125" on="1"/>
        <pt x="933" y="-20" on="0"/>
        <pt x="477" y="-20" on="0"/>
        <pt x="335" y="125" on="1"/>
        <pt x="200" y="263" on="0"/>
        <pt x="200" y="480" on="1"/>
        <pt x="200" y="1030" on="1"/>
        <pt x="200" y="1247" on="0"/>
        <pt x="335" y="1385" on="1"/>
        <pt x="477" y="1530" on="0"/>
        <pt x="705" y="1530" on="1"/>
        <pt x="941" y="1530" on="0"/>
        <pt x="1210" y="1240" on="0"/>
        <pt x="1210" y="1050" on="1"/>
        <pt x="1020" y="960" on="1"/>
        <pt x="1010" y="960" on="1"/>
        <pt x="1010" y="1100" on="1"/>
        <pt x="1010" y="1234" on="0"/>
        <pt x="938" y="1317" on="1"/>
        <pt x="849" y="1420" on="0"/>
        <pt x="561" y="1420" on="0"/>
        <pt x="472" y="1317" on="1"/>
        <pt x="400" y="1234" on="0"/>
        <pt x="400" y="1100" on="1"/>
        <pt x="400" y="410" on="1"/>
        <pt x="400" y="276" on="0"/>
        <pt x="472" y="193" on="1"/>
        <pt x="561" y="90" on="0"/>
        <pt x="849" y="90" on="0"/>
        <pt x="938" y="193" on="1"/>
        <pt x="1010" y="276" on="0"/>
        <pt x="1010" y="460" on="1"/>
        <pt x="1200" y="550" on="1"/>
      </contour>
      <contour>
        <pt x="434" y="1621" on="1"/>
        <pt x="587" y="1882" on="1"/>
        <pt x="763" y="1966" on="1"/>
        <pt x="773" y="1966" on="1"/>
        <pt x="986" y="1621" on="1"/>
        <pt x="870" y="1566" on="1"/>
        <pt x="860" y="1566" on="1"/>
        <pt x="710" y="1774" on="1"/>
        <pt x="562" y="1566" on="1"/>
        <pt x="552" y="1566" on="1"/>
      </contour>
    </TTGlyph>
    <TTGlyph name="Cdotaccent" xMin="200" yMin="-20" xMax="1210" yMax="1925">
      <contour>
        <pt x="1210" y="550" on="1"/>
        <pt x="1210" y="480" on="1"/>
        <pt x="1210" y="263" on="0"/>
        <pt x="1075" y="125" on="1"/>
        <pt x="933" y="-20" on="0"/>
        <pt x="477" y="-20" on="0"/>
        <pt x="335" y="125" on="1"/>
        <pt x="200" y="263" on="0"/>
        <pt x="200" y="480" on="1"/>
        <pt x="200" y="1030" on="1"/>
        <pt x="200" y="1247" on="0"/>
        <pt x="335" y="1385" on="1"/>
        <pt x="477" y="1530" on="0"/>
        <pt x="705" y="1530" on="1"/>
        <pt x="941" y="1530" on="0"/>
        <pt x="1210" y="1240" on="0"/>
        <pt x="1210" y="1050" on="1"/>
        <pt x="1020" y="960" on="1"/>
        <pt x="1010" y="960" on="1"/>
        <pt x="1010" y="1100" on="1"/>
        <pt x="1010" y="1234" on="0"/>
        <pt x="938" y="1317" on="1"/>
        <pt x="849" y="1420" on="0"/>
        <pt x="561" y="1420" on="0"/>
        <pt x="472" y="1317" on="1"/>
        <pt x="400" y="1234" on="0"/>
        <pt x="400" y="1100" on="1"/>
        <pt x="400" y="410" on="1"/>
        <pt x="400" y="276" on="0"/>
        <pt x="472" y="193" on="1"/>
        <pt x="561" y="90" on="0"/>
        <pt x="849" y="90" on="0"/>
        <pt x="938" y="193" on="1"/>
        <pt x="1010" y="276" on="0"/>
        <pt x="1010" y="460" on="1"/>
        <pt x="1200" y="550" on="1"/>
      </contour>
      <contour>
        <pt x="585" y="1752" on="0"/>
        <pt x="585" y="1853" on="0"/>
        <pt x="655" y="1925" on="0"/>
        <pt x="755" y="1925" on="0"/>
        <pt x="825" y="1853" on="0"/>
        <pt x="825" y="1752" on="0"/>
        <pt x="755" y="1680" on="0"/>
        <pt x="655" y="1680" on="0"/>
      </contour>
    </TTGlyph>
    <TTGlyph name="D" xMin="200" yMin="0" xMax="1190" yMax="1510">
      <contour>
        <pt x="200" y="0" on="1"/>
        <pt x="200" y="1460" on="1"/>
        <pt x="306" y="1510" on="1"/>
        <pt x="685" y="1510" on="1"/>
        <pt x="913" y="1510" on="0"/>
        <pt x="1055" y="1365" on="1"/>
        <pt x="1190" y="1228" on="0"/>
        <pt x="1190" y="1010" on="1"/>
        <pt x="1190" y="500" on="1"/>
        <pt x="1190" y="283" on="0"/>
        <pt x="1055" y="145" on="1"/>
        <pt x="913" y="0" on="0"/>
        <pt x="685" y="0" on="1"/>
      </contour>
      <contour>
        <pt x="400" y="110" on="1"/>
        <pt x="685" y="110" on="1"/>
        <pt x="822" y="110" on="0"/>
        <pt x="918" y="213" on="1"/>
        <pt x="990" y="290" on="0"/>
        <pt x="990" y="430" on="1"/>
        <pt x="990" y="1080" on="1"/>
        <pt x="990" y="1213" on="0"/>
        <pt x="918" y="1297" on="1"/>
        <pt x="829" y="1400" on="0"/>
        <pt x="685" y="1400" on="1"/>
        <pt x="400" y="1400" on="1"/>
      </contour>
    </TTGlyph>
    <TTGlyph name="Dcaron" xMin="200" yMin="0" xMax="1190" yMax="1966">
      <contour>
        <pt x="200" y="0" on="1"/>
        <pt x="200" y="1460" on="1"/>
        <pt x="306" y="1510" on="1"/>
        <pt x="685" y="1510" on="1"/>
        <pt x="913" y="1510" on="0"/>
        <pt x="1055" y="1365" on="1"/>
        <pt x="1190" y="1228" on="0"/>
        <pt x="1190" y="1010" on="1"/>
        <pt x="1190" y="500" on="1"/>
        <pt x="1190" y="283" on="0"/>
        <pt x="1055" y="145" on="1"/>
        <pt x="913" y="0" on="0"/>
        <pt x="685" y="0" on="1"/>
      </contour>
      <contour>
        <pt x="400" y="110" on="1"/>
        <pt x="685" y="110" on="1"/>
        <pt x="822" y="110" on="0"/>
        <pt x="918" y="213" on="1"/>
        <pt x="990" y="290" on="0"/>
        <pt x="990" y="430" on="1"/>
        <pt x="990" y="1080" on="1"/>
        <pt x="990" y="1213" on="0"/>
        <pt x="918" y="1297" on="1"/>
        <pt x="829" y="1400" on="0"/>
        <pt x="685" y="1400" on="1"/>
        <pt x="400" y="1400" on="1"/>
      </contour>
      <contour>
        <pt x="578" y="1566" on="1"/>
        <pt x="365" y="1911" on="1"/>
        <pt x="481" y="1966" on="1"/>
        <pt x="491" y="1966" on="1"/>
        <pt x="641" y="1758" on="1"/>
        <pt x="789" y="1966" on="1"/>
        <pt x="799" y="1966" on="1"/>
        <pt x="917" y="1911" on="1"/>
        <pt x="764" y="1650" on="1"/>
        <pt x="588" y="1566" on="1"/>
      </contour>
    </TTGlyph>
    <TTGlyph name="Dcroat" xMin="50" yMin="0" xMax="1190" yMax="1510">
      <contour>
        <pt x="400" y="110" on="1"/>
        <pt x="685" y="110" on="1"/>
        <pt x="822" y="110" on="0"/>
        <pt x="918" y="213" on="1"/>
        <pt x="990" y="290" on="0"/>
        <pt x="990" y="430" on="1"/>
        <pt x="990" y="1080" on="1"/>
        <pt x="990" y="1213" on="0"/>
        <pt x="918" y="1297" on="1"/>
        <pt x="829" y="1400" on="0"/>
        <pt x="685" y="1400" on="1"/>
        <pt x="400" y="1400" on="1"/>
        <pt x="400" y="810" on="1"/>
        <pt x="760" y="810" on="1"/>
        <pt x="760" y="800" on="1"/>
        <pt x="713" y="700" on="1"/>
        <pt x="400" y="700" on="1"/>
      </contour>
      <contour>
        <pt x="200" y="0" on="1"/>
        <pt x="200" y="700" on="1"/>
        <pt x="50" y="700" on="1"/>
        <pt x="50" y="710" on="1"/>
        <pt x="97" y="810" on="1"/>
        <pt x="200" y="810" on="1"/>
        <pt x="200" y="1460" on="1"/>
        <pt x="306" y="1510" on="1"/>
        <pt x="685" y="1510" on="1"/>
        <pt x="913" y="1510" on="0"/>
        <pt x="1055" y="1365" on="1"/>
        <pt x="1190" y="1228" on="0"/>
        <pt x="1190" y="1010" on="1"/>
        <pt x="1190" y="500" on="1"/>
        <pt x="1190" y="283" on="0"/>
        <pt x="1055" y="145" on="1"/>
        <pt x="913" y="0" on="0"/>
        <pt x="685" y="0" on="1"/>
      </contour>
    </TTGlyph>
    <TTGlyph name="Delta" xMin="5" yMin="0" xMax="1186" yMax="1550">
      <contour>
        <pt x="5" y="0" on="1"/>
        <pt x="493" y="1468" on="1"/>
        <pt x="666" y="1550" on="1"/>
        <pt x="676" y="1550" on="1"/>
        <pt x="1186" y="0" on="1"/>
      </contour>
      <contour>
        <pt x="172" y="110" on="1"/>
        <pt x="943" y="110" on="1"/>
        <pt x="558" y="1296" on="1"/>
      </contour>
    </TTGlyph>
    <TTGlyph name="E" xMin="200" yMin="0" xMax="1107" yMax="1510">
      <contour>
        <pt x="200" y="0" on="1"/>
        <pt x="200" y="1460" on="1"/>
        <pt x="306" y="1510" on="1"/>
        <pt x="940" y="1510" on="1"/>
        <pt x="940" y="1500" on="1"/>
        <pt x="893" y="1400" on="1"/>
        <pt x="400" y="1400" on="1"/>
        <pt x="400" y="810" on="1"/>
        <pt x="940" y="810" on="1"/>
        <pt x="940" y="800" on="1"/>
        <pt x="893" y="700" on="1"/>
        <pt x="400" y="700" on="1"/>
        <pt x="400" y="110" on="1"/>
        <pt x="1107" y="110" on="1"/>
        <pt x="1107" y="100" on="1"/>
        <pt x="1060" y="0" on="1"/>
      </contour>
    </TTGlyph>
    <TTGlyph name="Eacute" xMin="200" yMin="0" xMax="1107" yMax="1966">
      <contour>
        <pt x="200" y="0" on="1"/>
        <pt x="200" y="1460" on="1"/>
        <pt x="306" y="1510" on="1"/>
        <pt x="940" y="1510" on="1"/>
        <pt x="940" y="1500" on="1"/>
        <pt x="893" y="1400" on="1"/>
        <pt x="400" y="1400" on="1"/>
        <pt x="400" y="810" on="1"/>
        <pt x="940" y="810" on="1"/>
        <pt x="940" y="800" on="1"/>
        <pt x="893" y="700" on="1"/>
        <pt x="400" y="700" on="1"/>
        <pt x="400" y="110" on="1"/>
        <pt x="1107" y="110" on="1"/>
        <pt x="1107" y="100" on="1"/>
        <pt x="1060" y="0" on="1"/>
      </contour>
      <contour>
        <pt x="684" y="1966" on="1"/>
        <pt x="694" y="1966" on="1"/>
        <pt x="870" y="1882" on="1"/>
        <pt x="649" y="1566" on="1"/>
        <pt x="639" y="1566" on="1"/>
        <pt x="522" y="1621" on="1"/>
      </contour>
    </TTGlyph>
    <TTGlyph name="Ebreve" xMin="200" yMin="0" xMax="1107" yMax="1947">
      <contour>
        <pt x="200" y="0" on="1"/>
        <pt x="200" y="1460" on="1"/>
        <pt x="306" y="1510" on="1"/>
        <pt x="940" y="1510" on="1"/>
        <pt x="940" y="1500" on="1"/>
        <pt x="893" y="1400" on="1"/>
        <pt x="400" y="1400" on="1"/>
        <pt x="400" y="810" on="1"/>
        <pt x="940" y="810" on="1"/>
        <pt x="940" y="800" on="1"/>
        <pt x="893" y="700" on="1"/>
        <pt x="400" y="700" on="1"/>
        <pt x="400" y="110" on="1"/>
        <pt x="1107" y="110" on="1"/>
        <pt x="1107" y="100" on="1"/>
        <pt x="1060" y="0" on="1"/>
      </contour>
      <contour>
        <pt x="338" y="1788" on="1"/>
        <pt x="338" y="1798" on="1"/>
        <pt x="412" y="1947" on="1"/>
        <pt x="484" y="1813" on="0"/>
        <pt x="684" y="1813" on="0"/>
        <pt x="756" y="1947" on="1"/>
        <pt x="832" y="1798" on="1"/>
        <pt x="832" y="1788" on="1"/>
        <pt x="730" y="1638" on="0"/>
        <pt x="582" y="1638" on="1"/>
        <pt x="428" y="1638" on="0"/>
      </contour>
    </TTGlyph>
    <TTGlyph name="Ecaron" xMin="200" yMin="0" xMax="1107" yMax="1966">
      <contour>
        <pt x="200" y="0" on="1"/>
        <pt x="200" y="1460" on="1"/>
        <pt x="306" y="1510" on="1"/>
        <pt x="940" y="1510" on="1"/>
        <pt x="940" y="1500" on="1"/>
        <pt x="893" y="1400" on="1"/>
        <pt x="400" y="1400" on="1"/>
        <pt x="400" y="810" on="1"/>
        <pt x="940" y="810" on="1"/>
        <pt x="940" y="800" on="1"/>
        <pt x="893" y="700" on="1"/>
        <pt x="400" y="700" on="1"/>
        <pt x="400" y="110" on="1"/>
        <pt x="1107" y="110" on="1"/>
        <pt x="1107" y="100" on="1"/>
        <pt x="1060" y="0" on="1"/>
      </contour>
      <contour>
        <pt x="533" y="1566" on="1"/>
        <pt x="320" y="1911" on="1"/>
        <pt x="436" y="1966" on="1"/>
        <pt x="446" y="1966" on="1"/>
        <pt x="596" y="1758" on="1"/>
        <pt x="744" y="1966" on="1"/>
        <pt x="754" y="1966" on="1"/>
        <pt x="872" y="1911" on="1"/>
        <pt x="719" y="1650" on="1"/>
        <pt x="543" y="1566" on="1"/>
      </contour>
    </TTGlyph>
    <TTGlyph name="Ecircumflex" xMin="200" yMin="0" xMax="1107" yMax="1966">
      <contour>
        <pt x="200" y="0" on="1"/>
        <pt x="200" y="1460" on="1"/>
        <pt x="306" y="1510" on="1"/>
        <pt x="940" y="1510" on="1"/>
        <pt x="940" y="1500" on="1"/>
        <pt x="893" y="1400" on="1"/>
        <pt x="400" y="1400" on="1"/>
        <pt x="400" y="810" on="1"/>
        <pt x="940" y="810" on="1"/>
        <pt x="940" y="800" on="1"/>
        <pt x="893" y="700" on="1"/>
        <pt x="400" y="700" on="1"/>
        <pt x="400" y="110" on="1"/>
        <pt x="1107" y="110" on="1"/>
        <pt x="1107" y="100" on="1"/>
        <pt x="1060" y="0" on="1"/>
      </contour>
      <contour>
        <pt x="313" y="1621" on="1"/>
        <pt x="466" y="1882" on="1"/>
        <pt x="642" y="1966" on="1"/>
        <pt x="652" y="1966" on="1"/>
        <pt x="865" y="1621" on="1"/>
        <pt x="749" y="1566" on="1"/>
        <pt x="739" y="1566" on="1"/>
        <pt x="589" y="1774" on="1"/>
        <pt x="441" y="1566" on="1"/>
        <pt x="431" y="1566" on="1"/>
      </contour>
    </TTGlyph>
    <TTGlyph name="Edieresis" xMin="200" yMin="0" xMax="1107" yMax="1925">
      <contour>
        <pt x="200" y="0" on="1"/>
        <pt x="200" y="1460" on="1"/>
        <pt x="306" y="1510" on="1"/>
        <pt x="940" y="1510" on="1"/>
        <pt x="940" y="1500" on="1"/>
        <pt x="893" y="1400" on="1"/>
        <pt x="400" y="1400" on="1"/>
        <pt x="400" y="810" on="1"/>
        <pt x="940" y="810" on="1"/>
        <pt x="940" y="800" on="1"/>
        <pt x="893" y="700" on="1"/>
        <pt x="400" y="700" on="1"/>
        <pt x="400" y="110" on="1"/>
        <pt x="1107" y="110" on="1"/>
        <pt x="1107" y="100" on="1"/>
        <pt x="1060" y="0" on="1"/>
      </contour>
      <contour>
        <pt x="617" y="1752" on="0"/>
        <pt x="617" y="1853" on="0"/>
        <pt x="687" y="1925" on="0"/>
        <pt x="787" y="1925" on="0"/>
        <pt x="857" y="1853" on="0"/>
        <pt x="857" y="1752" on="0"/>
        <pt x="787" y="1680" on="0"/>
        <pt x="687" y="1680" on="0"/>
      </contour>
      <contour>
        <pt x="317" y="1752" on="0"/>
        <pt x="317" y="1853" on="0"/>
        <pt x="387" y="1925" on="0"/>
        <pt x="487" y="1925" on="0"/>
        <pt x="557" y="1853" on="0"/>
        <pt x="557" y="1752" on="0"/>
        <pt x="487" y="1680" on="0"/>
        <pt x="387" y="1680" on="0"/>
      </contour>
    </TTGlyph>
    <TTGlyph name="Edotaccent" xMin="200" yMin="0" xMax="1107" yMax="1925">
      <contour>
        <pt x="200" y="0" on="1"/>
        <pt x="200" y="1460" on="1"/>
        <pt x="306" y="1510" on="1"/>
        <pt x="940" y="1510" on="1"/>
        <pt x="940" y="1500" on="1"/>
        <pt x="893" y="1400" on="1"/>
        <pt x="400" y="1400" on="1"/>
        <pt x="400" y="810" on="1"/>
        <pt x="940" y="810" on="1"/>
        <pt x="940" y="800" on="1"/>
        <pt x="893" y="700" on="1"/>
        <pt x="400" y="700" on="1"/>
        <pt x="400" y="110" on="1"/>
        <pt x="1107" y="110" on="1"/>
        <pt x="1107" y="100" on="1"/>
        <pt x="1060" y="0" on="1"/>
      </contour>
      <contour>
        <pt x="466" y="1752" on="0"/>
        <pt x="466" y="1853" on="0"/>
        <pt x="536" y="1925" on="0"/>
        <pt x="636" y="1925" on="0"/>
        <pt x="706" y="1853" on="0"/>
        <pt x="706" y="1752" on="0"/>
        <pt x="636" y="1680" on="0"/>
        <pt x="536" y="1680" on="0"/>
      </contour>
    </TTGlyph>
    <TTGlyph name="Egrave" xMin="200" yMin="0" xMax="1107" yMax="1966">
      <contour>
        <pt x="200" y="0" on="1"/>
        <pt x="200" y="1460" on="1"/>
        <pt x="306" y="1510" on="1"/>
        <pt x="940" y="1510" on="1"/>
        <pt x="940" y="1500" on="1"/>
        <pt x="893" y="1400" on="1"/>
        <pt x="400" y="1400" on="1"/>
        <pt x="400" y="810" on="1"/>
        <pt x="940" y="810" on="1"/>
        <pt x="940" y="800" on="1"/>
        <pt x="893" y="700" on="1"/>
        <pt x="400" y="700" on="1"/>
        <pt x="400" y="110" on="1"/>
        <pt x="1107" y="110" on="1"/>
        <pt x="1107" y="100" on="1"/>
        <pt x="1060" y="0" on="1"/>
      </contour>
      <contour>
        <pt x="506" y="1966" on="1"/>
        <pt x="516" y="1966" on="1"/>
        <pt x="678" y="1621" on="1"/>
        <pt x="561" y="1566" on="1"/>
        <pt x="551" y="1566" on="1"/>
        <pt x="330" y="1882" on="1"/>
      </contour>
    </TTGlyph>
    <TTGlyph name="Emacron" xMin="200" yMin="0" xMax="1107" yMax="1820">
      <contour>
        <pt x="200" y="0" on="1"/>
        <pt x="200" y="1460" on="1"/>
        <pt x="306" y="1510" on="1"/>
        <pt x="940" y="1510" on="1"/>
        <pt x="940" y="1500" on="1"/>
        <pt x="893" y="1400" on="1"/>
        <pt x="400" y="1400" on="1"/>
        <pt x="400" y="810" on="1"/>
        <pt x="940" y="810" on="1"/>
        <pt x="940" y="800" on="1"/>
        <pt x="893" y="700" on="1"/>
        <pt x="400" y="700" on="1"/>
        <pt x="400" y="110" on="1"/>
        <pt x="1107" y="110" on="1"/>
        <pt x="1107" y="100" on="1"/>
        <pt x="1060" y="0" on="1"/>
      </contour>
      <contour>
        <pt x="346" y="1638" on="1"/>
        <pt x="346" y="1648" on="1"/>
        <pt x="427" y="1820" on="1"/>
        <pt x="885" y="1820" on="1"/>
        <pt x="885" y="1810" on="1"/>
        <pt x="804" y="1638" on="1"/>
      </contour>
    </TTGlyph>
    <TTGlyph name="Eng" xMin="200" yMin="-450" xMax="1210" yMax="1530">
      <contour>
        <pt x="200" y="-40" on="1"/>
        <pt x="200" y="1030" on="1"/>
        <pt x="200" y="1246" on="0"/>
        <pt x="335" y="1385" on="1"/>
        <pt x="477" y="1530" on="0"/>
        <pt x="705" y="1530" on="1"/>
        <pt x="929" y="1530" on="0"/>
        <pt x="1075" y="1385" on="1"/>
        <pt x="1210" y="1251" on="0"/>
        <pt x="1210" y="1030" on="1"/>
        <pt x="1210" y="-50" on="1"/>
        <pt x="1210" y="-215" on="0"/>
        <pt x="1086" y="-337" on="1"/>
        <pt x="970" y="-450" on="0"/>
        <pt x="795" y="-450" on="1"/>
        <pt x="795" y="-440" on="1"/>
        <pt x="842" y="-340" on="1"/>
        <pt x="908" y="-323" on="0"/>
        <pt x="948" y="-286" on="1"/>
        <pt x="1010" y="-229" on="0"/>
        <pt x="1010" y="-118" on="1"/>
        <pt x="1010" y="1100" on="1"/>
        <pt x="1010" y="1234" on="0"/>
        <pt x="938" y="1317" on="1"/>
        <pt x="849" y="1420" on="0"/>
        <pt x="561" y="1420" on="0"/>
        <pt x="472" y="1317" on="1"/>
        <pt x="400" y="1234" on="0"/>
        <pt x="400" y="1100" on="1"/>
        <pt x="400" y="50" on="1"/>
        <pt x="210" y="-40" on="1"/>
      </contour>
    </TTGlyph>
    <TTGlyph name="Eogonek" xMin="200" yMin="-450" xMax="1107" yMax="1510">
      <contour>
        <pt x="200" y="0" on="1"/>
        <pt x="200" y="1460" on="1"/>
        <pt x="306" y="1510" on="1"/>
        <pt x="940" y="1510" on="1"/>
        <pt x="940" y="1500" on="1"/>
        <pt x="893" y="1400" on="1"/>
        <pt x="400" y="1400" on="1"/>
        <pt x="400" y="810" on="1"/>
        <pt x="940" y="810" on="1"/>
        <pt x="940" y="800" on="1"/>
        <pt x="893" y="700" on="1"/>
        <pt x="400" y="700" on="1"/>
        <pt x="400" y="110" on="1"/>
        <pt x="1107" y="110" on="1"/>
        <pt x="1107" y="100" on="1"/>
        <pt x="1060" y="0" on="1"/>
        <pt x="995" y="0" on="1"/>
        <pt x="937" y="-80" on="0"/>
        <pt x="937" y="-152" on="1"/>
        <pt x="937" y="-273" on="0"/>
        <pt x="1071" y="-360" on="1"/>
        <pt x="881" y="-450" on="1"/>
        <pt x="871" y="-450" on="1"/>
        <pt x="762" y="-343" on="0"/>
        <pt x="762" y="-206" on="1"/>
        <pt x="762" y="-92" on="0"/>
        <pt x="849" y="0" on="1"/>
      </contour>
    </TTGlyph>
    <TTGlyph name="Eth" xMin="50" yMin="0" xMax="1190" yMax="1510">
      <contour>
        <pt x="400" y="110" on="1"/>
        <pt x="685" y="110" on="1"/>
        <pt x="822" y="110" on="0"/>
        <pt x="918" y="213" on="1"/>
        <pt x="990" y="290" on="0"/>
        <pt x="990" y="430" on="1"/>
        <pt x="990" y="1080" on="1"/>
        <pt x="990" y="1213" on="0"/>
        <pt x="918" y="1297" on="1"/>
        <pt x="829" y="1400" on="0"/>
        <pt x="685" y="1400" on="1"/>
        <pt x="400" y="1400" on="1"/>
        <pt x="400" y="810" on="1"/>
        <pt x="760" y="810" on="1"/>
        <pt x="760" y="800" on="1"/>
        <pt x="713" y="700" on="1"/>
        <pt x="400" y="700" on="1"/>
      </contour>
      <contour>
        <pt x="200" y="0" on="1"/>
        <pt x="200" y="700" on="1"/>
        <pt x="50" y="700" on="1"/>
        <pt x="50" y="710" on="1"/>
        <pt x="97" y="810" on="1"/>
        <pt x="200" y="810" on="1"/>
        <pt x="200" y="1460" on="1"/>
        <pt x="306" y="1510" on="1"/>
        <pt x="685" y="1510" on="1"/>
        <pt x="913" y="1510" on="0"/>
        <pt x="1055" y="1365" on="1"/>
        <pt x="1190" y="1228" on="0"/>
        <pt x="1190" y="1010" on="1"/>
        <pt x="1190" y="500" on="1"/>
        <pt x="1190" y="283" on="0"/>
        <pt x="1055" y="145" on="1"/>
        <pt x="913" y="0" on="0"/>
        <pt x="685" y="0" on="1"/>
      </contour>
    </TTGlyph>
    <TTGlyph name="Euro" xMin="100" yMin="-20" xMax="1282" yMax="1530">
      <contour>
        <pt x="1282" y="550" on="1"/>
        <pt x="1282" y="480" on="1"/>
        <pt x="1282" y="263" on="0"/>
        <pt x="1147" y="125" on="1"/>
        <pt x="1005" y="-20" on="0"/>
        <pt x="549" y="-20" on="0"/>
        <pt x="407" y="125" on="1"/>
        <pt x="272" y="263" on="0"/>
        <pt x="272" y="480" on="1"/>
        <pt x="272" y="588" on="1"/>
        <pt x="100" y="588" on="1"/>
        <pt x="100" y="598" on="1"/>
        <pt x="147" y="698" on="1"/>
        <pt x="272" y="698" on="1"/>
        <pt x="272" y="812" on="1"/>
        <pt x="100" y="812" on="1"/>
        <pt x="100" y="822" on="1"/>
        <pt x="147" y="922" on="1"/>
        <pt x="272" y="922" on="1"/>
        <pt x="272" y="1030" on="1"/>
        <pt x="272" y="1247" on="0"/>
        <pt x="407" y="1385" on="1"/>
        <pt x="549" y="1530" on="0"/>
        <pt x="777" y="1530" on="1"/>
        <pt x="1013" y="1530" on="0"/>
        <pt x="1282" y="1240" on="0"/>
        <pt x="1282" y="1050" on="1"/>
        <pt x="1092" y="960" on="1"/>
        <pt x="1082" y="960" on="1"/>
        <pt x="1082" y="1100" on="1"/>
        <pt x="1082" y="1234" on="0"/>
        <pt x="1010" y="1317" on="1"/>
        <pt x="921" y="1420" on="0"/>
        <pt x="633" y="1420" on="0"/>
        <pt x="544" y="1317" on="1"/>
        <pt x="472" y="1234" on="0"/>
        <pt x="472" y="1100" on="1"/>
        <pt x="472" y="922" on="1"/>
        <pt x="840" y="922" on="1"/>
        <pt x="840" y="912" on="1"/>
        <pt x="793" y="812" on="1"/>
        <pt x="472" y="812" on="1"/>
        <pt x="472" y="698" on="1"/>
        <pt x="840" y="698" on="1"/>
        <pt x="840" y="688" on="1"/>
        <pt x="793" y="588" on="1"/>
        <pt x="472" y="588" on="1"/>
        <pt x="472" y="410" on="1"/>
        <pt x="472" y="276" on="0"/>
        <pt x="544" y="193" on="1"/>
        <pt x="633" y="90" on="0"/>
        <pt x="921" y="90" on="0"/>
        <pt x="1010" y="193" on="1"/>
        <pt x="1082" y="276" on="0"/>
        <pt x="1082" y="460" on="1"/>
        <pt x="1272" y="550" on="1"/>
      </contour>
    </TTGlyph>
    <TTGlyph name="F" xMin="200" yMin="-40" xMax="940" yMax="1510">
      <contour>
        <pt x="200" y="-40" on="1"/>
        <pt x="200" y="1460" on="1"/>
        <pt x="306" y="1510" on="1"/>
        <pt x="940" y="1510" on="1"/>
        <pt x="940" y="1500" on="1"/>
        <pt x="893" y="1400" on="1"/>
        <pt x="400" y="1400" on="1"/>
        <pt x="400" y="810" on="1"/>
        <pt x="940" y="810" on="1"/>
        <pt x="940" y="800" on="1"/>
        <pt x="893" y="700" on="1"/>
        <pt x="400" y="700" on="1"/>
        <pt x="400" y="50" on="1"/>
        <pt x="210" y="-40" on="1"/>
      </contour>
    </TTGlyph>
    <TTGlyph name="G" xMin="200" yMin="-20" xMax="1210" yMax="1530">
      <contour>
        <pt x="1210" y="810" on="1"/>
        <pt x="1210" y="480" on="1"/>
        <pt x="1210" y="263" on="0"/>
        <pt x="1075" y="125" on="1"/>
        <pt x="933" y="-20" on="0"/>
        <pt x="477" y="-20" on="0"/>
        <pt x="335" y="125" on="1"/>
        <pt x="200" y="263" on="0"/>
        <pt x="200" y="480" on="1"/>
        <pt x="200" y="1030" on="1"/>
        <pt x="200" y="1247" on="0"/>
        <pt x="335" y="1385" on="1"/>
        <pt x="477" y="1530" on="0"/>
        <pt x="705" y="1530" on="1"/>
        <pt x="941" y="1530" on="0"/>
        <pt x="1210" y="1240" on="0"/>
        <pt x="1210" y="1050" on="1"/>
        <pt x="1020" y="960" on="1"/>
        <pt x="1010" y="960" on="1"/>
        <pt x="1010" y="1100" on="1"/>
        <pt x="1010" y="1232" on="0"/>
        <pt x="938" y="1317" on="1"/>
        <pt x="851" y="1420" on="0"/>
        <pt x="705" y="1420" on="1"/>
        <pt x="561" y="1420" on="0"/>
        <pt x="472" y="1317" on="1"/>
        <pt x="400" y="1235" on="0"/>
        <pt x="400" y="1100" on="1"/>
        <pt x="400" y="410" on="1"/>
        <pt x="400" y="277" on="0"/>
        <pt x="472" y="193" on="1"/>
        <pt x="561" y="90" on="0"/>
        <pt x="849" y="90" on="0"/>
        <pt x="938" y="193" on="1"/>
        <pt x="1010" y="276" on="0"/>
        <pt x="1010" y="390" on="1"/>
        <pt x="1010" y="700" on="1"/>
        <pt x="679" y="700" on="1"/>
        <pt x="679" y="710" on="1"/>
        <pt x="726" y="810" on="1"/>
      </contour>
    </TTGlyph>
    <TTGlyph name="Gbreve" xMin="200" yMin="-20" xMax="1210" yMax="1947">
      <contour>
        <pt x="1210" y="810" on="1"/>
        <pt x="1210" y="480" on="1"/>
        <pt x="1210" y="263" on="0"/>
        <pt x="1075" y="125" on="1"/>
        <pt x="933" y="-20" on="0"/>
        <pt x="477" y="-20" on="0"/>
        <pt x="335" y="125" on="1"/>
        <pt x="200" y="263" on="0"/>
        <pt x="200" y="480" on="1"/>
        <pt x="200" y="1030" on="1"/>
        <pt x="200" y="1247" on="0"/>
        <pt x="335" y="1385" on="1"/>
        <pt x="477" y="1530" on="0"/>
        <pt x="705" y="1530" on="1"/>
        <pt x="941" y="1530" on="0"/>
        <pt x="1210" y="1240" on="0"/>
        <pt x="1210" y="1050" on="1"/>
        <pt x="1020" y="960" on="1"/>
        <pt x="1010" y="960" on="1"/>
        <pt x="1010" y="1100" on="1"/>
        <pt x="1010" y="1232" on="0"/>
        <pt x="938" y="1317" on="1"/>
        <pt x="851" y="1420" on="0"/>
        <pt x="705" y="1420" on="1"/>
        <pt x="561" y="1420" on="0"/>
        <pt x="472" y="1317" on="1"/>
        <pt x="400" y="1235" on="0"/>
        <pt x="400" y="1100" on="1"/>
        <pt x="400" y="410" on="1"/>
        <pt x="400" y="277" on="0"/>
        <pt x="472" y="193" on="1"/>
        <pt x="561" y="90" on="0"/>
        <pt x="849" y="90" on="0"/>
        <pt x="938" y="193" on="1"/>
        <pt x="1010" y="276" on="0"/>
        <pt x="1010" y="390" on="1"/>
        <pt x="1010" y="700" on="1"/>
        <pt x="679" y="700" on="1"/>
        <pt x="679" y="710" on="1"/>
        <pt x="726" y="810" on="1"/>
      </contour>
      <contour>
        <pt x="468" y="1788" on="1"/>
        <pt x="468" y="1798" on="1"/>
        <pt x="542" y="1947" on="1"/>
        <pt x="614" y="1813" on="0"/>
        <pt x="814" y="1813" on="0"/>
        <pt x="886" y="1947" on="1"/>
        <pt x="962" y="1798" on="1"/>
        <pt x="962" y="1788" on="1"/>
        <pt x="860" y="1638" on="0"/>
        <pt x="712" y="1638" on="1"/>
        <pt x="558" y="1638" on="0"/>
      </contour>
    </TTGlyph>
    <TTGlyph name="Gcircumflex" xMin="200" yMin="-20" xMax="1210" yMax="1966">
      <contour>
        <pt x="1210" y="810" on="1"/>
        <pt x="1210" y="480" on="1"/>
        <pt x="1210" y="263" on="0"/>
        <pt x="1075" y="125" on="1"/>
        <pt x="933" y="-20" on="0"/>
        <pt x="477" y="-20" on="0"/>
        <pt x="335" y="125" on="1"/>
        <pt x="200" y="263" on="0"/>
        <pt x="200" y="480" on="1"/>
        <pt x="200" y="1030" on="1"/>
        <pt x="200" y="1247" on="0"/>
        <pt x="335" y="1385" on="1"/>
        <pt x="477" y="1530" on="0"/>
        <pt x="705" y="1530" on="1"/>
        <pt x="941" y="1530" on="0"/>
        <pt x="1210" y="1240" on="0"/>
        <pt x="1210" y="1050" on="1"/>
        <pt x="1020" y="960" on="1"/>
        <pt x="1010" y="960" on="1"/>
        <pt x="1010" y="1100" on="1"/>
        <pt x="1010" y="1232" on="0"/>
        <pt x="938" y="1317" on="1"/>
        <pt x="851" y="1420" on="0"/>
        <pt x="705" y="1420" on="1"/>
        <pt x="561" y="1420" on="0"/>
        <pt x="472" y="1317" on="1"/>
        <pt x="400" y="1235" on="0"/>
        <pt x="400" y="1100" on="1"/>
        <pt x="400" y="410" on="1"/>
        <pt x="400" y="277" on="0"/>
        <pt x="472" y="193" on="1"/>
        <pt x="561" y="90" on="0"/>
        <pt x="849" y="90" on="0"/>
        <pt x="938" y="193" on="1"/>
        <pt x="1010" y="276" on="0"/>
        <pt x="1010" y="390" on="1"/>
        <pt x="1010" y="700" on="1"/>
        <pt x="679" y="700" on="1"/>
        <pt x="679" y="710" on="1"/>
        <pt x="726" y="810" on="1"/>
      </contour>
      <contour>
        <pt x="434" y="1621" on="1"/>
        <pt x="587" y="1882" on="1"/>
        <pt x="763" y="1966" on="1"/>
        <pt x="773" y="1966" on="1"/>
        <pt x="986" y="1621" on="1"/>
        <pt x="870" y="1566" on="1"/>
        <pt x="860" y="1566" on="1"/>
        <pt x="710" y="1774" on="1"/>
        <pt x="562" y="1566" on="1"/>
        <pt x="552" y="1566" on="1"/>
      </contour>
    </TTGlyph>
    <TTGlyph name="Gcommaaccent" xMin="200" yMin="-450" xMax="1210" yMax="1530">
      <contour>
        <pt x="1210" y="810" on="1"/>
        <pt x="1210" y="480" on="1"/>
        <pt x="1210" y="263" on="0"/>
        <pt x="1075" y="125" on="1"/>
        <pt x="933" y="-20" on="0"/>
        <pt x="477" y="-20" on="0"/>
        <pt x="335" y="125" on="1"/>
        <pt x="200" y="263" on="0"/>
        <pt x="200" y="480" on="1"/>
        <pt x="200" y="1030" on="1"/>
        <pt x="200" y="1247" on="0"/>
        <pt x="335" y="1385" on="1"/>
        <pt x="477" y="1530" on="0"/>
        <pt x="705" y="1530" on="1"/>
        <pt x="941" y="1530" on="0"/>
        <pt x="1210" y="1240" on="0"/>
        <pt x="1210" y="1050" on="1"/>
        <pt x="1020" y="960" on="1"/>
        <pt x="1010" y="960" on="1"/>
        <pt x="1010" y="1100" on="1"/>
        <pt x="1010" y="1232" on="0"/>
        <pt x="938" y="1317" on="1"/>
        <pt x="851" y="1420" on="0"/>
        <pt x="705" y="1420" on="1"/>
        <pt x="561" y="1420" on="0"/>
        <pt x="472" y="1317" on="1"/>
        <pt x="400" y="1235" on="0"/>
        <pt x="400" y="1100" on="1"/>
        <pt x="400" y="410" on="1"/>
        <pt x="400" y="277" on="0"/>
        <pt x="472" y="193" on="1"/>
        <pt x="561" y="90" on="0"/>
        <pt x="849" y="90" on="0"/>
        <pt x="938" y="193" on="1"/>
        <pt x="1010" y="276" on="0"/>
        <pt x="1010" y="390" on="1"/>
        <pt x="1010" y="700" on="1"/>
        <pt x="679" y="700" on="1"/>
        <pt x="679" y="710" on="1"/>
        <pt x="726" y="810" on="1"/>
      </contour>
      <contour>
        <pt x="596" y="-450" on="1"/>
        <pt x="586" y="-450" on="1"/>
        <pt x="410" y="-366" on="1"/>
        <pt x="631" y="-50" on="1"/>
        <pt x="641" y="-50" on="1"/>
        <pt x="758" y="-105" on="1"/>
      </contour>
    </TTGlyph>
    <TTGlyph name="Gdotaccent" xMin="200" yMin="-20" xMax="1210" yMax="1925">
      <contour>
        <pt x="1210" y="810" on="1"/>
        <pt x="1210" y="480" on="1"/>
        <pt x="1210" y="263" on="0"/>
        <pt x="1075" y="125" on="1"/>
        <pt x="933" y="-20" on="0"/>
        <pt x="477" y="-20" on="0"/>
        <pt x="335" y="125" on="1"/>
        <pt x="200" y="263" on="0"/>
        <pt x="200" y="480" on="1"/>
        <pt x="200" y="1030" on="1"/>
        <pt x="200" y="1247" on="0"/>
        <pt x="335" y="1385" on="1"/>
        <pt x="477" y="1530" on="0"/>
        <pt x="705" y="1530" on="1"/>
        <pt x="941" y="1530" on="0"/>
        <pt x="1210" y="1240" on="0"/>
        <pt x="1210" y="1050" on="1"/>
        <pt x="1020" y="960" on="1"/>
        <pt x="1010" y="960" on="1"/>
        <pt x="1010" y="1100" on="1"/>
        <pt x="1010" y="1232" on="0"/>
        <pt x="938" y="1317" on="1"/>
        <pt x="851" y="1420" on="0"/>
        <pt x="705" y="1420" on="1"/>
        <pt x="561" y="1420" on="0"/>
        <pt x="472" y="1317" on="1"/>
        <pt x="400" y="1235" on="0"/>
        <pt x="400" y="1100" on="1"/>
        <pt x="400" y="410" on="1"/>
        <pt x="400" y="277" on="0"/>
        <pt x="472" y="193" on="1"/>
        <pt x="561" y="90" on="0"/>
        <pt x="849" y="90" on="0"/>
        <pt x="938" y="193" on="1"/>
        <pt x="1010" y="276" on="0"/>
        <pt x="1010" y="390" on="1"/>
        <pt x="1010" y="700" on="1"/>
        <pt x="679" y="700" on="1"/>
        <pt x="679" y="710" on="1"/>
        <pt x="726" y="810" on="1"/>
      </contour>
      <contour>
        <pt x="585" y="1752" on="0"/>
        <pt x="585" y="1853" on="0"/>
        <pt x="655" y="1925" on="0"/>
        <pt x="755" y="1925" on="0"/>
        <pt x="825" y="1853" on="0"/>
        <pt x="825" y="1752" on="0"/>
        <pt x="755" y="1680" on="0"/>
        <pt x="655" y="1680" on="0"/>
      </contour>
    </TTGlyph>
    <TTGlyph name="H" xMin="200" yMin="-40" xMax="1190" yMax="1550">
      <contour>
        <pt x="200" y="-40" on="1"/>
        <pt x="200" y="1460" on="1"/>
        <pt x="390" y="1550" on="1"/>
        <pt x="400" y="1550" on="1"/>
        <pt x="400" y="810" on="1"/>
        <pt x="990" y="810" on="1"/>
        <pt x="990" y="1460" on="1"/>
        <pt x="1180" y="1550" on="1"/>
        <pt x="1190" y="1550" on="1"/>
        <pt x="1190" y="50" on="1"/>
        <pt x="1000" y="-40" on="1"/>
        <pt x="990" y="-40" on="1"/>
        <pt x="990" y="700" on="1"/>
        <pt x="400" y="700" on="1"/>
        <pt x="400" y="50" on="1"/>
        <pt x="210" y="-40" on="1"/>
      </contour>
    </TTGlyph>
    <TTGlyph name="Hbar" xMin="50" yMin="-40" xMax="1340" yMax="1550">
      <contour>
        <pt x="200" y="-40" on="1"/>
        <pt x="200" y="1256" on="1"/>
        <pt x="50" y="1256" on="1"/>
        <pt x="50" y="1266" on="1"/>
        <pt x="97" y="1366" on="1"/>
        <pt x="200" y="1366" on="1"/>
        <pt x="200" y="1460" on="1"/>
        <pt x="390" y="1550" on="1"/>
        <pt x="400" y="1550" on="1"/>
        <pt x="400" y="1366" on="1"/>
        <pt x="990" y="1366" on="1"/>
        <pt x="990" y="1460" on="1"/>
        <pt x="1180" y="1550" on="1"/>
        <pt x="1190" y="1550" on="1"/>
        <pt x="1190" y="1366" on="1"/>
        <pt x="1340" y="1366" on="1"/>
        <pt x="1340" y="1356" on="1"/>
        <pt x="1293" y="1256" on="1"/>
        <pt x="1190" y="1256" on="1"/>
        <pt x="1190" y="50" on="1"/>
        <pt x="1000" y="-40" on="1"/>
        <pt x="990" y="-40" on="1"/>
        <pt x="990" y="700" on="1"/>
        <pt x="400" y="700" on="1"/>
        <pt x="400" y="50" on="1"/>
        <pt x="210" y="-40" on="1"/>
      </contour>
      <contour>
        <pt x="400" y="810" on="1"/>
        <pt x="990" y="810" on="1"/>
        <pt x="990" y="1256" on="1"/>
        <pt x="400" y="1256" on="1"/>
      </contour>
    </TTGlyph>
    <TTGlyph name="Hcircumflex" xMin="200" yMin="-40" xMax="1190" yMax="1966">
      <contour>
        <pt x="200" y="-40" on="1"/>
        <pt x="200" y="1460" on="1"/>
        <pt x="390" y="1550" on="1"/>
        <pt x="400" y="1550" on="1"/>
        <pt x="400" y="810" on="1"/>
        <pt x="990" y="810" on="1"/>
        <pt x="990" y="1460" on="1"/>
        <pt x="1180" y="1550" on="1"/>
        <pt x="1190" y="1550" on="1"/>
        <pt x="1190" y="50" on="1"/>
        <pt x="1000" y="-40" on="1"/>
        <pt x="990" y="-40" on="1"/>
        <pt x="990" y="700" on="1"/>
        <pt x="400" y="700" on="1"/>
        <pt x="400" y="50" on="1"/>
        <pt x="210" y="-40" on="1"/>
      </contour>
      <contour>
        <pt x="434" y="1621" on="1"/>
        <pt x="587" y="1882" on="1"/>
        <pt x="763" y="1966" on="1"/>
        <pt x="773" y="1966" on="1"/>
        <pt x="986" y="1621" on="1"/>
        <pt x="870" y="1566" on="1"/>
        <pt x="860" y="1566" on="1"/>
        <pt x="710" y="1774" on="1"/>
        <pt x="562" y="1566" on="1"/>
        <pt x="552" y="1566" on="1"/>
      </contour>
    </TTGlyph>
    <TTGlyph name="I" xMin="200" yMin="-40" xMax="400" yMax="1550">
      <contour>
        <pt x="200" y="-40" on="1"/>
        <pt x="200" y="1460" on="1"/>
        <pt x="390" y="1550" on="1"/>
        <pt x="400" y="1550" on="1"/>
        <pt x="400" y="50" on="1"/>
        <pt x="210" y="-40" on="1"/>
      </contour>
    </TTGlyph>
    <TTGlyph name="IJ" xMin="200" yMin="-40" xMax="1573" yMax="1550">
      <contour>
        <pt x="563" y="460" on="1"/>
        <pt x="753" y="550" on="1"/>
        <pt x="763" y="550" on="1"/>
        <pt x="763" y="410" on="1"/>
        <pt x="763" y="278" on="0"/>
        <pt x="835" y="193" on="1"/>
        <pt x="924" y="90" on="0"/>
        <pt x="1212" y="90" on="0"/>
        <pt x="1301" y="193" on="1"/>
        <pt x="1373" y="276" on="0"/>
        <pt x="1373" y="410" on="1"/>
        <pt x="1373" y="1400" on="1"/>
        <pt x="800" y="1400" on="1"/>
        <pt x="800" y="1410" on="1"/>
        <pt x="847" y="1510" on="1"/>
        <pt x="1573" y="1510" on="1"/>
        <pt x="1573" y="480" on="1"/>
        <pt x="1573" y="264" on="0"/>
        <pt x="1438" y="125" on="1"/>
        <pt x="1296" y="-20" on="0"/>
        <pt x="1068" y="-20" on="1"/>
        <pt x="843" y="-20" on="0"/>
        <pt x="698" y="125" on="1"/>
        <pt x="563" y="259" on="0"/>
      </contour>
      <contour>
        <pt x="200" y="-40" on="1"/>
        <pt x="200" y="1460" on="1"/>
        <pt x="390" y="1550" on="1"/>
        <pt x="400" y="1550" on="1"/>
        <pt x="400" y="50" on="1"/>
        <pt x="210" y="-40" on="1"/>
      </contour>
    </TTGlyph>
    <TTGlyph name="Iacute" xMin="186" yMin="-40" xMax="534" yMax="1966">
      <contour>
        <pt x="348" y="1966" on="1"/>
        <pt x="358" y="1966" on="1"/>
        <pt x="534" y="1882" on="1"/>
        <pt x="313" y="1566" on="1"/>
        <pt x="303" y="1566" on="1"/>
        <pt x="186" y="1621" on="1"/>
      </contour>
      <contour>
        <pt x="200" y="-40" on="1"/>
        <pt x="200" y="1460" on="1"/>
        <pt x="390" y="1550" on="1"/>
        <pt x="400" y="1550" on="1"/>
        <pt x="400" y="50" on="1"/>
        <pt x="210" y="-40" on="1"/>
      </contour>
    </TTGlyph>
    <TTGlyph name="Ibreve" xMin="53" yMin="-40" xMax="547" yMax="1947">
      <contour>
        <pt x="200" y="-40" on="1"/>
        <pt x="200" y="1460" on="1"/>
        <pt x="390" y="1550" on="1"/>
        <pt x="400" y="1550" on="1"/>
        <pt x="400" y="50" on="1"/>
        <pt x="210" y="-40" on="1"/>
      </contour>
      <contour>
        <pt x="53" y="1788" on="1"/>
        <pt x="53" y="1798" on="1"/>
        <pt x="127" y="1947" on="1"/>
        <pt x="199" y="1813" on="0"/>
        <pt x="399" y="1813" on="0"/>
        <pt x="471" y="1947" on="1"/>
        <pt x="547" y="1798" on="1"/>
        <pt x="547" y="1788" on="1"/>
        <pt x="445" y="1638" on="0"/>
        <pt x="297" y="1638" on="1"/>
        <pt x="143" y="1638" on="0"/>
      </contour>
    </TTGlyph>
    <TTGlyph name="Icircumflex" xMin="24" yMin="-40" xMax="576" yMax="1966">
      <contour>
        <pt x="200" y="-40" on="1"/>
        <pt x="200" y="1460" on="1"/>
        <pt x="390" y="1550" on="1"/>
        <pt x="400" y="1550" on="1"/>
        <pt x="400" y="50" on="1"/>
        <pt x="210" y="-40" on="1"/>
      </contour>
      <contour>
        <pt x="24" y="1621" on="1"/>
        <pt x="176" y="1882" on="1"/>
        <pt x="352" y="1966" on="1"/>
        <pt x="362" y="1966" on="1"/>
        <pt x="576" y="1621" on="1"/>
        <pt x="459" y="1566" on="1"/>
        <pt x="449" y="1566" on="1"/>
        <pt x="299" y="1774" on="1"/>
        <pt x="151" y="1566" on="1"/>
        <pt x="141" y="1566" on="1"/>
      </contour>
    </TTGlyph>
    <TTGlyph name="Idieresis" xMin="30" yMin="-40" xMax="570" yMax="1925">
      <contour>
        <pt x="200" y="-40" on="1"/>
        <pt x="200" y="1460" on="1"/>
        <pt x="390" y="1550" on="1"/>
        <pt x="400" y="1550" on="1"/>
        <pt x="400" y="50" on="1"/>
        <pt x="210" y="-40" on="1"/>
      </contour>
      <contour>
        <pt x="330" y="1752" on="0"/>
        <pt x="330" y="1853" on="0"/>
        <pt x="400" y="1925" on="0"/>
        <pt x="500" y="1925" on="0"/>
        <pt x="570" y="1853" on="0"/>
        <pt x="570" y="1752" on="0"/>
        <pt x="500" y="1680" on="0"/>
        <pt x="400" y="1680" on="0"/>
      </contour>
      <contour>
        <pt x="30" y="1752" on="0"/>
        <pt x="30" y="1853" on="0"/>
        <pt x="100" y="1925" on="0"/>
        <pt x="200" y="1925" on="0"/>
        <pt x="270" y="1853" on="0"/>
        <pt x="270" y="1752" on="0"/>
        <pt x="200" y="1680" on="0"/>
        <pt x="100" y="1680" on="0"/>
      </contour>
    </TTGlyph>
    <TTGlyph name="Idotaccent" xMin="180" yMin="-40" xMax="420" yMax="1925">
      <contour>
        <pt x="200" y="-40" on="1"/>
        <pt x="200" y="1460" on="1"/>
        <pt x="390" y="1550" on="1"/>
        <pt x="400" y="1550" on="1"/>
        <pt x="400" y="50" on="1"/>
        <pt x="210" y="-40" on="1"/>
      </contour>
      <contour>
        <pt x="180" y="1752" on="0"/>
        <pt x="180" y="1853" on="0"/>
        <pt x="250" y="1925" on="0"/>
        <pt x="350" y="1925" on="0"/>
        <pt x="420" y="1853" on="0"/>
        <pt x="420" y="1752" on="0"/>
        <pt x="350" y="1680" on="0"/>
        <pt x="250" y="1680" on="0"/>
      </contour>
    </TTGlyph>
    <TTGlyph name="Igrave" xMin="66" yMin="-40" xMax="414" yMax="1966">
      <contour>
        <pt x="242" y="1966" on="1"/>
        <pt x="252" y="1966" on="1"/>
        <pt x="414" y="1621" on="1"/>
        <pt x="297" y="1566" on="1"/>
        <pt x="287" y="1566" on="1"/>
        <pt x="66" y="1882" on="1"/>
      </contour>
      <contour>
        <pt x="200" y="-40" on="1"/>
        <pt x="200" y="1460" on="1"/>
        <pt x="390" y="1550" on="1"/>
        <pt x="400" y="1550" on="1"/>
        <pt x="400" y="50" on="1"/>
        <pt x="210" y="-40" on="1"/>
      </contour>
    </TTGlyph>
    <TTGlyph name="Imacron" xMin="30" yMin="-40" xMax="569" yMax="1820">
      <contour>
        <pt x="200" y="-40" on="1"/>
        <pt x="200" y="1460" on="1"/>
        <pt x="390" y="1550" on="1"/>
        <pt x="400" y="1550" on="1"/>
        <pt x="400" y="50" on="1"/>
        <pt x="210" y="-40" on="1"/>
      </contour>
      <contour>
        <pt x="30" y="1638" on="1"/>
        <pt x="30" y="1648" on="1"/>
        <pt x="111" y="1820" on="1"/>
        <pt x="569" y="1820" on="1"/>
        <pt x="569" y="1810" on="1"/>
        <pt x="488" y="1638" on="1"/>
      </contour>
    </TTGlyph>
    <TTGlyph name="Iogonek" xMin="103" yMin="-450" xMax="412" yMax="1550">
      <contour>
        <pt x="200" y="10" on="1"/>
        <pt x="200" y="1460" on="1"/>
        <pt x="390" y="1550" on="1"/>
        <pt x="400" y="1550" on="1"/>
        <pt x="400" y="50" on="1"/>
        <pt x="361" y="32" on="1"/>
        <pt x="278" y="-65" on="0"/>
        <pt x="278" y="-152" on="1"/>
        <pt x="278" y="-273" on="0"/>
        <pt x="412" y="-360" on="1"/>
        <pt x="222" y="-450" on="1"/>
        <pt x="212" y="-450" on="1"/>
        <pt x="103" y="-343" on="0"/>
        <pt x="103" y="-206" on="1"/>
        <pt x="103" y="-86" on="0"/>
      </contour>
    </TTGlyph>
    <TTGlyph name="Itilde" xMin="48" yMin="-40" xMax="551" yMax="1924">
      <contour>
        <pt x="200" y="-40" on="1"/>
        <pt x="200" y="1460" on="1"/>
        <pt x="390" y="1550" on="1"/>
        <pt x="400" y="1550" on="1"/>
        <pt x="400" y="50" on="1"/>
        <pt x="210" y="-40" on="1"/>
      </contour>
      <contour>
        <pt x="48" y="1638" on="1"/>
        <pt x="48" y="1924" on="0"/>
        <pt x="189" y="1924" on="1"/>
        <pt x="253" y="1924" on="0"/>
        <pt x="326" y="1854" on="1"/>
        <pt x="377" y="1805" on="0"/>
        <pt x="401" y="1805" on="1"/>
        <pt x="435" y="1805" on="0"/>
        <pt x="435" y="1877" on="1"/>
        <pt x="545" y="1924" on="1"/>
        <pt x="551" y="1924" on="1"/>
        <pt x="551" y="1638" on="0"/>
        <pt x="410" y="1638" on="1"/>
        <pt x="346" y="1638" on="0"/>
        <pt x="273" y="1708" on="1"/>
        <pt x="222" y="1757" on="0"/>
        <pt x="198" y="1757" on="1"/>
        <pt x="164" y="1757" on="0"/>
        <pt x="164" y="1685" on="1"/>
        <pt x="54" y="1638" on="1"/>
      </contour>
    </TTGlyph>
    <TTGlyph name="J" xMin="80" yMin="-20" xMax="1090" yMax="1510">
      <contour>
        <pt x="80" y="460" on="1"/>
        <pt x="270" y="550" on="1"/>
        <pt x="280" y="550" on="1"/>
        <pt x="280" y="410" on="1"/>
        <pt x="280" y="278" on="0"/>
        <pt x="352" y="193" on="1"/>
        <pt x="441" y="90" on="0"/>
        <pt x="729" y="90" on="0"/>
        <pt x="818" y="193" on="1"/>
        <pt x="890" y="276" on="0"/>
        <pt x="890" y="410" on="1"/>
        <pt x="890" y="1400" on="1"/>
        <pt x="317" y="1400" on="1"/>
        <pt x="317" y="1410" on="1"/>
        <pt x="364" y="1510" on="1"/>
        <pt x="1090" y="1510" on="1"/>
        <pt x="1090" y="480" on="1"/>
        <pt x="1090" y="264" on="0"/>
        <pt x="955" y="125" on="1"/>
        <pt x="813" y="-20" on="0"/>
        <pt x="585" y="-20" on="1"/>
        <pt x="360" y="-20" on="0"/>
        <pt x="215" y="125" on="1"/>
        <pt x="80" y="259" on="0"/>
      </contour>
    </TTGlyph>
    <TTGlyph name="Jcircumflex" xMin="80" yMin="-20" xMax="1090" yMax="1966">
      <contour>
        <pt x="80" y="460" on="1"/>
        <pt x="270" y="550" on="1"/>
        <pt x="280" y="550" on="1"/>
        <pt x="280" y="410" on="1"/>
        <pt x="280" y="278" on="0"/>
        <pt x="352" y="193" on="1"/>
        <pt x="441" y="90" on="0"/>
        <pt x="729" y="90" on="0"/>
        <pt x="818" y="193" on="1"/>
        <pt x="890" y="276" on="0"/>
        <pt x="890" y="410" on="1"/>
        <pt x="890" y="1400" on="1"/>
        <pt x="317" y="1400" on="1"/>
        <pt x="317" y="1410" on="1"/>
        <pt x="364" y="1510" on="1"/>
        <pt x="1090" y="1510" on="1"/>
        <pt x="1090" y="480" on="1"/>
        <pt x="1090" y="264" on="0"/>
        <pt x="955" y="125" on="1"/>
        <pt x="813" y="-20" on="0"/>
        <pt x="585" y="-20" on="1"/>
        <pt x="360" y="-20" on="0"/>
        <pt x="215" y="125" on="1"/>
        <pt x="80" y="259" on="0"/>
      </contour>
      <contour>
        <pt x="468" y="1621" on="1"/>
        <pt x="621" y="1882" on="1"/>
        <pt x="797" y="1966" on="1"/>
        <pt x="807" y="1966" on="1"/>
        <pt x="1020" y="1621" on="1"/>
        <pt x="904" y="1566" on="1"/>
        <pt x="894" y="1566" on="1"/>
        <pt x="744" y="1774" on="1"/>
        <pt x="596" y="1566" on="1"/>
        <pt x="586" y="1566" on="1"/>
      </contour>
    </TTGlyph>
    <TTGlyph name="K" xMin="200" yMin="-40" xMax="1180" yMax="1550">
      <contour>
        <pt x="200" y="-40" on="1"/>
        <pt x="200" y="1460" on="1"/>
        <pt x="390" y="1550" on="1"/>
        <pt x="400" y="1550" on="1"/>
        <pt x="400" y="797" on="1"/>
        <pt x="1045" y="1550" on="1"/>
        <pt x="1055" y="1550" on="1"/>
        <pt x="1171" y="1490" on="1"/>
        <pt x="634" y="873" on="1"/>
        <pt x="907" y="873" on="0"/>
        <pt x="1045" y="739" on="1"/>
        <pt x="1180" y="608" on="0"/>
        <pt x="1180" y="384" on="1"/>
        <pt x="1180" y="50" on="1"/>
        <pt x="990" y="-40" on="1"/>
        <pt x="980" y="-40" on="1"/>
        <pt x="980" y="443" on="1"/>
        <pt x="980" y="577" on="0"/>
        <pt x="908" y="660" on="1"/>
        <pt x="819" y="763" on="0"/>
        <pt x="690" y="763" on="1"/>
        <pt x="559" y="763" on="0"/>
        <pt x="472" y="660" on="1"/>
        <pt x="400" y="575" on="0"/>
        <pt x="400" y="443" on="1"/>
        <pt x="400" y="50" on="1"/>
        <pt x="210" y="-40" on="1"/>
      </contour>
    </TTGlyph>
    <TTGlyph name="Kcommaaccent" xMin="200" yMin="-450" xMax="1180" yMax="1550">
      <contour>
        <pt x="200" y="-40" on="1"/>
        <pt x="200" y="1460" on="1"/>
        <pt x="390" y="1550" on="1"/>
        <pt x="400" y="1550" on="1"/>
        <pt x="400" y="797" on="1"/>
        <pt x="1045" y="1550" on="1"/>
        <pt x="1055" y="1550" on="1"/>
        <pt x="1171" y="1490" on="1"/>
        <pt x="634" y="873" on="1"/>
        <pt x="907" y="873" on="0"/>
        <pt x="1045" y="739" on="1"/>
        <pt x="1180" y="608" on="0"/>
        <pt x="1180" y="384" on="1"/>
        <pt x="1180" y="50" on="1"/>
        <pt x="990" y="-40" on="1"/>
        <pt x="980" y="-40" on="1"/>
        <pt x="980" y="443" on="1"/>
        <pt x="980" y="577" on="0"/>
        <pt x="908" y="660" on="1"/>
        <pt x="819" y="763" on="0"/>
        <pt x="690" y="763" on="1"/>
        <pt x="559" y="763" on="0"/>
        <pt x="472" y="660" on="1"/>
        <pt x="400" y="575" on="0"/>
        <pt x="400" y="443" on="1"/>
        <pt x="400" y="50" on="1"/>
        <pt x="210" y="-40" on="1"/>
      </contour>
      <contour>
        <pt x="596" y="-450" on="1"/>
        <pt x="586" y="-450" on="1"/>
        <pt x="410" y="-366" on="1"/>
        <pt x="631" y="-50" on="1"/>
        <pt x="641" y="-50" on="1"/>
        <pt x="758" y="-105" on="1"/>
      </contour>
    </TTGlyph>
    <TTGlyph name="L" xMin="200" yMin="0" xMax="1085" yMax="1550">
      <contour>
        <pt x="200" y="0" on="1"/>
        <pt x="200" y="1460" on="1"/>
        <pt x="390" y="1550" on="1"/>
        <pt x="400" y="1550" on="1"/>
        <pt x="400" y="110" on="1"/>
        <pt x="1085" y="110" on="1"/>
        <pt x="1085" y="100" on="1"/>
        <pt x="1038" y="0" on="1"/>
      </contour>
    </TTGlyph>
    <TTGlyph name="Lacute" xMin="186" yMin="0" xMax="1085" yMax="1966">
      <contour>
        <pt x="200" y="0" on="1"/>
        <pt x="200" y="1460" on="1"/>
        <pt x="390" y="1550" on="1"/>
        <pt x="400" y="1550" on="1"/>
        <pt x="400" y="110" on="1"/>
        <pt x="1085" y="110" on="1"/>
        <pt x="1085" y="100" on="1"/>
        <pt x="1038" y="0" on="1"/>
      </contour>
      <contour>
        <pt x="348" y="1966" on="1"/>
        <pt x="358" y="1966" on="1"/>
        <pt x="534" y="1882" on="1"/>
        <pt x="313" y="1566" on="1"/>
        <pt x="303" y="1566" on="1"/>
        <pt x="186" y="1621" on="1"/>
      </contour>
    </TTGlyph>
    <TTGlyph name="Lcaron" xMin="200" yMin="0" xMax="1085" yMax="1566">
      <contour>
        <pt x="200" y="0" on="1"/>
        <pt x="200" y="1460" on="1"/>
        <pt x="390" y="1550" on="1"/>
        <pt x="400" y="1550" on="1"/>
        <pt x="400" y="110" on="1"/>
        <pt x="1085" y="110" on="1"/>
        <pt x="1085" y="100" on="1"/>
        <pt x="1038" y="0" on="1"/>
      </contour>
      <contour>
        <pt x="594" y="1566" on="1"/>
        <pt x="604" y="1566" on="1"/>
        <pt x="780" y="1482" on="1"/>
        <pt x="559" y="1166" on="1"/>
        <pt x="549" y="1166" on="1"/>
        <pt x="432" y="1221" on="1"/>
      </contour>
    </TTGlyph>
    <TTGlyph name="Lcommaaccent" xMin="200" yMin="-450" xMax="1085" yMax="1550">
      <contour>
        <pt x="200" y="0" on="1"/>
        <pt x="200" y="1460" on="1"/>
        <pt x="390" y="1550" on="1"/>
        <pt x="400" y="1550" on="1"/>
        <pt x="400" y="110" on="1"/>
        <pt x="1085" y="110" on="1"/>
        <pt x="1085" y="100" on="1"/>
        <pt x="1038" y="0" on="1"/>
      </contour>
      <contour>
        <pt x="548" y="-450" on="1"/>
        <pt x="538" y="-450" on="1"/>
        <pt x="362" y="-366" on="1"/>
        <pt x="583" y="-50" on="1"/>
        <pt x="593" y="-50" on="1"/>
        <pt x="710" y="-105" on="1"/>
      </contour>
    </TTGlyph>
    <TTGlyph name="Ldot" xMin="200" yMin="0" xMax="1085" yMax="1550">
      <contour>
        <pt x="200" y="0" on="1"/>
        <pt x="200" y="1460" on="1"/>
        <pt x="390" y="1550" on="1"/>
        <pt x="400" y="1550" on="1"/>
        <pt x="400" y="110" on="1"/>
        <pt x="1085" y="110" on="1"/>
        <pt x="1085" y="100" on="1"/>
        <pt x="1038" y="0" on="1"/>
      </contour>
      <contour>
        <pt x="505" y="947" on="0"/>
        <pt x="505" y="1048" on="0"/>
        <pt x="575" y="1120" on="0"/>
        <pt x="675" y="1120" on="0"/>
        <pt x="745" y="1048" on="0"/>
        <pt x="745" y="947" on="0"/>
        <pt x="675" y="875" on="0"/>
        <pt x="575" y="875" on="0"/>
      </contour>
    </TTGlyph>
    <TTGlyph name="Lslash" xMin="127" yMin="0" xMax="1085" yMax="1550">
      <contour>
        <pt x="200" y="0" on="1"/>
        <pt x="200" y="484" on="1"/>
        <pt x="127" y="575" on="1"/>
        <pt x="200" y="637" on="1"/>
        <pt x="200" y="1460" on="1"/>
        <pt x="390" y="1550" on="1"/>
        <pt x="400" y="1550" on="1"/>
        <pt x="400" y="808" on="1"/>
        <pt x="790" y="1140" on="1"/>
        <pt x="800" y="1140" on="1"/>
        <pt x="873" y="1049" on="1"/>
        <pt x="400" y="652" on="1"/>
        <pt x="400" y="110" on="1"/>
        <pt x="1085" y="110" on="1"/>
        <pt x="1085" y="100" on="1"/>
        <pt x="1038" y="0" on="1"/>
      </contour>
    </TTGlyph>
    <TTGlyph name="M" xMin="200" yMin="-40" xMax="2020" yMax="1530">
      <contour>
        <pt x="200" y="-40" on="1"/>
        <pt x="200" y="1030" on="1"/>
        <pt x="200" y="1246" on="0"/>
        <pt x="335" y="1385" on="1"/>
        <pt x="477" y="1530" on="0"/>
        <pt x="705" y="1530" on="1"/>
        <pt x="911" y="1530" on="0"/>
        <pt x="1056" y="1385" on="1"/>
        <pt x="1092" y="1349" on="0"/>
        <pt x="1110" y="1315" on="1"/>
        <pt x="1133" y="1350" on="0"/>
        <pt x="1166" y="1382" on="1"/>
        <pt x="1317" y="1530" on="0"/>
        <pt x="1515" y="1530" on="1"/>
        <pt x="1739" y="1530" on="0"/>
        <pt x="1885" y="1385" on="1"/>
        <pt x="2020" y="1251" on="0"/>
        <pt x="2020" y="1030" on="1"/>
        <pt x="2020" y="50" on="1"/>
        <pt x="1830" y="-40" on="1"/>
        <pt x="1820" y="-40" on="1"/>
        <pt x="1820" y="1100" on="1"/>
        <pt x="1820" y="1234" on="0"/>
        <pt x="1748" y="1317" on="1"/>
        <pt x="1659" y="1420" on="0"/>
        <pt x="1371" y="1420" on="0"/>
        <pt x="1282" y="1317" on="1"/>
        <pt x="1210" y="1234" on="0"/>
        <pt x="1210" y="1100" on="1"/>
        <pt x="1210" y="50" on="1"/>
        <pt x="1020" y="-40" on="1"/>
        <pt x="1010" y="-40" on="1"/>
        <pt x="1010" y="1100" on="1"/>
        <pt x="1010" y="1234" on="0"/>
        <pt x="938" y="1317" on="1"/>
        <pt x="849" y="1420" on="0"/>
        <pt x="561" y="1420" on="0"/>
        <pt x="472" y="1317" on="1"/>
        <pt x="400" y="1234" on="0"/>
        <pt x="400" y="1100" on="1"/>
        <pt x="400" y="50" on="1"/>
        <pt x="210" y="-40" on="1"/>
      </contour>
    </TTGlyph>
    <TTGlyph name="N" xMin="200" yMin="-40" xMax="1210" yMax="1530">
      <contour>
        <pt x="200" y="-40" on="1"/>
        <pt x="200" y="1030" on="1"/>
        <pt x="200" y="1246" on="0"/>
        <pt x="335" y="1385" on="1"/>
        <pt x="477" y="1530" on="0"/>
        <pt x="705" y="1530" on="1"/>
        <pt x="930" y="1530" on="0"/>
        <pt x="1075" y="1385" on="1"/>
        <pt x="1210" y="1251" on="0"/>
        <pt x="1210" y="1030" on="1"/>
        <pt x="1210" y="50" on="1"/>
        <pt x="1020" y="-40" on="1"/>
        <pt x="1010" y="-40" on="1"/>
        <pt x="1010" y="1100" on="1"/>
        <pt x="1010" y="1234" on="0"/>
        <pt x="938" y="1317" on="1"/>
        <pt x="849" y="1420" on="0"/>
        <pt x="561" y="1420" on="0"/>
        <pt x="472" y="1317" on="1"/>
        <pt x="400" y="1234" on="0"/>
        <pt x="400" y="1100" on="1"/>
        <pt x="400" y="50" on="1"/>
        <pt x="210" y="-40" on="1"/>
      </contour>
    </TTGlyph>
    <TTGlyph name="Nacute" xMin="200" yMin="-40" xMax="1210" yMax="1966">
      <contour>
        <pt x="200" y="-40" on="1"/>
        <pt x="200" y="1030" on="1"/>
        <pt x="200" y="1246" on="0"/>
        <pt x="335" y="1385" on="1"/>
        <pt x="477" y="1530" on="0"/>
        <pt x="705" y="1530" on="1"/>
        <pt x="930" y="1530" on="0"/>
        <pt x="1075" y="1385" on="1"/>
        <pt x="1210" y="1251" on="0"/>
        <pt x="1210" y="1030" on="1"/>
        <pt x="1210" y="50" on="1"/>
        <pt x="1020" y="-40" on="1"/>
        <pt x="1010" y="-40" on="1"/>
        <pt x="1010" y="1100" on="1"/>
        <pt x="1010" y="1234" on="0"/>
        <pt x="938" y="1317" on="1"/>
        <pt x="849" y="1420" on="0"/>
        <pt x="561" y="1420" on="0"/>
        <pt x="472" y="1317" on="1"/>
        <pt x="400" y="1234" on="0"/>
        <pt x="400" y="1100" on="1"/>
        <pt x="400" y="50" on="1"/>
        <pt x="210" y="-40" on="1"/>
      </contour>
      <contour>
        <pt x="817" y="1966" on="1"/>
        <pt x="827" y="1966" on="1"/>
        <pt x="1003" y="1882" on="1"/>
        <pt x="782" y="1566" on="1"/>
        <pt x="772" y="1566" on="1"/>
        <pt x="655" y="1621" on="1"/>
      </contour>
    </TTGlyph>
    <TTGlyph name="Ncaron" xMin="200" yMin="-40" xMax="1210" yMax="1966">
      <contour>
        <pt x="200" y="-40" on="1"/>
        <pt x="200" y="1030" on="1"/>
        <pt x="200" y="1246" on="0"/>
        <pt x="335" y="1385" on="1"/>
        <pt x="477" y="1530" on="0"/>
        <pt x="705" y="1530" on="1"/>
        <pt x="930" y="1530" on="0"/>
        <pt x="1075" y="1385" on="1"/>
        <pt x="1210" y="1251" on="0"/>
        <pt x="1210" y="1030" on="1"/>
        <pt x="1210" y="50" on="1"/>
        <pt x="1020" y="-40" on="1"/>
        <pt x="1010" y="-40" on="1"/>
        <pt x="1010" y="1100" on="1"/>
        <pt x="1010" y="1234" on="0"/>
        <pt x="938" y="1317" on="1"/>
        <pt x="849" y="1420" on="0"/>
        <pt x="561" y="1420" on="0"/>
        <pt x="472" y="1317" on="1"/>
        <pt x="400" y="1234" on="0"/>
        <pt x="400" y="1100" on="1"/>
        <pt x="400" y="50" on="1"/>
        <pt x="210" y="-40" on="1"/>
      </contour>
      <contour>
        <pt x="647" y="1566" on="1"/>
        <pt x="434" y="1911" on="1"/>
        <pt x="550" y="1966" on="1"/>
        <pt x="560" y="1966" on="1"/>
        <pt x="710" y="1758" on="1"/>
        <pt x="858" y="1966" on="1"/>
        <pt x="868" y="1966" on="1"/>
        <pt x="986" y="1911" on="1"/>
        <pt x="833" y="1650" on="1"/>
        <pt x="657" y="1566" on="1"/>
      </contour>
    </TTGlyph>
    <TTGlyph name="Ncommaaccent" xMin="200" yMin="-450" xMax="1210" yMax="1530">
      <contour>
        <pt x="200" y="-40" on="1"/>
        <pt x="200" y="1030" on="1"/>
        <pt x="200" y="1246" on="0"/>
        <pt x="335" y="1385" on="1"/>
        <pt x="477" y="1530" on="0"/>
        <pt x="705" y="1530" on="1"/>
        <pt x="930" y="1530" on="0"/>
        <pt x="1075" y="1385" on="1"/>
        <pt x="1210" y="1251" on="0"/>
        <pt x="1210" y="1030" on="1"/>
        <pt x="1210" y="50" on="1"/>
        <pt x="1020" y="-40" on="1"/>
        <pt x="1010" y="-40" on="1"/>
        <pt x="1010" y="1100" on="1"/>
        <pt x="1010" y="1234" on="0"/>
        <pt x="938" y="1317" on="1"/>
        <pt x="849" y="1420" on="0"/>
        <pt x="561" y="1420" on="0"/>
        <pt x="472" y="1317" on="1"/>
        <pt x="400" y="1234" on="0"/>
        <pt x="400" y="1100" on="1"/>
        <pt x="400" y="50" on="1"/>
        <pt x="210" y="-40" on="1"/>
      </contour>
      <contour>
        <pt x="596" y="-450" on="1"/>
        <pt x="586" y="-450" on="1"/>
        <pt x="410" y="-366" on="1"/>
        <pt x="631" y="-50" on="1"/>
        <pt x="641" y="-50" on="1"/>
        <pt x="758" y="-105" on="1"/>
      </contour>
    </TTGlyph>
    <TTGlyph name="Ntilde" xMin="200" yMin="-40" xMax="1210" yMax="1924">
      <contour>
        <pt x="200" y="-40" on="1"/>
        <pt x="200" y="1030" on="1"/>
        <pt x="200" y="1246" on="0"/>
        <pt x="335" y="1385" on="1"/>
        <pt x="477" y="1530" on="0"/>
        <pt x="705" y="1530" on="1"/>
        <pt x="930" y="1530" on="0"/>
        <pt x="1075" y="1385" on="1"/>
        <pt x="1210" y="1251" on="0"/>
        <pt x="1210" y="1030" on="1"/>
        <pt x="1210" y="50" on="1"/>
        <pt x="1020" y="-40" on="1"/>
        <pt x="1010" y="-40" on="1"/>
        <pt x="1010" y="1100" on="1"/>
        <pt x="1010" y="1234" on="0"/>
        <pt x="938" y="1317" on="1"/>
        <pt x="849" y="1420" on="0"/>
        <pt x="561" y="1420" on="0"/>
        <pt x="472" y="1317" on="1"/>
        <pt x="400" y="1234" on="0"/>
        <pt x="400" y="1100" on="1"/>
        <pt x="400" y="50" on="1"/>
        <pt x="210" y="-40" on="1"/>
      </contour>
      <contour>
        <pt x="471" y="1638" on="1"/>
        <pt x="471" y="1924" on="0"/>
        <pt x="612" y="1924" on="1"/>
        <pt x="676" y="1924" on="0"/>
        <pt x="749" y="1854" on="1"/>
        <pt x="800" y="1805" on="0"/>
        <pt x="824" y="1805" on="1"/>
        <pt x="858" y="1805" on="0"/>
        <pt x="858" y="1877" on="1"/>
        <pt x="968" y="1924" on="1"/>
        <pt x="974" y="1924" on="1"/>
        <pt x="974" y="1638" on="0"/>
        <pt x="833" y="1638" on="1"/>
        <pt x="769" y="1638" on="0"/>
        <pt x="696" y="1708" on="1"/>
        <pt x="645" y="1757" on="0"/>
        <pt x="621" y="1757" on="1"/>
        <pt x="587" y="1757" on="0"/>
        <pt x="587" y="1685" on="1"/>
        <pt x="477" y="1638" on="1"/>
      </contour>
    </TTGlyph>
    <TTGlyph name="O" xMin="200" yMin="-20" xMax="1210" yMax="1530">
      <contour>
        <pt x="400" y="410" on="1"/>
        <pt x="400" y="276" on="0"/>
        <pt x="472" y="193" on="1"/>
        <pt x="561" y="90" on="0"/>
        <pt x="849" y="90" on="0"/>
        <pt x="938" y="193" on="1"/>
        <pt x="1010" y="276" on="0"/>
        <pt x="1010" y="410" on="1"/>
        <pt x="1010" y="1100" on="1"/>
        <pt x="1010" y="1234" on="0"/>
        <pt x="938" y="1317" on="1"/>
        <pt x="849" y="1420" on="0"/>
        <pt x="561" y="1420" on="0"/>
        <pt x="472" y="1317" on="1"/>
        <pt x="400" y="1234" on="0"/>
        <pt x="400" y="1100" on="1"/>
      </contour>
      <contour>
        <pt x="200" y="480" on="1"/>
        <pt x="200" y="1030" on="1"/>
        <pt x="200" y="1247" on="0"/>
        <pt x="335" y="1385" on="1"/>
        <pt x="477" y="1530" on="0"/>
        <pt x="933" y="1530" on="0"/>
        <pt x="1075" y="1385" on="1"/>
        <pt x="1210" y="1248" on="0"/>
        <pt x="1210" y="1030" on="1"/>
        <pt x="1210" y="480" on="1"/>
        <pt x="1210" y="263" on="0"/>
        <pt x="1075" y="125" on="1"/>
        <pt x="933" y="-20" on="0"/>
        <pt x="477" y="-20" on="0"/>
        <pt x="335" y="125" on="1"/>
        <pt x="200" y="263" on="0"/>
      </contour>
    </TTGlyph>
    <TTGlyph name="OE" xMin="200" yMin="-20" xMax="1917" yMax="1530">
      <contour>
        <pt x="400" y="410" on="1"/>
        <pt x="400" y="276" on="0"/>
        <pt x="472" y="193" on="1"/>
        <pt x="561" y="90" on="0"/>
        <pt x="849" y="90" on="0"/>
        <pt x="938" y="193" on="1"/>
        <pt x="1010" y="276" on="0"/>
        <pt x="1010" y="410" on="1"/>
        <pt x="1010" y="1100" on="1"/>
        <pt x="1010" y="1234" on="0"/>
        <pt x="938" y="1317" on="1"/>
        <pt x="849" y="1420" on="0"/>
        <pt x="561" y="1420" on="0"/>
        <pt x="472" y="1317" on="1"/>
        <pt x="400" y="1234" on="0"/>
        <pt x="400" y="1100" on="1"/>
      </contour>
      <contour>
        <pt x="200" y="480" on="1"/>
        <pt x="200" y="1030" on="1"/>
        <pt x="200" y="1247" on="0"/>
        <pt x="335" y="1385" on="1"/>
        <pt x="477" y="1530" on="0"/>
        <pt x="705" y="1530" on="1"/>
        <pt x="884" y="1530" on="0"/>
        <pt x="1010" y="1441" on="1"/>
        <pt x="1010" y="1460" on="1"/>
        <pt x="1116" y="1510" on="1"/>
        <pt x="1750" y="1510" on="1"/>
        <pt x="1750" y="1500" on="1"/>
        <pt x="1703" y="1400" on="1"/>
        <pt x="1210" y="1400" on="1"/>
        <pt x="1210" y="810" on="1"/>
        <pt x="1750" y="810" on="1"/>
        <pt x="1750" y="800" on="1"/>
        <pt x="1703" y="700" on="1"/>
        <pt x="1210" y="700" on="1"/>
        <pt x="1210" y="110" on="1"/>
        <pt x="1917" y="110" on="1"/>
        <pt x="1917" y="100" on="1"/>
        <pt x="1870" y="0" on="1"/>
        <pt x="1010" y="0" on="1"/>
        <pt x="1010" y="69" on="1"/>
        <pt x="884" y="-20" on="0"/>
        <pt x="705" y="-20" on="1"/>
        <pt x="477" y="-20" on="0"/>
        <pt x="335" y="125" on="1"/>
        <pt x="200" y="263" on="0"/>
      </contour>
    </TTGlyph>
    <TTGlyph name="Oacute" xMin="200" yMin="-20" xMax="1210" yMax="1966">
      <contour>
        <pt x="400" y="410" on="1"/>
        <pt x="400" y="276" on="0"/>
        <pt x="472" y="193" on="1"/>
        <pt x="561" y="90" on="0"/>
        <pt x="849" y="90" on="0"/>
        <pt x="938" y="193" on="1"/>
        <pt x="1010" y="276" on="0"/>
        <pt x="1010" y="410" on="1"/>
        <pt x="1010" y="1100" on="1"/>
        <pt x="1010" y="1234" on="0"/>
        <pt x="938" y="1317" on="1"/>
        <pt x="849" y="1420" on="0"/>
        <pt x="561" y="1420" on="0"/>
        <pt x="472" y="1317" on="1"/>
        <pt x="400" y="1234" on="0"/>
        <pt x="400" y="1100" on="1"/>
      </contour>
      <contour>
        <pt x="200" y="480" on="1"/>
        <pt x="200" y="1030" on="1"/>
        <pt x="200" y="1247" on="0"/>
        <pt x="335" y="1385" on="1"/>
        <pt x="477" y="1530" on="0"/>
        <pt x="933" y="1530" on="0"/>
        <pt x="1075" y="1385" on="1"/>
        <pt x="1210" y="1248" on="0"/>
        <pt x="1210" y="1030" on="1"/>
        <pt x="1210" y="480" on="1"/>
        <pt x="1210" y="263" on="0"/>
        <pt x="1075" y="125" on="1"/>
        <pt x="933" y="-20" on="0"/>
        <pt x="477" y="-20" on="0"/>
        <pt x="335" y="125" on="1"/>
        <pt x="200" y="263" on="0"/>
      </contour>
      <contour>
        <pt x="817" y="1966" on="1"/>
        <pt x="827" y="1966" on="1"/>
        <pt x="1003" y="1882" on="1"/>
        <pt x="782" y="1566" on="1"/>
        <pt x="772" y="1566" on="1"/>
        <pt x="655" y="1621" on="1"/>
      </contour>
    </TTGlyph>
    <TTGlyph name="Obreve" xMin="200" yMin="-20" xMax="1210" yMax="1947">
      <contour>
        <pt x="400" y="410" on="1"/>
        <pt x="400" y="276" on="0"/>
        <pt x="472" y="193" on="1"/>
        <pt x="561" y="90" on="0"/>
        <pt x="849" y="90" on="0"/>
        <pt x="938" y="193" on="1"/>
        <pt x="1010" y="276" on="0"/>
        <pt x="1010" y="410" on="1"/>
        <pt x="1010" y="1100" on="1"/>
        <pt x="1010" y="1234" on="0"/>
        <pt x="938" y="1317" on="1"/>
        <pt x="849" y="1420" on="0"/>
        <pt x="561" y="1420" on="0"/>
        <pt x="472" y="1317" on="1"/>
        <pt x="400" y="1234" on="0"/>
        <pt x="400" y="1100" on="1"/>
      </contour>
      <contour>
        <pt x="200" y="480" on="1"/>
        <pt x="200" y="1030" on="1"/>
        <pt x="200" y="1247" on="0"/>
        <pt x="335" y="1385" on="1"/>
        <pt x="477" y="1530" on="0"/>
        <pt x="933" y="1530" on="0"/>
        <pt x="1075" y="1385" on="1"/>
        <pt x="1210" y="1248" on="0"/>
        <pt x="1210" y="1030" on="1"/>
        <pt x="1210" y="480" on="1"/>
        <pt x="1210" y="263" on="0"/>
        <pt x="1075" y="125" on="1"/>
        <pt x="933" y="-20" on="0"/>
        <pt x="477" y="-20" on="0"/>
        <pt x="335" y="125" on="1"/>
        <pt x="200" y="263" on="0"/>
      </contour>
      <contour>
        <pt x="468" y="1788" on="1"/>
        <pt x="468" y="1798" on="1"/>
        <pt x="542" y="1947" on="1"/>
        <pt x="614" y="1813" on="0"/>
        <pt x="814" y="1813" on="0"/>
        <pt x="886" y="1947" on="1"/>
        <pt x="962" y="1798" on="1"/>
        <pt x="962" y="1788" on="1"/>
        <pt x="860" y="1638" on="0"/>
        <pt x="712" y="1638" on="1"/>
        <pt x="558" y="1638" on="0"/>
      </contour>
    </TTGlyph>
    <TTGlyph name="Ocircumflex" xMin="200" yMin="-20" xMax="1210" yMax="1966">
      <contour>
        <pt x="400" y="410" on="1"/>
        <pt x="400" y="276" on="0"/>
        <pt x="472" y="193" on="1"/>
        <pt x="561" y="90" on="0"/>
        <pt x="849" y="90" on="0"/>
        <pt x="938" y="193" on="1"/>
        <pt x="1010" y="276" on="0"/>
        <pt x="1010" y="410" on="1"/>
        <pt x="1010" y="1100" on="1"/>
        <pt x="1010" y="1234" on="0"/>
        <pt x="938" y="1317" on="1"/>
        <pt x="849" y="1420" on="0"/>
        <pt x="561" y="1420" on="0"/>
        <pt x="472" y="1317" on="1"/>
        <pt x="400" y="1234" on="0"/>
        <pt x="400" y="1100" on="1"/>
      </contour>
      <contour>
        <pt x="200" y="480" on="1"/>
        <pt x="200" y="1030" on="1"/>
        <pt x="200" y="1247" on="0"/>
        <pt x="335" y="1385" on="1"/>
        <pt x="477" y="1530" on="0"/>
        <pt x="933" y="1530" on="0"/>
        <pt x="1075" y="1385" on="1"/>
        <pt x="1210" y="1248" on="0"/>
        <pt x="1210" y="1030" on="1"/>
        <pt x="1210" y="480" on="1"/>
        <pt x="1210" y="263" on="0"/>
        <pt x="1075" y="125" on="1"/>
        <pt x="933" y="-20" on="0"/>
        <pt x="477" y="-20" on="0"/>
        <pt x="335" y="125" on="1"/>
        <pt x="200" y="263" on="0"/>
      </contour>
      <contour>
        <pt x="434" y="1621" on="1"/>
        <pt x="587" y="1882" on="1"/>
        <pt x="763" y="1966" on="1"/>
        <pt x="773" y="1966" on="1"/>
        <pt x="986" y="1621" on="1"/>
        <pt x="870" y="1566" on="1"/>
        <pt x="860" y="1566" on="1"/>
        <pt x="710" y="1774" on="1"/>
        <pt x="562" y="1566" on="1"/>
        <pt x="552" y="1566" on="1"/>
      </contour>
    </TTGlyph>
    <TTGlyph name="Odieresis" xMin="200" yMin="-20" xMax="1210" yMax="1925">
      <contour>
        <pt x="400" y="410" on="1"/>
        <pt x="400" y="276" on="0"/>
        <pt x="472" y="193" on="1"/>
        <pt x="561" y="90" on="0"/>
        <pt x="849" y="90" on="0"/>
        <pt x="938" y="193" on="1"/>
        <pt x="1010" y="276" on="0"/>
        <pt x="1010" y="410" on="1"/>
        <pt x="1010" y="1100" on="1"/>
        <pt x="1010" y="1234" on="0"/>
        <pt x="938" y="1317" on="1"/>
        <pt x="849" y="1420" on="0"/>
        <pt x="561" y="1420" on="0"/>
        <pt x="472" y="1317" on="1"/>
        <pt x="400" y="1234" on="0"/>
        <pt x="400" y="1100" on="1"/>
      </contour>
      <contour>
        <pt x="200" y="480" on="1"/>
        <pt x="200" y="1030" on="1"/>
        <pt x="200" y="1247" on="0"/>
        <pt x="335" y="1385" on="1"/>
        <pt x="477" y="1530" on="0"/>
        <pt x="933" y="1530" on="0"/>
        <pt x="1075" y="1385" on="1"/>
        <pt x="1210" y="1248" on="0"/>
        <pt x="1210" y="1030" on="1"/>
        <pt x="1210" y="480" on="1"/>
        <pt x="1210" y="263" on="0"/>
        <pt x="1075" y="125" on="1"/>
        <pt x="933" y="-20" on="0"/>
        <pt x="477" y="-20" on="0"/>
        <pt x="335" y="125" on="1"/>
        <pt x="200" y="263" on="0"/>
      </contour>
      <contour>
        <pt x="742" y="1752" on="0"/>
        <pt x="742" y="1853" on="0"/>
        <pt x="812" y="1925" on="0"/>
        <pt x="912" y="1925" on="0"/>
        <pt x="982" y="1853" on="0"/>
        <pt x="982" y="1752" on="0"/>
        <pt x="912" y="1680" on="0"/>
        <pt x="812" y="1680" on="0"/>
      </contour>
      <contour>
        <pt x="442" y="1752" on="0"/>
        <pt x="442" y="1853" on="0"/>
        <pt x="512" y="1925" on="0"/>
        <pt x="612" y="1925" on="0"/>
        <pt x="682" y="1853" on="0"/>
        <pt x="682" y="1752" on="0"/>
        <pt x="612" y="1680" on="0"/>
        <pt x="512" y="1680" on="0"/>
      </contour>
    </TTGlyph>
    <TTGlyph name="Ograve" xMin="200" yMin="-20" xMax="1210" yMax="1966">
      <contour>
        <pt x="400" y="410" on="1"/>
        <pt x="400" y="276" on="0"/>
        <pt x="472" y="193" on="1"/>
        <pt x="561" y="90" on="0"/>
        <pt x="849" y="90" on="0"/>
        <pt x="938" y="193" on="1"/>
        <pt x="1010" y="276" on="0"/>
        <pt x="1010" y="410" on="1"/>
        <pt x="1010" y="1100" on="1"/>
        <pt x="1010" y="1234" on="0"/>
        <pt x="938" y="1317" on="1"/>
        <pt x="849" y="1420" on="0"/>
        <pt x="561" y="1420" on="0"/>
        <pt x="472" y="1317" on="1"/>
        <pt x="400" y="1234" on="0"/>
        <pt x="400" y="1100" on="1"/>
      </contour>
      <contour>
        <pt x="200" y="480" on="1"/>
        <pt x="200" y="1030" on="1"/>
        <pt x="200" y="1247" on="0"/>
        <pt x="335" y="1385" on="1"/>
        <pt x="477" y="1530" on="0"/>
        <pt x="933" y="1530" on="0"/>
        <pt x="1075" y="1385" on="1"/>
        <pt x="1210" y="1248" on="0"/>
        <pt x="1210" y="1030" on="1"/>
        <pt x="1210" y="480" on="1"/>
        <pt x="1210" y="263" on="0"/>
        <pt x="1075" y="125" on="1"/>
        <pt x="933" y="-20" on="0"/>
        <pt x="477" y="-20" on="0"/>
        <pt x="335" y="125" on="1"/>
        <pt x="200" y="263" on="0"/>
      </contour>
      <contour>
        <pt x="596" y="1966" on="1"/>
        <pt x="606" y="1966" on="1"/>
        <pt x="768" y="1621" on="1"/>
        <pt x="651" y="1566" on="1"/>
        <pt x="641" y="1566" on="1"/>
        <pt x="420" y="1882" on="1"/>
      </contour>
    </TTGlyph>
    <TTGlyph name="Ohungarumlaut" xMin="200" yMin="-20" xMax="1210" yMax="1966">
      <contour>
        <pt x="400" y="410" on="1"/>
        <pt x="400" y="276" on="0"/>
        <pt x="472" y="193" on="1"/>
        <pt x="561" y="90" on="0"/>
        <pt x="849" y="90" on="0"/>
        <pt x="938" y="193" on="1"/>
        <pt x="1010" y="276" on="0"/>
        <pt x="1010" y="410" on="1"/>
        <pt x="1010" y="1100" on="1"/>
        <pt x="1010" y="1234" on="0"/>
        <pt x="938" y="1317" on="1"/>
        <pt x="849" y="1420" on="0"/>
        <pt x="561" y="1420" on="0"/>
        <pt x="472" y="1317" on="1"/>
        <pt x="400" y="1234" on="0"/>
        <pt x="400" y="1100" on="1"/>
      </contour>
      <contour>
        <pt x="200" y="480" on="1"/>
        <pt x="200" y="1030" on="1"/>
        <pt x="200" y="1247" on="0"/>
        <pt x="335" y="1385" on="1"/>
        <pt x="477" y="1530" on="0"/>
        <pt x="933" y="1530" on="0"/>
        <pt x="1075" y="1385" on="1"/>
        <pt x="1210" y="1248" on="0"/>
        <pt x="1210" y="1030" on="1"/>
        <pt x="1210" y="480" on="1"/>
        <pt x="1210" y="263" on="0"/>
        <pt x="1075" y="125" on="1"/>
        <pt x="933" y="-20" on="0"/>
        <pt x="477" y="-20" on="0"/>
        <pt x="335" y="125" on="1"/>
        <pt x="200" y="263" on="0"/>
      </contour>
      <contour>
        <pt x="933" y="1966" on="1"/>
        <pt x="943" y="1966" on="1"/>
        <pt x="1119" y="1882" on="1"/>
        <pt x="898" y="1566" on="1"/>
        <pt x="888" y="1566" on="1"/>
        <pt x="771" y="1621" on="1"/>
      </contour>
      <contour>
        <pt x="656" y="1966" on="1"/>
        <pt x="666" y="1966" on="1"/>
        <pt x="842" y="1882" on="1"/>
        <pt x="621" y="1566" on="1"/>
        <pt x="611" y="1566" on="1"/>
        <pt x="494" y="1621" on="1"/>
      </contour>
    </TTGlyph>
    <TTGlyph name="Omacron" xMin="200" yMin="-20" xMax="1210" yMax="1820">
      <contour>
        <pt x="400" y="410" on="1"/>
        <pt x="400" y="276" on="0"/>
        <pt x="472" y="193" on="1"/>
        <pt x="561" y="90" on="0"/>
        <pt x="849" y="90" on="0"/>
        <pt x="938" y="193" on="1"/>
        <pt x="1010" y="276" on="0"/>
        <pt x="1010" y="410" on="1"/>
        <pt x="1010" y="1100" on="1"/>
        <pt x="1010" y="1234" on="0"/>
        <pt x="938" y="1317" on="1"/>
        <pt x="849" y="1420" on="0"/>
        <pt x="561" y="1420" on="0"/>
        <pt x="472" y="1317" on="1"/>
        <pt x="400" y="1234" on="0"/>
        <pt x="400" y="1100" on="1"/>
      </contour>
      <contour>
        <pt x="200" y="480" on="1"/>
        <pt x="200" y="1030" on="1"/>
        <pt x="200" y="1247" on="0"/>
        <pt x="335" y="1385" on="1"/>
        <pt x="477" y="1530" on="0"/>
        <pt x="933" y="1530" on="0"/>
        <pt x="1075" y="1385" on="1"/>
        <pt x="1210" y="1248" on="0"/>
        <pt x="1210" y="1030" on="1"/>
        <pt x="1210" y="480" on="1"/>
        <pt x="1210" y="263" on="0"/>
        <pt x="1075" y="125" on="1"/>
        <pt x="933" y="-20" on="0"/>
        <pt x="477" y="-20" on="0"/>
        <pt x="335" y="125" on="1"/>
        <pt x="200" y="263" on="0"/>
      </contour>
      <contour>
        <pt x="467" y="1638" on="1"/>
        <pt x="467" y="1648" on="1"/>
        <pt x="548" y="1820" on="1"/>
        <pt x="1006" y="1820" on="1"/>
        <pt x="1006" y="1810" on="1"/>
        <pt x="925" y="1638" on="1"/>
      </contour>
    </TTGlyph>
    <TTGlyph name="Omega" xMin="150" yMin="0" xMax="1260" yMax="1530">
      <contour>
        <pt x="150" y="0" on="1"/>
        <pt x="150" y="10" on="1"/>
        <pt x="197" y="110" on="1"/>
        <pt x="446" y="110" on="1"/>
        <pt x="446" y="248" on="1"/>
        <pt x="384" y="275" on="0"/>
        <pt x="335" y="320" on="1"/>
        <pt x="200" y="448" on="0"/>
        <pt x="200" y="675" on="1"/>
        <pt x="200" y="1030" on="1"/>
        <pt x="200" y="1248" on="0"/>
        <pt x="335" y="1385" on="1"/>
        <pt x="477" y="1530" on="0"/>
        <pt x="705" y="1530" on="1"/>
        <pt x="928" y="1530" on="0"/>
        <pt x="1075" y="1385" on="1"/>
        <pt x="1210" y="1251" on="0"/>
        <pt x="1210" y="1030" on="1"/>
        <pt x="1210" y="675" on="1"/>
        <pt x="1210" y="452" on="0"/>
        <pt x="1075" y="320" on="1"/>
        <pt x="1032" y="278" on="0"/>
        <pt x="964" y="247" on="1"/>
        <pt x="964" y="110" on="1"/>
        <pt x="1260" y="110" on="1"/>
        <pt x="1260" y="100" on="1"/>
        <pt x="1213" y="0" on="1"/>
        <pt x="802" y="0" on="1"/>
        <pt x="802" y="298" on="1"/>
        <pt x="881" y="322" on="0"/>
        <pt x="938" y="388" on="1"/>
        <pt x="1010" y="471" on="0"/>
        <pt x="1010" y="605" on="1"/>
        <pt x="1010" y="1100" on="1"/>
        <pt x="1010" y="1234" on="0"/>
        <pt x="938" y="1317" on="1"/>
        <pt x="849" y="1420" on="0"/>
        <pt x="561" y="1420" on="0"/>
        <pt x="472" y="1317" on="1"/>
        <pt x="400" y="1234" on="0"/>
        <pt x="400" y="1100" on="1"/>
        <pt x="400" y="605" on="1"/>
        <pt x="400" y="468" on="0"/>
        <pt x="472" y="388" on="1"/>
        <pt x="534" y="319" on="0"/>
        <pt x="608" y="297" on="1"/>
        <pt x="608" y="0" on="1"/>
      </contour>
    </TTGlyph>
    <TTGlyph name="Oslash" xMin="200" yMin="-40" xMax="1210" yMax="1550">
      <contour>
        <pt x="394" y="-40" on="1"/>
        <pt x="290" y="10" on="1"/>
        <pt x="341" y="119" on="1"/>
        <pt x="200" y="263" on="0"/>
        <pt x="200" y="480" on="1"/>
        <pt x="200" y="1030" on="1"/>
        <pt x="200" y="1247" on="0"/>
        <pt x="335" y="1385" on="1"/>
        <pt x="477" y="1530" on="0"/>
        <pt x="705" y="1530" on="1"/>
        <pt x="855" y="1530" on="0"/>
        <pt x="968" y="1467" on="1"/>
        <pt x="1006" y="1550" on="1"/>
        <pt x="1016" y="1550" on="1"/>
        <pt x="1120" y="1499" on="1"/>
        <pt x="1070" y="1390" on="1"/>
        <pt x="1210" y="1253" on="0"/>
        <pt x="1210" y="1030" on="1"/>
        <pt x="1210" y="480" on="1"/>
        <pt x="1210" y="263" on="0"/>
        <pt x="1075" y="125" on="1"/>
        <pt x="933" y="-20" on="0"/>
        <pt x="705" y="-20" on="1"/>
        <pt x="555" y="-20" on="0"/>
        <pt x="442" y="43" on="1"/>
        <pt x="404" y="-40" on="1"/>
      </contour>
      <contour>
        <pt x="911" y="1345" on="1"/>
        <pt x="828" y="1420" on="0"/>
        <pt x="705" y="1420" on="1"/>
        <pt x="561" y="1420" on="0"/>
        <pt x="472" y="1317" on="1"/>
        <pt x="400" y="1234" on="0"/>
        <pt x="400" y="1100" on="1"/>
        <pt x="400" y="410" on="1"/>
        <pt x="400" y="342" on="0"/>
        <pt x="419" y="287" on="1"/>
      </contour>
      <contour>
        <pt x="991" y="1223" on="1"/>
        <pt x="499" y="165" on="1"/>
        <pt x="582" y="90" on="0"/>
        <pt x="705" y="90" on="1"/>
        <pt x="849" y="90" on="0"/>
        <pt x="938" y="193" on="1"/>
        <pt x="1010" y="276" on="0"/>
        <pt x="1010" y="410" on="1"/>
        <pt x="1010" y="1100" on="1"/>
        <pt x="1010" y="1168" on="0"/>
      </contour>
    </TTGlyph>
    <TTGlyph name="Oslashacute" xMin="200" yMin="-40" xMax="1210" yMax="1966">
      <contour>
        <pt x="394" y="-40" on="1"/>
        <pt x="290" y="10" on="1"/>
        <pt x="341" y="119" on="1"/>
        <pt x="200" y="263" on="0"/>
        <pt x="200" y="480" on="1"/>
        <pt x="200" y="1030" on="1"/>
        <pt x="200" y="1247" on="0"/>
        <pt x="335" y="1385" on="1"/>
        <pt x="477" y="1530" on="0"/>
        <pt x="705" y="1530" on="1"/>
        <pt x="855" y="1530" on="0"/>
        <pt x="968" y="1467" on="1"/>
        <pt x="1006" y="1550" on="1"/>
        <pt x="1016" y="1550" on="1"/>
        <pt x="1120" y="1499" on="1"/>
        <pt x="1070" y="1390" on="1"/>
        <pt x="1210" y="1253" on="0"/>
        <pt x="1210" y="1030" on="1"/>
        <pt x="1210" y="480" on="1"/>
        <pt x="1210" y="263" on="0"/>
        <pt x="1075" y="125" on="1"/>
        <pt x="933" y="-20" on="0"/>
        <pt x="705" y="-20" on="1"/>
        <pt x="555" y="-20" on="0"/>
        <pt x="442" y="43" on="1"/>
        <pt x="404" y="-40" on="1"/>
      </contour>
      <contour>
        <pt x="911" y="1345" on="1"/>
        <pt x="828" y="1420" on="0"/>
        <pt x="705" y="1420" on="1"/>
        <pt x="561" y="1420" on="0"/>
        <pt x="472" y="1317" on="1"/>
        <pt x="400" y="1234" on="0"/>
        <pt x="400" y="1100" on="1"/>
        <pt x="400" y="410" on="1"/>
        <pt x="400" y="342" on="0"/>
        <pt x="419" y="287" on="1"/>
      </contour>
      <contour>
        <pt x="991" y="1223" on="1"/>
        <pt x="499" y="165" on="1"/>
        <pt x="582" y="90" on="0"/>
        <pt x="705" y="90" on="1"/>
        <pt x="849" y="90" on="0"/>
        <pt x="938" y="193" on="1"/>
        <pt x="1010" y="276" on="0"/>
        <pt x="1010" y="410" on="1"/>
        <pt x="1010" y="1100" on="1"/>
        <pt x="1010" y="1168" on="0"/>
      </contour>
      <contour>
        <pt x="817" y="1966" on="1"/>
        <pt x="827" y="1966" on="1"/>
        <pt x="1003" y="1882" on="1"/>
        <pt x="782" y="1566" on="1"/>
        <pt x="772" y="1566" on="1"/>
        <pt x="655" y="1621" on="1"/>
      </contour>
    </TTGlyph>
    <TTGlyph name="Otilde" xMin="200" yMin="-20" xMax="1210" yMax="1924">
      <contour>
        <pt x="400" y="410" on="1"/>
        <pt x="400" y="276" on="0"/>
        <pt x="472" y="193" on="1"/>
        <pt x="561" y="90" on="0"/>
        <pt x="849" y="90" on="0"/>
        <pt x="938" y="193" on="1"/>
        <pt x="1010" y="276" on="0"/>
        <pt x="1010" y="410" on="1"/>
        <pt x="1010" y="1100" on="1"/>
        <pt x="1010" y="1234" on="0"/>
        <pt x="938" y="1317" on="1"/>
        <pt x="849" y="1420" on="0"/>
        <pt x="561" y="1420" on="0"/>
        <pt x="472" y="1317" on="1"/>
        <pt x="400" y="1234" on="0"/>
        <pt x="400" y="1100" on="1"/>
      </contour>
      <contour>
        <pt x="200" y="480" on="1"/>
        <pt x="200" y="1030" on="1"/>
        <pt x="200" y="1247" on="0"/>
        <pt x="335" y="1385" on="1"/>
        <pt x="477" y="1530" on="0"/>
        <pt x="933" y="1530" on="0"/>
        <pt x="1075" y="1385" on="1"/>
        <pt x="1210" y="1248" on="0"/>
        <pt x="1210" y="1030" on="1"/>
        <pt x="1210" y="480" on="1"/>
        <pt x="1210" y="263" on="0"/>
        <pt x="1075" y="125" on="1"/>
        <pt x="933" y="-20" on="0"/>
        <pt x="477" y="-20" on="0"/>
        <pt x="335" y="125" on="1"/>
        <pt x="200" y="263" on="0"/>
      </contour>
      <contour>
        <pt x="471" y="1638" on="1"/>
        <pt x="471" y="1924" on="0"/>
        <pt x="612" y="1924" on="1"/>
        <pt x="676" y="1924" on="0"/>
        <pt x="749" y="1854" on="1"/>
        <pt x="800" y="1805" on="0"/>
        <pt x="824" y="1805" on="1"/>
        <pt x="858" y="1805" on="0"/>
        <pt x="858" y="1877" on="1"/>
        <pt x="968" y="1924" on="1"/>
        <pt x="974" y="1924" on="1"/>
        <pt x="974" y="1638" on="0"/>
        <pt x="833" y="1638" on="1"/>
        <pt x="769" y="1638" on="0"/>
        <pt x="696" y="1708" on="1"/>
        <pt x="645" y="1757" on="0"/>
        <pt x="621" y="1757" on="1"/>
        <pt x="587" y="1757" on="0"/>
        <pt x="587" y="1685" on="1"/>
        <pt x="477" y="1638" on="1"/>
      </contour>
    </TTGlyph>
    <TTGlyph name="P" xMin="200" yMin="-40" xMax="1190" yMax="1510">
      <contour>
        <pt x="400" y="620" on="1"/>
        <pt x="685" y="620" on="1"/>
        <pt x="816" y="620" on="0"/>
        <pt x="918" y="723" on="1"/>
        <pt x="990" y="796" on="0"/>
        <pt x="990" y="1010" on="1"/>
        <pt x="990" y="1214" on="0"/>
        <pt x="918" y="1297" on="1"/>
        <pt x="829" y="1400" on="0"/>
        <pt x="685" y="1400" on="1"/>
        <pt x="400" y="1400" on="1"/>
      </contour>
      <contour>
        <pt x="200" y="-40" on="1"/>
        <pt x="200" y="1460" on="1"/>
        <pt x="306" y="1510" on="1"/>
        <pt x="685" y="1510" on="1"/>
        <pt x="913" y="1510" on="0"/>
        <pt x="1055" y="1365" on="1"/>
        <pt x="1190" y="1227" on="0"/>
        <pt x="1190" y="1010" on="1"/>
        <pt x="1190" y="792" on="0"/>
        <pt x="1055" y="655" on="1"/>
        <pt x="912" y="510" on="0"/>
        <pt x="685" y="510" on="1"/>
        <pt x="400" y="510" on="1"/>
        <pt x="400" y="50" on="1"/>
        <pt x="210" y="-40" on="1"/>
      </contour>
    </TTGlyph>
    <TTGlyph name="Pi" xMin="200" yMin="-40" xMax="1190" yMax="1510">
      <contour>
        <pt x="210" y="-40" on="1"/>
        <pt x="200" y="-40" on="1"/>
        <pt x="200" y="1460" on="1"/>
        <pt x="306" y="1510" on="1"/>
        <pt x="1190" y="1510" on="1"/>
        <pt x="1190" y="50" on="1"/>
        <pt x="1000" y="-40" on="1"/>
        <pt x="990" y="-40" on="1"/>
        <pt x="990" y="1400" on="1"/>
        <pt x="400" y="1400" on="1"/>
        <pt x="400" y="50" on="1"/>
      </contour>
    </TTGlyph>
    <TTGlyph name="Q" xMin="200" yMin="-40" xMax="1210" yMax="1530">
      <contour>
        <pt x="1163" y="43" on="1"/>
        <pt x="987" y="-40" on="1"/>
        <pt x="977" y="-40" on="1"/>
        <pt x="932" y="25" on="1"/>
        <pt x="832" y="-20" on="0"/>
        <pt x="705" y="-20" on="1"/>
        <pt x="477" y="-20" on="0"/>
        <pt x="335" y="125" on="1"/>
        <pt x="200" y="263" on="0"/>
        <pt x="200" y="480" on="1"/>
        <pt x="200" y="1030" on="1"/>
        <pt x="200" y="1247" on="0"/>
        <pt x="335" y="1385" on="1"/>
        <pt x="477" y="1530" on="0"/>
        <pt x="933" y="1530" on="0"/>
        <pt x="1075" y="1385" on="1"/>
        <pt x="1210" y="1248" on="0"/>
        <pt x="1210" y="1030" on="1"/>
        <pt x="1210" y="480" on="1"/>
        <pt x="1210" y="278" on="0"/>
        <pt x="1092" y="144" on="1"/>
      </contour>
      <contour>
        <pt x="400" y="410" on="1"/>
        <pt x="400" y="276" on="0"/>
        <pt x="472" y="193" on="1"/>
        <pt x="561" y="90" on="0"/>
        <pt x="705" y="90" on="1"/>
        <pt x="792" y="90" on="0"/>
        <pt x="860" y="128" on="1"/>
        <pt x="631" y="455" on="1"/>
        <pt x="807" y="538" on="1"/>
        <pt x="817" y="538" on="1"/>
        <pt x="992" y="288" on="1"/>
        <pt x="1010" y="343" on="0"/>
        <pt x="1010" y="410" on="1"/>
        <pt x="1010" y="1100" on="1"/>
        <pt x="1010" y="1234" on="0"/>
        <pt x="938" y="1317" on="1"/>
        <pt x="849" y="1420" on="0"/>
        <pt x="561" y="1420" on="0"/>
        <pt x="472" y="1317" on="1"/>
        <pt x="400" y="1234" on="0"/>
        <pt x="400" y="1100" on="1"/>
      </contour>
    </TTGlyph>
    <TTGlyph name="R" xMin="200" yMin="-40" xMax="1214" yMax="1510">
      <contour>
        <pt x="200" y="-40" on="1"/>
        <pt x="200" y="1460" on="1"/>
        <pt x="306" y="1510" on="1"/>
        <pt x="685" y="1510" on="1"/>
        <pt x="913" y="1510" on="0"/>
        <pt x="1055" y="1365" on="1"/>
        <pt x="1190" y="1227" on="0"/>
        <pt x="1190" y="1010" on="1"/>
        <pt x="1190" y="792" on="0"/>
        <pt x="1055" y="655" on="1"/>
        <pt x="975" y="574" on="0"/>
        <pt x="868" y="538" on="1"/>
        <pt x="1214" y="43" on="1"/>
        <pt x="1038" y="-40" on="1"/>
        <pt x="1028" y="-40" on="1"/>
        <pt x="643" y="510" on="1"/>
        <pt x="400" y="510" on="1"/>
        <pt x="400" y="50" on="1"/>
        <pt x="210" y="-40" on="1"/>
      </contour>
      <contour>
        <pt x="400" y="620" on="1"/>
        <pt x="685" y="620" on="1"/>
        <pt x="816" y="620" on="0"/>
        <pt x="918" y="723" on="1"/>
        <pt x="990" y="796" on="0"/>
        <pt x="990" y="1010" on="1"/>
        <pt x="990" y="1214" on="0"/>
        <pt x="918" y="1297" on="1"/>
        <pt x="829" y="1400" on="0"/>
        <pt x="685" y="1400" on="1"/>
        <pt x="400" y="1400" on="1"/>
      </contour>
    </TTGlyph>
    <TTGlyph name="Racute" xMin="200" yMin="-40" xMax="1214" yMax="1966">
      <contour>
        <pt x="200" y="-40" on="1"/>
        <pt x="200" y="1460" on="1"/>
        <pt x="306" y="1510" on="1"/>
        <pt x="685" y="1510" on="1"/>
        <pt x="913" y="1510" on="0"/>
        <pt x="1055" y="1365" on="1"/>
        <pt x="1190" y="1227" on="0"/>
        <pt x="1190" y="1010" on="1"/>
        <pt x="1190" y="792" on="0"/>
        <pt x="1055" y="655" on="1"/>
        <pt x="975" y="574" on="0"/>
        <pt x="868" y="538" on="1"/>
        <pt x="1214" y="43" on="1"/>
        <pt x="1038" y="-40" on="1"/>
        <pt x="1028" y="-40" on="1"/>
        <pt x="643" y="510" on="1"/>
        <pt x="400" y="510" on="1"/>
        <pt x="400" y="50" on="1"/>
        <pt x="210" y="-40" on="1"/>
      </contour>
      <contour>
        <pt x="400" y="620" on="1"/>
        <pt x="685" y="620" on="1"/>
        <pt x="816" y="620" on="0"/>
        <pt x="918" y="723" on="1"/>
        <pt x="990" y="796" on="0"/>
        <pt x="990" y="1010" on="1"/>
        <pt x="990" y="1214" on="0"/>
        <pt x="918" y="1297" on="1"/>
        <pt x="829" y="1400" on="0"/>
        <pt x="685" y="1400" on="1"/>
        <pt x="400" y="1400" on="1"/>
      </contour>
      <contour>
        <pt x="700" y="1966" on="1"/>
        <pt x="710" y="1966" on="1"/>
        <pt x="886" y="1882" on="1"/>
        <pt x="665" y="1566" on="1"/>
        <pt x="655" y="1566" on="1"/>
        <pt x="538" y="1621" on="1"/>
      </contour>
    </TTGlyph>
    <TTGlyph name="Rcaron" xMin="200" yMin="-40" xMax="1214" yMax="1966">
      <contour>
        <pt x="200" y="-40" on="1"/>
        <pt x="200" y="1460" on="1"/>
        <pt x="306" y="1510" on="1"/>
        <pt x="685" y="1510" on="1"/>
        <pt x="913" y="1510" on="0"/>
        <pt x="1055" y="1365" on="1"/>
        <pt x="1190" y="1227" on="0"/>
        <pt x="1190" y="1010" on="1"/>
        <pt x="1190" y="792" on="0"/>
        <pt x="1055" y="655" on="1"/>
        <pt x="975" y="574" on="0"/>
        <pt x="868" y="538" on="1"/>
        <pt x="1214" y="43" on="1"/>
        <pt x="1038" y="-40" on="1"/>
        <pt x="1028" y="-40" on="1"/>
        <pt x="643" y="510" on="1"/>
        <pt x="400" y="510" on="1"/>
        <pt x="400" y="50" on="1"/>
        <pt x="210" y="-40" on="1"/>
      </contour>
      <contour>
        <pt x="400" y="620" on="1"/>
        <pt x="685" y="620" on="1"/>
        <pt x="816" y="620" on="0"/>
        <pt x="918" y="723" on="1"/>
        <pt x="990" y="796" on="0"/>
        <pt x="990" y="1010" on="1"/>
        <pt x="990" y="1214" on="0"/>
        <pt x="918" y="1297" on="1"/>
        <pt x="829" y="1400" on="0"/>
        <pt x="685" y="1400" on="1"/>
        <pt x="400" y="1400" on="1"/>
      </contour>
      <contour>
        <pt x="587" y="1566" on="1"/>
        <pt x="374" y="1911" on="1"/>
        <pt x="490" y="1966" on="1"/>
        <pt x="500" y="1966" on="1"/>
        <pt x="650" y="1758" on="1"/>
        <pt x="798" y="1966" on="1"/>
        <pt x="808" y="1966" on="1"/>
        <pt x="926" y="1911" on="1"/>
        <pt x="773" y="1650" on="1"/>
        <pt x="597" y="1566" on="1"/>
      </contour>
    </TTGlyph>
    <TTGlyph name="Rcommaaccent" xMin="200" yMin="-450" xMax="1214" yMax="1510">
      <contour>
        <pt x="200" y="-40" on="1"/>
        <pt x="200" y="1460" on="1"/>
        <pt x="306" y="1510" on="1"/>
        <pt x="685" y="1510" on="1"/>
        <pt x="913" y="1510" on="0"/>
        <pt x="1055" y="1365" on="1"/>
        <pt x="1190" y="1227" on="0"/>
        <pt x="1190" y="1010" on="1"/>
        <pt x="1190" y="792" on="0"/>
        <pt x="1055" y="655" on="1"/>
        <pt x="975" y="574" on="0"/>
        <pt x="868" y="538" on="1"/>
        <pt x="1214" y="43" on="1"/>
        <pt x="1038" y="-40" on="1"/>
        <pt x="1028" y="-40" on="1"/>
        <pt x="643" y="510" on="1"/>
        <pt x="400" y="510" on="1"/>
        <pt x="400" y="50" on="1"/>
        <pt x="210" y="-40" on="1"/>
      </contour>
      <contour>
        <pt x="400" y="620" on="1"/>
        <pt x="685" y="620" on="1"/>
        <pt x="816" y="620" on="0"/>
        <pt x="918" y="723" on="1"/>
        <pt x="990" y="796" on="0"/>
        <pt x="990" y="1010" on="1"/>
        <pt x="990" y="1214" on="0"/>
        <pt x="918" y="1297" on="1"/>
        <pt x="829" y="1400" on="0"/>
        <pt x="685" y="1400" on="1"/>
        <pt x="400" y="1400" on="1"/>
      </contour>
      <contour>
        <pt x="596" y="-450" on="1"/>
        <pt x="586" y="-450" on="1"/>
        <pt x="410" y="-366" on="1"/>
        <pt x="631" y="-50" on="1"/>
        <pt x="641" y="-50" on="1"/>
        <pt x="758" y="-105" on="1"/>
      </contour>
    </TTGlyph>
    <TTGlyph name="S" xMin="160" yMin="-20" xMax="1169" yMax="1530">
      <contour>
        <pt x="160" y="460" on="1"/>
        <pt x="350" y="550" on="1"/>
        <pt x="360" y="550" on="1"/>
        <pt x="360" y="398" on="1"/>
        <pt x="360" y="276" on="0"/>
        <pt x="432" y="193" on="1"/>
        <pt x="521" y="90" on="0"/>
        <pt x="665" y="90" on="1"/>
        <pt x="808" y="90" on="0"/>
        <pt x="898" y="193" on="1"/>
        <pt x="969" y="274" on="0"/>
        <pt x="969" y="470" on="1"/>
        <pt x="969" y="624" on="0"/>
        <pt x="911" y="692" on="1"/>
        <pt x="831" y="786" on="0"/>
        <pt x="665" y="786" on="1"/>
        <pt x="471" y="786" on="0"/>
        <pt x="350" y="894" on="1"/>
        <pt x="250" y="984" on="0"/>
        <pt x="250" y="1148" on="1"/>
        <pt x="250" y="1333" on="0"/>
        <pt x="374" y="1434" on="1"/>
        <pt x="492" y="1530" on="0"/>
        <pt x="838" y="1530" on="0"/>
        <pt x="956" y="1434" on="1"/>
        <pt x="1080" y="1333" on="0"/>
        <pt x="1080" y="1157" on="1"/>
        <pt x="890" y="1067" on="1"/>
        <pt x="880" y="1067" on="1"/>
        <pt x="880" y="1195" on="1"/>
        <pt x="880" y="1309" on="0"/>
        <pt x="815" y="1365" on="1"/>
        <pt x="752" y="1420" on="0"/>
        <pt x="665" y="1420" on="1"/>
        <pt x="568" y="1420" on="0"/>
        <pt x="450" y="1298" on="0"/>
        <pt x="450" y="1147" on="1"/>
        <pt x="450" y="1013" on="0"/>
        <pt x="495" y="963" on="1"/>
        <pt x="555" y="896" on="0"/>
        <pt x="665" y="896" on="1"/>
        <pt x="917" y="896" on="0"/>
        <pt x="1040" y="783" on="1"/>
        <pt x="1169" y="664" on="0"/>
        <pt x="1169" y="472" on="1"/>
        <pt x="1169" y="268" on="0"/>
        <pt x="1035" y="125" on="1"/>
        <pt x="898" y="-20" on="0"/>
        <pt x="432" y="-20" on="0"/>
        <pt x="295" y="125" on="1"/>
        <pt x="160" y="268" on="0"/>
      </contour>
    </TTGlyph>
    <TTGlyph name="Sacute" xMin="160" yMin="-20" xMax="1169" yMax="1966">
      <contour>
        <pt x="160" y="460" on="1"/>
        <pt x="350" y="550" on="1"/>
        <pt x="360" y="550" on="1"/>
        <pt x="360" y="398" on="1"/>
        <pt x="360" y="276" on="0"/>
        <pt x="432" y="193" on="1"/>
        <pt x="521" y="90" on="0"/>
        <pt x="665" y="90" on="1"/>
        <pt x="808" y="90" on="0"/>
        <pt x="898" y="193" on="1"/>
        <pt x="969" y="274" on="0"/>
        <pt x="969" y="470" on="1"/>
        <pt x="969" y="624" on="0"/>
        <pt x="911" y="692" on="1"/>
        <pt x="831" y="786" on="0"/>
        <pt x="665" y="786" on="1"/>
        <pt x="471" y="786" on="0"/>
        <pt x="350" y="894" on="1"/>
        <pt x="250" y="984" on="0"/>
        <pt x="250" y="1148" on="1"/>
        <pt x="250" y="1333" on="0"/>
        <pt x="374" y="1434" on="1"/>
        <pt x="492" y="1530" on="0"/>
        <pt x="838" y="1530" on="0"/>
        <pt x="956" y="1434" on="1"/>
        <pt x="1080" y="1333" on="0"/>
        <pt x="1080" y="1157" on="1"/>
        <pt x="890" y="1067" on="1"/>
        <pt x="880" y="1067" on="1"/>
        <pt x="880" y="1195" on="1"/>
        <pt x="880" y="1309" on="0"/>
        <pt x="815" y="1365" on="1"/>
        <pt x="752" y="1420" on="0"/>
        <pt x="665" y="1420" on="1"/>
        <pt x="568" y="1420" on="0"/>
        <pt x="450" y="1298" on="0"/>
        <pt x="450" y="1147" on="1"/>
        <pt x="450" y="1013" on="0"/>
        <pt x="495" y="963" on="1"/>
        <pt x="555" y="896" on="0"/>
        <pt x="665" y="896" on="1"/>
        <pt x="917" y="896" on="0"/>
        <pt x="1040" y="783" on="1"/>
        <pt x="1169" y="664" on="0"/>
        <pt x="1169" y="472" on="1"/>
        <pt x="1169" y="268" on="0"/>
        <pt x="1035" y="125" on="1"/>
        <pt x="898" y="-20" on="0"/>
        <pt x="432" y="-20" on="0"/>
        <pt x="295" y="125" on="1"/>
        <pt x="160" y="268" on="0"/>
      </contour>
      <contour>
        <pt x="781" y="1966" on="1"/>
        <pt x="791" y="1966" on="1"/>
        <pt x="967" y="1882" on="1"/>
        <pt x="746" y="1566" on="1"/>
        <pt x="736" y="1566" on="1"/>
        <pt x="619" y="1621" on="1"/>
      </contour>
    </TTGlyph>
    <TTGlyph name="Scaron" xMin="160" yMin="-20" xMax="1169" yMax="1966">
      <contour>
        <pt x="160" y="460" on="1"/>
        <pt x="350" y="550" on="1"/>
        <pt x="360" y="550" on="1"/>
        <pt x="360" y="398" on="1"/>
        <pt x="360" y="276" on="0"/>
        <pt x="432" y="193" on="1"/>
        <pt x="521" y="90" on="0"/>
        <pt x="665" y="90" on="1"/>
        <pt x="808" y="90" on="0"/>
        <pt x="898" y="193" on="1"/>
        <pt x="969" y="274" on="0"/>
        <pt x="969" y="470" on="1"/>
        <pt x="969" y="624" on="0"/>
        <pt x="911" y="692" on="1"/>
        <pt x="831" y="786" on="0"/>
        <pt x="665" y="786" on="1"/>
        <pt x="471" y="786" on="0"/>
        <pt x="350" y="894" on="1"/>
        <pt x="250" y="984" on="0"/>
        <pt x="250" y="1148" on="1"/>
        <pt x="250" y="1333" on="0"/>
        <pt x="374" y="1434" on="1"/>
        <pt x="492" y="1530" on="0"/>
        <pt x="838" y="1530" on="0"/>
        <pt x="956" y="1434" on="1"/>
        <pt x="1080" y="1333" on="0"/>
        <pt x="1080" y="1157" on="1"/>
        <pt x="890" y="1067" on="1"/>
        <pt x="880" y="1067" on="1"/>
        <pt x="880" y="1195" on="1"/>
        <pt x="880" y="1309" on="0"/>
        <pt x="815" y="1365" on="1"/>
        <pt x="752" y="1420" on="0"/>
        <pt x="665" y="1420" on="1"/>
        <pt x="568" y="1420" on="0"/>
        <pt x="450" y="1298" on="0"/>
        <pt x="450" y="1147" on="1"/>
        <pt x="450" y="1013" on="0"/>
        <pt x="495" y="963" on="1"/>
        <pt x="555" y="896" on="0"/>
        <pt x="665" y="896" on="1"/>
        <pt x="917" y="896" on="0"/>
        <pt x="1040" y="783" on="1"/>
        <pt x="1169" y="664" on="0"/>
        <pt x="1169" y="472" on="1"/>
        <pt x="1169" y="268" on="0"/>
        <pt x="1035" y="125" on="1"/>
        <pt x="898" y="-20" on="0"/>
        <pt x="432" y="-20" on="0"/>
        <pt x="295" y="125" on="1"/>
        <pt x="160" y="268" on="0"/>
      </contour>
      <contour>
        <pt x="568" y="1566" on="1"/>
        <pt x="355" y="1911" on="1"/>
        <pt x="471" y="1966" on="1"/>
        <pt x="481" y="1966" on="1"/>
        <pt x="631" y="1758" on="1"/>
        <pt x="779" y="1966" on="1"/>
        <pt x="789" y="1966" on="1"/>
        <pt x="907" y="1911" on="1"/>
        <pt x="754" y="1650" on="1"/>
        <pt x="578" y="1566" on="1"/>
      </contour>
    </TTGlyph>
    <TTGlyph name="Scedilla" xMin="160" yMin="-450" xMax="1169" yMax="1530">
      <contour>
        <pt x="160" y="460" on="1"/>
        <pt x="350" y="550" on="1"/>
        <pt x="360" y="550" on="1"/>
        <pt x="360" y="398" on="1"/>
        <pt x="360" y="276" on="0"/>
        <pt x="432" y="193" on="1"/>
        <pt x="521" y="90" on="0"/>
        <pt x="665" y="90" on="1"/>
        <pt x="808" y="90" on="0"/>
        <pt x="898" y="193" on="1"/>
        <pt x="969" y="274" on="0"/>
        <pt x="969" y="470" on="1"/>
        <pt x="969" y="624" on="0"/>
        <pt x="911" y="692" on="1"/>
        <pt x="831" y="786" on="0"/>
        <pt x="665" y="786" on="1"/>
        <pt x="471" y="786" on="0"/>
        <pt x="350" y="894" on="1"/>
        <pt x="250" y="984" on="0"/>
        <pt x="250" y="1148" on="1"/>
        <pt x="250" y="1333" on="0"/>
        <pt x="374" y="1434" on="1"/>
        <pt x="492" y="1530" on="0"/>
        <pt x="838" y="1530" on="0"/>
        <pt x="956" y="1434" on="1"/>
        <pt x="1080" y="1333" on="0"/>
        <pt x="1080" y="1157" on="1"/>
        <pt x="890" y="1067" on="1"/>
        <pt x="880" y="1067" on="1"/>
        <pt x="880" y="1195" on="1"/>
        <pt x="880" y="1309" on="0"/>
        <pt x="815" y="1365" on="1"/>
        <pt x="752" y="1420" on="0"/>
        <pt x="665" y="1420" on="1"/>
        <pt x="568" y="1420" on="0"/>
        <pt x="450" y="1298" on="0"/>
        <pt x="450" y="1147" on="1"/>
        <pt x="450" y="1013" on="0"/>
        <pt x="495" y="963" on="1"/>
        <pt x="555" y="896" on="0"/>
        <pt x="665" y="896" on="1"/>
        <pt x="917" y="896" on="0"/>
        <pt x="1040" y="783" on="1"/>
        <pt x="1169" y="664" on="0"/>
        <pt x="1169" y="472" on="1"/>
        <pt x="1169" y="267" on="0"/>
        <pt x="1035" y="125" on="1"/>
        <pt x="919" y="2" on="0"/>
        <pt x="733" y="-17" on="1"/>
        <pt x="806" y="-101" on="0"/>
        <pt x="806" y="-206" on="1"/>
        <pt x="806" y="-343" on="0"/>
        <pt x="697" y="-450" on="1"/>
        <pt x="687" y="-450" on="1"/>
        <pt x="497" y="-360" on="1"/>
        <pt x="631" y="-273" on="0"/>
        <pt x="631" y="-152" on="1"/>
        <pt x="631" y="-87" on="0"/>
        <pt x="584" y="-15" on="1"/>
        <pt x="407" y="6" on="0"/>
        <pt x="295" y="125" on="1"/>
        <pt x="160" y="268" on="0"/>
      </contour>
    </TTGlyph>
    <TTGlyph name="Scircumflex" xMin="160" yMin="-20" xMax="1169" yMax="1966">
      <contour>
        <pt x="160" y="460" on="1"/>
        <pt x="350" y="550" on="1"/>
        <pt x="360" y="550" on="1"/>
        <pt x="360" y="398" on="1"/>
        <pt x="360" y="276" on="0"/>
        <pt x="432" y="193" on="1"/>
        <pt x="521" y="90" on="0"/>
        <pt x="665" y="90" on="1"/>
        <pt x="808" y="90" on="0"/>
        <pt x="898" y="193" on="1"/>
        <pt x="969" y="274" on="0"/>
        <pt x="969" y="470" on="1"/>
        <pt x="969" y="624" on="0"/>
        <pt x="911" y="692" on="1"/>
        <pt x="831" y="786" on="0"/>
        <pt x="665" y="786" on="1"/>
        <pt x="471" y="786" on="0"/>
        <pt x="350" y="894" on="1"/>
        <pt x="250" y="984" on="0"/>
        <pt x="250" y="1148" on="1"/>
        <pt x="250" y="1333" on="0"/>
        <pt x="374" y="1434" on="1"/>
        <pt x="492" y="1530" on="0"/>
        <pt x="838" y="1530" on="0"/>
        <pt x="956" y="1434" on="1"/>
        <pt x="1080" y="1333" on="0"/>
        <pt x="1080" y="1157" on="1"/>
        <pt x="890" y="1067" on="1"/>
        <pt x="880" y="1067" on="1"/>
        <pt x="880" y="1195" on="1"/>
        <pt x="880" y="1309" on="0"/>
        <pt x="815" y="1365" on="1"/>
        <pt x="752" y="1420" on="0"/>
        <pt x="665" y="1420" on="1"/>
        <pt x="568" y="1420" on="0"/>
        <pt x="450" y="1298" on="0"/>
        <pt x="450" y="1147" on="1"/>
        <pt x="450" y="1013" on="0"/>
        <pt x="495" y="963" on="1"/>
        <pt x="555" y="896" on="0"/>
        <pt x="665" y="896" on="1"/>
        <pt x="917" y="896" on="0"/>
        <pt x="1040" y="783" on="1"/>
        <pt x="1169" y="664" on="0"/>
        <pt x="1169" y="472" on="1"/>
        <pt x="1169" y="268" on="0"/>
        <pt x="1035" y="125" on="1"/>
        <pt x="898" y="-20" on="0"/>
        <pt x="432" y="-20" on="0"/>
        <pt x="295" y="125" on="1"/>
        <pt x="160" y="268" on="0"/>
      </contour>
      <contour>
        <pt x="390" y="1621" on="1"/>
        <pt x="543" y="1882" on="1"/>
        <pt x="719" y="1966" on="1"/>
        <pt x="729" y="1966" on="1"/>
        <pt x="942" y="1621" on="1"/>
        <pt x="826" y="1566" on="1"/>
        <pt x="816" y="1566" on="1"/>
        <pt x="666" y="1774" on="1"/>
        <pt x="518" y="1566" on="1"/>
        <pt x="508" y="1566" on="1"/>
      </contour>
    </TTGlyph>
    <TTGlyph name="Scommaaccent" xMin="160" yMin="-450" xMax="1169" yMax="1530">
      <contour>
        <pt x="160" y="460" on="1"/>
        <pt x="350" y="550" on="1"/>
        <pt x="360" y="550" on="1"/>
        <pt x="360" y="398" on="1"/>
        <pt x="360" y="276" on="0"/>
        <pt x="432" y="193" on="1"/>
        <pt x="521" y="90" on="0"/>
        <pt x="665" y="90" on="1"/>
        <pt x="808" y="90" on="0"/>
        <pt x="898" y="193" on="1"/>
        <pt x="969" y="274" on="0"/>
        <pt x="969" y="470" on="1"/>
        <pt x="969" y="624" on="0"/>
        <pt x="911" y="692" on="1"/>
        <pt x="831" y="786" on="0"/>
        <pt x="665" y="786" on="1"/>
        <pt x="471" y="786" on="0"/>
        <pt x="350" y="894" on="1"/>
        <pt x="250" y="984" on="0"/>
        <pt x="250" y="1148" on="1"/>
        <pt x="250" y="1333" on="0"/>
        <pt x="374" y="1434" on="1"/>
        <pt x="492" y="1530" on="0"/>
        <pt x="838" y="1530" on="0"/>
        <pt x="956" y="1434" on="1"/>
        <pt x="1080" y="1333" on="0"/>
        <pt x="1080" y="1157" on="1"/>
        <pt x="890" y="1067" on="1"/>
        <pt x="880" y="1067" on="1"/>
        <pt x="880" y="1195" on="1"/>
        <pt x="880" y="1309" on="0"/>
        <pt x="815" y="1365" on="1"/>
        <pt x="752" y="1420" on="0"/>
        <pt x="665" y="1420" on="1"/>
        <pt x="568" y="1420" on="0"/>
        <pt x="450" y="1298" on="0"/>
        <pt x="450" y="1147" on="1"/>
        <pt x="450" y="1013" on="0"/>
        <pt x="495" y="963" on="1"/>
        <pt x="555" y="896" on="0"/>
        <pt x="665" y="896" on="1"/>
        <pt x="917" y="896" on="0"/>
        <pt x="1040" y="783" on="1"/>
        <pt x="1169" y="664" on="0"/>
        <pt x="1169" y="472" on="1"/>
        <pt x="1169" y="268" on="0"/>
        <pt x="1035" y="125" on="1"/>
        <pt x="898" y="-20" on="0"/>
        <pt x="432" y="-20" on="0"/>
        <pt x="295" y="125" on="1"/>
        <pt x="160" y="268" on="0"/>
      </contour>
      <contour>
        <pt x="561" y="-450" on="1"/>
        <pt x="551" y="-450" on="1"/>
        <pt x="375" y="-366" on="1"/>
        <pt x="596" y="-50" on="1"/>
        <pt x="606" y="-50" on="1"/>
        <pt x="723" y="-105" on="1"/>
      </contour>
    </TTGlyph>
    <TTGlyph name="Sigma" xMin="100" yMin="0" xMax="1053" yMax="1510">
      <contour>
        <pt x="100" y="0" on="1"/>
        <pt x="584" y="776" on="1"/>
        <pt x="101" y="1460" on="1"/>
        <pt x="207" y="1510" on="1"/>
        <pt x="962" y="1510" on="1"/>
        <pt x="962" y="1500" on="1"/>
        <pt x="915" y="1400" on="1"/>
        <pt x="380" y="1400" on="1"/>
        <pt x="805" y="774" on="1"/>
        <pt x="381" y="110" on="1"/>
        <pt x="1053" y="110" on="1"/>
        <pt x="1053" y="100" on="1"/>
        <pt x="1006" y="0" on="1"/>
      </contour>
    </TTGlyph>
    <TTGlyph name="T" xMin="5" yMin="-40" xMax="1061" yMax="1510">
      <contour>
        <pt x="433" y="-40" on="1"/>
        <pt x="433" y="1400" on="1"/>
        <pt x="5" y="1400" on="1"/>
        <pt x="5" y="1410" on="1"/>
        <pt x="52" y="1510" on="1"/>
        <pt x="1061" y="1510" on="1"/>
        <pt x="1061" y="1500" on="1"/>
        <pt x="1014" y="1400" on="1"/>
        <pt x="633" y="1400" on="1"/>
        <pt x="633" y="50" on="1"/>
        <pt x="443" y="-40" on="1"/>
      </contour>
    </TTGlyph>
    <TTGlyph name="Tbar" xMin="5" yMin="-40" xMax="1061" yMax="1510">
      <contour>
        <pt x="433" y="-40" on="1"/>
        <pt x="433" y="700" on="1"/>
        <pt x="233" y="700" on="1"/>
        <pt x="233" y="710" on="1"/>
        <pt x="280" y="810" on="1"/>
        <pt x="433" y="810" on="1"/>
        <pt x="433" y="1400" on="1"/>
        <pt x="5" y="1400" on="1"/>
        <pt x="5" y="1410" on="1"/>
        <pt x="52" y="1510" on="1"/>
        <pt x="1061" y="1510" on="1"/>
        <pt x="1061" y="1500" on="1"/>
        <pt x="1014" y="1400" on="1"/>
        <pt x="633" y="1400" on="1"/>
        <pt x="633" y="810" on="1"/>
        <pt x="833" y="810" on="1"/>
        <pt x="833" y="800" on="1"/>
        <pt x="786" y="700" on="1"/>
        <pt x="633" y="700" on="1"/>
        <pt x="633" y="50" on="1"/>
        <pt x="443" y="-40" on="1"/>
      </contour>
    </TTGlyph>
    <TTGlyph name="Tcaron" xMin="5" yMin="-40" xMax="1061" yMax="1966">
      <contour>
        <pt x="433" y="-40" on="1"/>
        <pt x="433" y="1400" on="1"/>
        <pt x="5" y="1400" on="1"/>
        <pt x="5" y="1410" on="1"/>
        <pt x="52" y="1510" on="1"/>
        <pt x="1061" y="1510" on="1"/>
        <pt x="1061" y="1500" on="1"/>
        <pt x="1014" y="1400" on="1"/>
        <pt x="633" y="1400" on="1"/>
        <pt x="633" y="50" on="1"/>
        <pt x="443" y="-40" on="1"/>
      </contour>
      <contour>
        <pt x="448" y="1566" on="1"/>
        <pt x="235" y="1911" on="1"/>
        <pt x="351" y="1966" on="1"/>
        <pt x="361" y="1966" on="1"/>
        <pt x="511" y="1758" on="1"/>
        <pt x="659" y="1966" on="1"/>
        <pt x="669" y="1966" on="1"/>
        <pt x="787" y="1911" on="1"/>
        <pt x="634" y="1650" on="1"/>
        <pt x="458" y="1566" on="1"/>
      </contour>
    </TTGlyph>
    <TTGlyph name="Tcommaaccent" xMin="5" yMin="-450" xMax="1061" yMax="1510">
      <contour>
        <pt x="433" y="-40" on="1"/>
        <pt x="433" y="1400" on="1"/>
        <pt x="5" y="1400" on="1"/>
        <pt x="5" y="1410" on="1"/>
        <pt x="52" y="1510" on="1"/>
        <pt x="1061" y="1510" on="1"/>
        <pt x="1061" y="1500" on="1"/>
        <pt x="1014" y="1400" on="1"/>
        <pt x="633" y="1400" on="1"/>
        <pt x="633" y="50" on="1"/>
        <pt x="779" y="-61" on="0"/>
        <pt x="779" y="-206" on="1"/>
        <pt x="779" y="-343" on="0"/>
        <pt x="670" y="-450" on="1"/>
        <pt x="660" y="-450" on="1"/>
        <pt x="470" y="-360" on="1"/>
        <pt x="604" y="-273" on="0"/>
        <pt x="604" y="-152" on="1"/>
        <pt x="604" y="-77" on="0"/>
        <pt x="541" y="6" on="1"/>
        <pt x="443" y="-40" on="1"/>
      </contour>
    </TTGlyph>
    <TTGlyph name="Thorn" xMin="200" yMin="-40" xMax="1190" yMax="1550">
      <contour>
        <pt x="400" y="380" on="1"/>
        <pt x="685" y="380" on="1"/>
        <pt x="816" y="380" on="0"/>
        <pt x="918" y="483" on="1"/>
        <pt x="990" y="556" on="0"/>
        <pt x="990" y="770" on="1"/>
        <pt x="990" y="974" on="0"/>
        <pt x="918" y="1057" on="1"/>
        <pt x="829" y="1160" on="0"/>
        <pt x="685" y="1160" on="1"/>
        <pt x="400" y="1160" on="1"/>
      </contour>
      <contour>
        <pt x="200" y="-40" on="1"/>
        <pt x="200" y="1460" on="1"/>
        <pt x="390" y="1550" on="1"/>
        <pt x="400" y="1550" on="1"/>
        <pt x="400" y="1270" on="1"/>
        <pt x="685" y="1270" on="1"/>
        <pt x="913" y="1270" on="0"/>
        <pt x="1055" y="1125" on="1"/>
        <pt x="1190" y="987" on="0"/>
        <pt x="1190" y="770" on="1"/>
        <pt x="1190" y="552" on="0"/>
        <pt x="1055" y="415" on="1"/>
        <pt x="912" y="270" on="0"/>
        <pt x="685" y="270" on="1"/>
        <pt x="400" y="270" on="1"/>
        <pt x="400" y="50" on="1"/>
        <pt x="210" y="-40" on="1"/>
      </contour>
    </TTGlyph>
    <TTGlyph name="U" xMin="200" yMin="-20" xMax="1210" yMax="1550">
      <contour>
        <pt x="200" y="1460" on="1"/>
        <pt x="390" y="1550" on="1"/>
        <pt x="400" y="1550" on="1"/>
        <pt x="400" y="410" on="1"/>
        <pt x="400" y="276" on="0"/>
        <pt x="472" y="193" on="1"/>
        <pt x="561" y="90" on="0"/>
        <pt x="849" y="90" on="0"/>
        <pt x="938" y="193" on="1"/>
        <pt x="1010" y="276" on="0"/>
        <pt x="1010" y="410" on="1"/>
        <pt x="1010" y="1460" on="1"/>
        <pt x="1200" y="1550" on="1"/>
        <pt x="1210" y="1550" on="1"/>
        <pt x="1210" y="480" on="1"/>
        <pt x="1210" y="264" on="0"/>
        <pt x="1075" y="125" on="1"/>
        <pt x="933" y="-20" on="0"/>
        <pt x="705" y="-20" on="1"/>
        <pt x="480" y="-20" on="0"/>
        <pt x="335" y="125" on="1"/>
        <pt x="200" y="259" on="0"/>
        <pt x="200" y="480" on="1"/>
      </contour>
    </TTGlyph>
    <TTGlyph name="Uacute" xMin="200" yMin="-20" xMax="1210" yMax="1966">
      <contour>
        <pt x="200" y="1460" on="1"/>
        <pt x="390" y="1550" on="1"/>
        <pt x="400" y="1550" on="1"/>
        <pt x="400" y="410" on="1"/>
        <pt x="400" y="276" on="0"/>
        <pt x="472" y="193" on="1"/>
        <pt x="561" y="90" on="0"/>
        <pt x="849" y="90" on="0"/>
        <pt x="938" y="193" on="1"/>
        <pt x="1010" y="276" on="0"/>
        <pt x="1010" y="410" on="1"/>
        <pt x="1010" y="1460" on="1"/>
        <pt x="1200" y="1550" on="1"/>
        <pt x="1210" y="1550" on="1"/>
        <pt x="1210" y="480" on="1"/>
        <pt x="1210" y="264" on="0"/>
        <pt x="1075" y="125" on="1"/>
        <pt x="933" y="-20" on="0"/>
        <pt x="705" y="-20" on="1"/>
        <pt x="480" y="-20" on="0"/>
        <pt x="335" y="125" on="1"/>
        <pt x="200" y="259" on="0"/>
        <pt x="200" y="480" on="1"/>
      </contour>
      <contour>
        <pt x="817" y="1966" on="1"/>
        <pt x="827" y="1966" on="1"/>
        <pt x="1003" y="1882" on="1"/>
        <pt x="782" y="1566" on="1"/>
        <pt x="772" y="1566" on="1"/>
        <pt x="655" y="1621" on="1"/>
      </contour>
    </TTGlyph>
    <TTGlyph name="Ubreve" xMin="200" yMin="-20" xMax="1210" yMax="1947">
      <contour>
        <pt x="200" y="1460" on="1"/>
        <pt x="390" y="1550" on="1"/>
        <pt x="400" y="1550" on="1"/>
        <pt x="400" y="410" on="1"/>
        <pt x="400" y="276" on="0"/>
        <pt x="472" y="193" on="1"/>
        <pt x="561" y="90" on="0"/>
        <pt x="849" y="90" on="0"/>
        <pt x="938" y="193" on="1"/>
        <pt x="1010" y="276" on="0"/>
        <pt x="1010" y="410" on="1"/>
        <pt x="1010" y="1460" on="1"/>
        <pt x="1200" y="1550" on="1"/>
        <pt x="1210" y="1550" on="1"/>
        <pt x="1210" y="480" on="1"/>
        <pt x="1210" y="264" on="0"/>
        <pt x="1075" y="125" on="1"/>
        <pt x="933" y="-20" on="0"/>
        <pt x="705" y="-20" on="1"/>
        <pt x="480" y="-20" on="0"/>
        <pt x="335" y="125" on="1"/>
        <pt x="200" y="259" on="0"/>
        <pt x="200" y="480" on="1"/>
      </contour>
      <contour>
        <pt x="468" y="1788" on="1"/>
        <pt x="468" y="1798" on="1"/>
        <pt x="542" y="1947" on="1"/>
        <pt x="614" y="1813" on="0"/>
        <pt x="814" y="1813" on="0"/>
        <pt x="886" y="1947" on="1"/>
        <pt x="962" y="1798" on="1"/>
        <pt x="962" y="1788" on="1"/>
        <pt x="860" y="1638" on="0"/>
        <pt x="712" y="1638" on="1"/>
        <pt x="558" y="1638" on="0"/>
      </contour>
    </TTGlyph>
    <TTGlyph name="Ucircumflex" xMin="200" yMin="-20" xMax="1210" yMax="1966">
      <contour>
        <pt x="200" y="1460" on="1"/>
        <pt x="390" y="1550" on="1"/>
        <pt x="400" y="1550" on="1"/>
        <pt x="400" y="410" on="1"/>
        <pt x="400" y="276" on="0"/>
        <pt x="472" y="193" on="1"/>
        <pt x="561" y="90" on="0"/>
        <pt x="849" y="90" on="0"/>
        <pt x="938" y="193" on="1"/>
        <pt x="1010" y="276" on="0"/>
        <pt x="1010" y="410" on="1"/>
        <pt x="1010" y="1460" on="1"/>
        <pt x="1200" y="1550" on="1"/>
        <pt x="1210" y="1550" on="1"/>
        <pt x="1210" y="480" on="1"/>
        <pt x="1210" y="264" on="0"/>
        <pt x="1075" y="125" on="1"/>
        <pt x="933" y="-20" on="0"/>
        <pt x="705" y="-20" on="1"/>
        <pt x="480" y="-20" on="0"/>
        <pt x="335" y="125" on="1"/>
        <pt x="200" y="259" on="0"/>
        <pt x="200" y="480" on="1"/>
      </contour>
      <contour>
        <pt x="434" y="1621" on="1"/>
        <pt x="587" y="1882" on="1"/>
        <pt x="763" y="1966" on="1"/>
        <pt x="773" y="1966" on="1"/>
        <pt x="986" y="1621" on="1"/>
        <pt x="870" y="1566" on="1"/>
        <pt x="860" y="1566" on="1"/>
        <pt x="710" y="1774" on="1"/>
        <pt x="562" y="1566" on="1"/>
        <pt x="552" y="1566" on="1"/>
      </contour>
    </TTGlyph>
    <TTGlyph name="Udieresis" xMin="200" yMin="-20" xMax="1210" yMax="1925">
      <contour>
        <pt x="200" y="1460" on="1"/>
        <pt x="390" y="1550" on="1"/>
        <pt x="400" y="1550" on="1"/>
        <pt x="400" y="410" on="1"/>
        <pt x="400" y="276" on="0"/>
        <pt x="472" y="193" on="1"/>
        <pt x="561" y="90" on="0"/>
        <pt x="849" y="90" on="0"/>
        <pt x="938" y="193" on="1"/>
        <pt x="1010" y="276" on="0"/>
        <pt x="1010" y="410" on="1"/>
        <pt x="1010" y="1460" on="1"/>
        <pt x="1200" y="1550" on="1"/>
        <pt x="1210" y="1550" on="1"/>
        <pt x="1210" y="480" on="1"/>
        <pt x="1210" y="264" on="0"/>
        <pt x="1075" y="125" on="1"/>
        <pt x="933" y="-20" on="0"/>
        <pt x="705" y="-20" on="1"/>
        <pt x="480" y="-20" on="0"/>
        <pt x="335" y="125" on="1"/>
        <pt x="200" y="259" on="0"/>
        <pt x="200" y="480" on="1"/>
      </contour>
      <contour>
        <pt x="742" y="1752" on="0"/>
        <pt x="742" y="1853" on="0"/>
        <pt x="812" y="1925" on="0"/>
        <pt x="912" y="1925" on="0"/>
        <pt x="982" y="1853" on="0"/>
        <pt x="982" y="1752" on="0"/>
        <pt x="912" y="1680" on="0"/>
        <pt x="812" y="1680" on="0"/>
      </contour>
      <contour>
        <pt x="442" y="1752" on="0"/>
        <pt x="442" y="1853" on="0"/>
        <pt x="512" y="1925" on="0"/>
        <pt x="612" y="1925" on="0"/>
        <pt x="682" y="1853" on="0"/>
        <pt x="682" y="1752" on="0"/>
        <pt x="612" y="1680" on="0"/>
        <pt x="512" y="1680" on="0"/>
      </contour>
    </TTGlyph>
    <TTGlyph name="Ugrave" xMin="200" yMin="-20" xMax="1210" yMax="1966">
      <contour>
        <pt x="200" y="1460" on="1"/>
        <pt x="390" y="1550" on="1"/>
        <pt x="400" y="1550" on="1"/>
        <pt x="400" y="410" on="1"/>
        <pt x="400" y="276" on="0"/>
        <pt x="472" y="193" on="1"/>
        <pt x="561" y="90" on="0"/>
        <pt x="849" y="90" on="0"/>
        <pt x="938" y="193" on="1"/>
        <pt x="1010" y="276" on="0"/>
        <pt x="1010" y="410" on="1"/>
        <pt x="1010" y="1460" on="1"/>
        <pt x="1200" y="1550" on="1"/>
        <pt x="1210" y="1550" on="1"/>
        <pt x="1210" y="480" on="1"/>
        <pt x="1210" y="264" on="0"/>
        <pt x="1075" y="125" on="1"/>
        <pt x="933" y="-20" on="0"/>
        <pt x="705" y="-20" on="1"/>
        <pt x="480" y="-20" on="0"/>
        <pt x="335" y="125" on="1"/>
        <pt x="200" y="259" on="0"/>
        <pt x="200" y="480" on="1"/>
      </contour>
      <contour>
        <pt x="596" y="1966" on="1"/>
        <pt x="606" y="1966" on="1"/>
        <pt x="768" y="1621" on="1"/>
        <pt x="651" y="1566" on="1"/>
        <pt x="641" y="1566" on="1"/>
        <pt x="420" y="1882" on="1"/>
      </contour>
    </TTGlyph>
    <TTGlyph name="Uhungarumlaut" xMin="200" yMin="-20" xMax="1210" yMax="1966">
      <contour>
        <pt x="200" y="1460" on="1"/>
        <pt x="390" y="1550" on="1"/>
        <pt x="400" y="1550" on="1"/>
        <pt x="400" y="410" on="1"/>
        <pt x="400" y="276" on="0"/>
        <pt x="472" y="193" on="1"/>
        <pt x="561" y="90" on="0"/>
        <pt x="849" y="90" on="0"/>
        <pt x="938" y="193" on="1"/>
        <pt x="1010" y="276" on="0"/>
        <pt x="1010" y="410" on="1"/>
        <pt x="1010" y="1460" on="1"/>
        <pt x="1200" y="1550" on="1"/>
        <pt x="1210" y="1550" on="1"/>
        <pt x="1210" y="480" on="1"/>
        <pt x="1210" y="264" on="0"/>
        <pt x="1075" y="125" on="1"/>
        <pt x="933" y="-20" on="0"/>
        <pt x="705" y="-20" on="1"/>
        <pt x="480" y="-20" on="0"/>
        <pt x="335" y="125" on="1"/>
        <pt x="200" y="259" on="0"/>
        <pt x="200" y="480" on="1"/>
      </contour>
      <contour>
        <pt x="933" y="1966" on="1"/>
        <pt x="943" y="1966" on="1"/>
        <pt x="1119" y="1882" on="1"/>
        <pt x="898" y="1566" on="1"/>
        <pt x="888" y="1566" on="1"/>
        <pt x="771" y="1621" on="1"/>
      </contour>
      <contour>
        <pt x="656" y="1966" on="1"/>
        <pt x="666" y="1966" on="1"/>
        <pt x="842" y="1882" on="1"/>
        <pt x="621" y="1566" on="1"/>
        <pt x="611" y="1566" on="1"/>
        <pt x="494" y="1621" on="1"/>
      </contour>
    </TTGlyph>
    <TTGlyph name="Umacron" xMin="200" yMin="-20" xMax="1210" yMax="1820">
      <contour>
        <pt x="200" y="1460" on="1"/>
        <pt x="390" y="1550" on="1"/>
        <pt x="400" y="1550" on="1"/>
        <pt x="400" y="410" on="1"/>
        <pt x="400" y="276" on="0"/>
        <pt x="472" y="193" on="1"/>
        <pt x="561" y="90" on="0"/>
        <pt x="849" y="90" on="0"/>
        <pt x="938" y="193" on="1"/>
        <pt x="1010" y="276" on="0"/>
        <pt x="1010" y="410" on="1"/>
        <pt x="1010" y="1460" on="1"/>
        <pt x="1200" y="1550" on="1"/>
        <pt x="1210" y="1550" on="1"/>
        <pt x="1210" y="480" on="1"/>
        <pt x="1210" y="264" on="0"/>
        <pt x="1075" y="125" on="1"/>
        <pt x="933" y="-20" on="0"/>
        <pt x="705" y="-20" on="1"/>
        <pt x="480" y="-20" on="0"/>
        <pt x="335" y="125" on="1"/>
        <pt x="200" y="259" on="0"/>
        <pt x="200" y="480" on="1"/>
      </contour>
      <contour>
        <pt x="467" y="1638" on="1"/>
        <pt x="467" y="1648" on="1"/>
        <pt x="548" y="1820" on="1"/>
        <pt x="1006" y="1820" on="1"/>
        <pt x="1006" y="1810" on="1"/>
        <pt x="925" y="1638" on="1"/>
      </contour>
    </TTGlyph>
    <TTGlyph name="Uogonek" xMin="200" yMin="-450" xMax="1210" yMax="1550">
      <contour>
        <pt x="200" y="1460" on="1"/>
        <pt x="390" y="1550" on="1"/>
        <pt x="400" y="1550" on="1"/>
        <pt x="400" y="410" on="1"/>
        <pt x="400" y="276" on="0"/>
        <pt x="472" y="193" on="1"/>
        <pt x="561" y="90" on="0"/>
        <pt x="849" y="90" on="0"/>
        <pt x="938" y="193" on="1"/>
        <pt x="1010" y="276" on="0"/>
        <pt x="1010" y="410" on="1"/>
        <pt x="1010" y="1460" on="1"/>
        <pt x="1200" y="1550" on="1"/>
        <pt x="1210" y="1550" on="1"/>
        <pt x="1210" y="480" on="1"/>
        <pt x="1210" y="260" on="0"/>
        <pt x="1075" y="125" on="1"/>
        <pt x="1039" y="89" on="0"/>
        <pt x="998" y="61" on="1"/>
        <pt x="888" y="-52" on="0"/>
        <pt x="888" y="-152" on="1"/>
        <pt x="888" y="-273" on="0"/>
        <pt x="1022" y="-360" on="1"/>
        <pt x="832" y="-450" on="1"/>
        <pt x="822" y="-450" on="1"/>
        <pt x="713" y="-343" on="0"/>
        <pt x="713" y="-206" on="1"/>
        <pt x="713" y="-101" on="0"/>
        <pt x="787" y="-15" on="1"/>
        <pt x="748" y="-20" on="0"/>
        <pt x="705" y="-20" on="1"/>
        <pt x="481" y="-20" on="0"/>
        <pt x="335" y="125" on="1"/>
        <pt x="200" y="259" on="0"/>
        <pt x="200" y="480" on="1"/>
      </contour>
    </TTGlyph>
    <TTGlyph name="Uring" xMin="200" yMin="-20" xMax="1210" yMax="1966">
      <contour>
        <pt x="200" y="1460" on="1"/>
        <pt x="390" y="1550" on="1"/>
        <pt x="400" y="1550" on="1"/>
        <pt x="400" y="410" on="1"/>
        <pt x="400" y="276" on="0"/>
        <pt x="472" y="193" on="1"/>
        <pt x="561" y="90" on="0"/>
        <pt x="849" y="90" on="0"/>
        <pt x="938" y="193" on="1"/>
        <pt x="1010" y="276" on="0"/>
        <pt x="1010" y="410" on="1"/>
        <pt x="1010" y="1460" on="1"/>
        <pt x="1200" y="1550" on="1"/>
        <pt x="1210" y="1550" on="1"/>
        <pt x="1210" y="480" on="1"/>
        <pt x="1210" y="264" on="0"/>
        <pt x="1075" y="125" on="1"/>
        <pt x="933" y="-20" on="0"/>
        <pt x="705" y="-20" on="1"/>
        <pt x="480" y="-20" on="0"/>
        <pt x="335" y="125" on="1"/>
        <pt x="200" y="259" on="0"/>
        <pt x="200" y="480" on="1"/>
      </contour>
      <contour>
        <pt x="785" y="1588" on="0"/>
        <pt x="625" y="1588" on="0"/>
        <pt x="570" y="1637" on="1"/>
        <pt x="508" y="1692" on="0"/>
        <pt x="508" y="1777" on="1"/>
        <pt x="508" y="1860" on="0"/>
        <pt x="570" y="1917" on="1"/>
        <pt x="623" y="1966" on="0"/>
        <pt x="705" y="1966" on="1"/>
        <pt x="785" y="1966" on="0"/>
        <pt x="840" y="1917" on="1"/>
        <pt x="902" y="1862" on="0"/>
        <pt x="902" y="1692" on="0"/>
        <pt x="840" y="1637" on="1"/>
      </contour>
      <contour>
        <pt x="705" y="1862" on="1"/>
        <pt x="671" y="1862" on="0"/>
        <pt x="631" y="1820" on="0"/>
        <pt x="631" y="1777" on="1"/>
        <pt x="631" y="1731" on="0"/>
        <pt x="652" y="1712" on="1"/>
        <pt x="674" y="1692" on="0"/>
        <pt x="704" y="1692" on="1"/>
        <pt x="735" y="1692" on="0"/>
        <pt x="757" y="1714" on="1"/>
        <pt x="777" y="1733" on="0"/>
        <pt x="777" y="1777" on="1"/>
        <pt x="777" y="1822" on="0"/>
        <pt x="755" y="1843" on="1"/>
        <pt x="735" y="1862" on="0"/>
      </contour>
    </TTGlyph>
    <TTGlyph name="Utilde" xMin="200" yMin="-20" xMax="1210" yMax="1924">
      <contour>
        <pt x="200" y="1460" on="1"/>
        <pt x="390" y="1550" on="1"/>
        <pt x="400" y="1550" on="1"/>
        <pt x="400" y="410" on="1"/>
        <pt x="400" y="276" on="0"/>
        <pt x="472" y="193" on="1"/>
        <pt x="561" y="90" on="0"/>
        <pt x="849" y="90" on="0"/>
        <pt x="938" y="193" on="1"/>
        <pt x="1010" y="276" on="0"/>
        <pt x="1010" y="410" on="1"/>
        <pt x="1010" y="1460" on="1"/>
        <pt x="1200" y="1550" on="1"/>
        <pt x="1210" y="1550" on="1"/>
        <pt x="1210" y="480" on="1"/>
        <pt x="1210" y="264" on="0"/>
        <pt x="1075" y="125" on="1"/>
        <pt x="933" y="-20" on="0"/>
        <pt x="705" y="-20" on="1"/>
        <pt x="480" y="-20" on="0"/>
        <pt x="335" y="125" on="1"/>
        <pt x="200" y="259" on="0"/>
        <pt x="200" y="480" on="1"/>
      </contour>
      <contour>
        <pt x="471" y="1638" on="1"/>
        <pt x="471" y="1924" on="0"/>
        <pt x="612" y="1924" on="1"/>
        <pt x="676" y="1924" on="0"/>
        <pt x="749" y="1854" on="1"/>
        <pt x="800" y="1805" on="0"/>
        <pt x="824" y="1805" on="1"/>
        <pt x="858" y="1805" on="0"/>
        <pt x="858" y="1877" on="1"/>
        <pt x="968" y="1924" on="1"/>
        <pt x="974" y="1924" on="1"/>
        <pt x="974" y="1638" on="0"/>
        <pt x="833" y="1638" on="1"/>
        <pt x="769" y="1638" on="0"/>
        <pt x="696" y="1708" on="1"/>
        <pt x="645" y="1757" on="0"/>
        <pt x="621" y="1757" on="1"/>
        <pt x="587" y="1757" on="0"/>
        <pt x="587" y="1685" on="1"/>
        <pt x="477" y="1638" on="1"/>
      </contour>
    </TTGlyph>
    <TTGlyph name="V" xMin="5" yMin="-40" xMax="1186" yMax="1550">
      <contour>
        <pt x="515" y="-40" on="1"/>
        <pt x="5" y="1468" on="1"/>
        <pt x="178" y="1550" on="1"/>
        <pt x="188" y="1550" on="1"/>
        <pt x="630" y="234" on="1"/>
        <pt x="1069" y="1550" on="1"/>
        <pt x="1079" y="1550" on="1"/>
        <pt x="1186" y="1499" on="1"/>
        <pt x="698" y="42" on="1"/>
        <pt x="525" y="-40" on="1"/>
      </contour>
    </TTGlyph>
    <TTGlyph name="W" xMin="200" yMin="-20" xMax="2020" yMax="1550">
      <contour>
        <pt x="200" y="1460" on="1"/>
        <pt x="390" y="1550" on="1"/>
        <pt x="400" y="1550" on="1"/>
        <pt x="400" y="410" on="1"/>
        <pt x="400" y="276" on="0"/>
        <pt x="472" y="193" on="1"/>
        <pt x="561" y="90" on="0"/>
        <pt x="849" y="90" on="0"/>
        <pt x="938" y="193" on="1"/>
        <pt x="1010" y="276" on="0"/>
        <pt x="1010" y="410" on="1"/>
        <pt x="1010" y="1460" on="1"/>
        <pt x="1200" y="1550" on="1"/>
        <pt x="1210" y="1550" on="1"/>
        <pt x="1210" y="410" on="1"/>
        <pt x="1210" y="276" on="0"/>
        <pt x="1282" y="193" on="1"/>
        <pt x="1371" y="90" on="0"/>
        <pt x="1659" y="90" on="0"/>
        <pt x="1748" y="193" on="1"/>
        <pt x="1820" y="276" on="0"/>
        <pt x="1820" y="410" on="1"/>
        <pt x="1820" y="1460" on="1"/>
        <pt x="2010" y="1550" on="1"/>
        <pt x="2020" y="1550" on="1"/>
        <pt x="2020" y="480" on="1"/>
        <pt x="2020" y="264" on="0"/>
        <pt x="1885" y="125" on="1"/>
        <pt x="1743" y="-20" on="0"/>
        <pt x="1515" y="-20" on="1"/>
        <pt x="1309" y="-20" on="0"/>
        <pt x="1164" y="125" on="1"/>
        <pt x="1128" y="161" on="0"/>
        <pt x="1110" y="195" on="1"/>
        <pt x="1087" y="160" on="0"/>
        <pt x="1054" y="128" on="1"/>
        <pt x="903" y="-20" on="0"/>
        <pt x="705" y="-20" on="1"/>
        <pt x="481" y="-20" on="0"/>
        <pt x="335" y="125" on="1"/>
        <pt x="200" y="259" on="0"/>
        <pt x="200" y="480" on="1"/>
      </contour>
    </TTGlyph>
    <TTGlyph name="Wacute" xMin="200" yMin="-20" xMax="2020" yMax="1966">
      <contour>
        <pt x="200" y="1460" on="1"/>
        <pt x="390" y="1550" on="1"/>
        <pt x="400" y="1550" on="1"/>
        <pt x="400" y="410" on="1"/>
        <pt x="400" y="276" on="0"/>
        <pt x="472" y="193" on="1"/>
        <pt x="561" y="90" on="0"/>
        <pt x="849" y="90" on="0"/>
        <pt x="938" y="193" on="1"/>
        <pt x="1010" y="276" on="0"/>
        <pt x="1010" y="410" on="1"/>
        <pt x="1010" y="1460" on="1"/>
        <pt x="1200" y="1550" on="1"/>
        <pt x="1210" y="1550" on="1"/>
        <pt x="1210" y="410" on="1"/>
        <pt x="1210" y="276" on="0"/>
        <pt x="1282" y="193" on="1"/>
        <pt x="1371" y="90" on="0"/>
        <pt x="1659" y="90" on="0"/>
        <pt x="1748" y="193" on="1"/>
        <pt x="1820" y="276" on="0"/>
        <pt x="1820" y="410" on="1"/>
        <pt x="1820" y="1460" on="1"/>
        <pt x="2010" y="1550" on="1"/>
        <pt x="2020" y="1550" on="1"/>
        <pt x="2020" y="480" on="1"/>
        <pt x="2020" y="264" on="0"/>
        <pt x="1885" y="125" on="1"/>
        <pt x="1743" y="-20" on="0"/>
        <pt x="1515" y="-20" on="1"/>
        <pt x="1309" y="-20" on="0"/>
        <pt x="1164" y="125" on="1"/>
        <pt x="1128" y="161" on="0"/>
        <pt x="1110" y="195" on="1"/>
        <pt x="1087" y="160" on="0"/>
        <pt x="1054" y="128" on="1"/>
        <pt x="903" y="-20" on="0"/>
        <pt x="705" y="-20" on="1"/>
        <pt x="481" y="-20" on="0"/>
        <pt x="335" y="125" on="1"/>
        <pt x="200" y="259" on="0"/>
        <pt x="200" y="480" on="1"/>
      </contour>
      <contour>
        <pt x="1153" y="1966" on="1"/>
        <pt x="1163" y="1966" on="1"/>
        <pt x="1339" y="1882" on="1"/>
        <pt x="1118" y="1566" on="1"/>
        <pt x="1108" y="1566" on="1"/>
        <pt x="991" y="1621" on="1"/>
      </contour>
    </TTGlyph>
    <TTGlyph name="Wcircumflex" xMin="200" yMin="-20" xMax="2020" yMax="1966">
      <contour>
        <pt x="200" y="1460" on="1"/>
        <pt x="390" y="1550" on="1"/>
        <pt x="400" y="1550" on="1"/>
        <pt x="400" y="410" on="1"/>
        <pt x="400" y="276" on="0"/>
        <pt x="472" y="193" on="1"/>
        <pt x="561" y="90" on="0"/>
        <pt x="849" y="90" on="0"/>
        <pt x="938" y="193" on="1"/>
        <pt x="1010" y="276" on="0"/>
        <pt x="1010" y="410" on="1"/>
        <pt x="1010" y="1460" on="1"/>
        <pt x="1200" y="1550" on="1"/>
        <pt x="1210" y="1550" on="1"/>
        <pt x="1210" y="410" on="1"/>
        <pt x="1210" y="276" on="0"/>
        <pt x="1282" y="193" on="1"/>
        <pt x="1371" y="90" on="0"/>
        <pt x="1659" y="90" on="0"/>
        <pt x="1748" y="193" on="1"/>
        <pt x="1820" y="276" on="0"/>
        <pt x="1820" y="410" on="1"/>
        <pt x="1820" y="1460" on="1"/>
        <pt x="2010" y="1550" on="1"/>
        <pt x="2020" y="1550" on="1"/>
        <pt x="2020" y="480" on="1"/>
        <pt x="2020" y="264" on="0"/>
        <pt x="1885" y="125" on="1"/>
        <pt x="1743" y="-20" on="0"/>
        <pt x="1515" y="-20" on="1"/>
        <pt x="1309" y="-20" on="0"/>
        <pt x="1164" y="125" on="1"/>
        <pt x="1128" y="161" on="0"/>
        <pt x="1110" y="195" on="1"/>
        <pt x="1087" y="160" on="0"/>
        <pt x="1054" y="128" on="1"/>
        <pt x="903" y="-20" on="0"/>
        <pt x="705" y="-20" on="1"/>
        <pt x="481" y="-20" on="0"/>
        <pt x="335" y="125" on="1"/>
        <pt x="200" y="259" on="0"/>
        <pt x="200" y="480" on="1"/>
      </contour>
      <contour>
        <pt x="823" y="1621" on="1"/>
        <pt x="976" y="1882" on="1"/>
        <pt x="1152" y="1966" on="1"/>
        <pt x="1162" y="1966" on="1"/>
        <pt x="1375" y="1621" on="1"/>
        <pt x="1259" y="1566" on="1"/>
        <pt x="1249" y="1566" on="1"/>
        <pt x="1099" y="1774" on="1"/>
        <pt x="951" y="1566" on="1"/>
        <pt x="941" y="1566" on="1"/>
      </contour>
    </TTGlyph>
    <TTGlyph name="Wdieresis" xMin="200" yMin="-20" xMax="2020" yMax="1925">
      <contour>
        <pt x="200" y="1460" on="1"/>
        <pt x="390" y="1550" on="1"/>
        <pt x="400" y="1550" on="1"/>
        <pt x="400" y="410" on="1"/>
        <pt x="400" y="276" on="0"/>
        <pt x="472" y="193" on="1"/>
        <pt x="561" y="90" on="0"/>
        <pt x="849" y="90" on="0"/>
        <pt x="938" y="193" on="1"/>
        <pt x="1010" y="276" on="0"/>
        <pt x="1010" y="410" on="1"/>
        <pt x="1010" y="1460" on="1"/>
        <pt x="1200" y="1550" on="1"/>
        <pt x="1210" y="1550" on="1"/>
        <pt x="1210" y="410" on="1"/>
        <pt x="1210" y="276" on="0"/>
        <pt x="1282" y="193" on="1"/>
        <pt x="1371" y="90" on="0"/>
        <pt x="1659" y="90" on="0"/>
        <pt x="1748" y="193" on="1"/>
        <pt x="1820" y="276" on="0"/>
        <pt x="1820" y="410" on="1"/>
        <pt x="1820" y="1460" on="1"/>
        <pt x="2010" y="1550" on="1"/>
        <pt x="2020" y="1550" on="1"/>
        <pt x="2020" y="480" on="1"/>
        <pt x="2020" y="264" on="0"/>
        <pt x="1885" y="125" on="1"/>
        <pt x="1743" y="-20" on="0"/>
        <pt x="1515" y="-20" on="1"/>
        <pt x="1309" y="-20" on="0"/>
        <pt x="1164" y="125" on="1"/>
        <pt x="1128" y="161" on="0"/>
        <pt x="1110" y="195" on="1"/>
        <pt x="1087" y="160" on="0"/>
        <pt x="1054" y="128" on="1"/>
        <pt x="903" y="-20" on="0"/>
        <pt x="705" y="-20" on="1"/>
        <pt x="481" y="-20" on="0"/>
        <pt x="335" y="125" on="1"/>
        <pt x="200" y="259" on="0"/>
        <pt x="200" y="480" on="1"/>
      </contour>
      <contour>
        <pt x="1128" y="1752" on="0"/>
        <pt x="1128" y="1853" on="0"/>
        <pt x="1198" y="1925" on="0"/>
        <pt x="1298" y="1925" on="0"/>
        <pt x="1368" y="1853" on="0"/>
        <pt x="1368" y="1752" on="0"/>
        <pt x="1298" y="1680" on="0"/>
        <pt x="1198" y="1680" on="0"/>
      </contour>
      <contour>
        <pt x="828" y="1752" on="0"/>
        <pt x="828" y="1853" on="0"/>
        <pt x="898" y="1925" on="0"/>
        <pt x="998" y="1925" on="0"/>
        <pt x="1068" y="1853" on="0"/>
        <pt x="1068" y="1752" on="0"/>
        <pt x="998" y="1680" on="0"/>
        <pt x="898" y="1680" on="0"/>
      </contour>
    </TTGlyph>
    <TTGlyph name="Wgrave" xMin="200" yMin="-20" xMax="2020" yMax="1966">
      <contour>
        <pt x="200" y="1460" on="1"/>
        <pt x="390" y="1550" on="1"/>
        <pt x="400" y="1550" on="1"/>
        <pt x="400" y="410" on="1"/>
        <pt x="400" y="276" on="0"/>
        <pt x="472" y="193" on="1"/>
        <pt x="561" y="90" on="0"/>
        <pt x="849" y="90" on="0"/>
        <pt x="938" y="193" on="1"/>
        <pt x="1010" y="276" on="0"/>
        <pt x="1010" y="410" on="1"/>
        <pt x="1010" y="1460" on="1"/>
        <pt x="1200" y="1550" on="1"/>
        <pt x="1210" y="1550" on="1"/>
        <pt x="1210" y="410" on="1"/>
        <pt x="1210" y="276" on="0"/>
        <pt x="1282" y="193" on="1"/>
        <pt x="1371" y="90" on="0"/>
        <pt x="1659" y="90" on="0"/>
        <pt x="1748" y="193" on="1"/>
        <pt x="1820" y="276" on="0"/>
        <pt x="1820" y="410" on="1"/>
        <pt x="1820" y="1460" on="1"/>
        <pt x="2010" y="1550" on="1"/>
        <pt x="2020" y="1550" on="1"/>
        <pt x="2020" y="480" on="1"/>
        <pt x="2020" y="264" on="0"/>
        <pt x="1885" y="125" on="1"/>
        <pt x="1743" y="-20" on="0"/>
        <pt x="1515" y="-20" on="1"/>
        <pt x="1309" y="-20" on="0"/>
        <pt x="1164" y="125" on="1"/>
        <pt x="1128" y="161" on="0"/>
        <pt x="1110" y="195" on="1"/>
        <pt x="1087" y="160" on="0"/>
        <pt x="1054" y="128" on="1"/>
        <pt x="903" y="-20" on="0"/>
        <pt x="705" y="-20" on="1"/>
        <pt x="481" y="-20" on="0"/>
        <pt x="335" y="125" on="1"/>
        <pt x="200" y="259" on="0"/>
        <pt x="200" y="480" on="1"/>
      </contour>
      <contour>
        <pt x="1051" y="1966" on="1"/>
        <pt x="1061" y="1966" on="1"/>
        <pt x="1223" y="1621" on="1"/>
        <pt x="1106" y="1566" on="1"/>
        <pt x="1096" y="1566" on="1"/>
        <pt x="875" y="1882" on="1"/>
      </contour>
    </TTGlyph>
    <TTGlyph name="X" xMin="100" yMin="-40" xMax="1178" yMax="1550">
      <contour>
        <pt x="215" y="-40" on="1"/>
        <pt x="205" y="-40" on="1"/>
        <pt x="100" y="10" on="1"/>
        <pt x="544" y="719" on="1"/>
        <pt x="100" y="1467" on="1"/>
        <pt x="275" y="1550" on="1"/>
        <pt x="285" y="1550" on="1"/>
        <pt x="663" y="911" on="1"/>
        <pt x="1063" y="1550" on="1"/>
        <pt x="1073" y="1550" on="1"/>
        <pt x="1178" y="1500" on="1"/>
        <pt x="735" y="791" on="1"/>
        <pt x="1178" y="42" on="1"/>
        <pt x="1004" y="-40" on="1"/>
        <pt x="994" y="-40" on="1"/>
        <pt x="615" y="599" on="1"/>
      </contour>
    </TTGlyph>
    <TTGlyph name="Y" xMin="150" yMin="-40" xMax="1160" yMax="1550">
      <contour>
        <pt x="555" y="-40" on="1"/>
        <pt x="555" y="484" on="1"/>
        <pt x="398" y="510" on="0"/>
        <pt x="285" y="621" on="1"/>
        <pt x="150" y="754" on="0"/>
        <pt x="150" y="976" on="1"/>
        <pt x="150" y="1460" on="1"/>
        <pt x="340" y="1550" on="1"/>
        <pt x="350" y="1550" on="1"/>
        <pt x="350" y="914" on="1"/>
        <pt x="350" y="780" on="0"/>
        <pt x="422" y="697" on="1"/>
        <pt x="511" y="594" on="0"/>
        <pt x="655" y="594" on="1"/>
        <pt x="807" y="594" on="0"/>
        <pt x="888" y="697" on="1"/>
        <pt x="960" y="789" on="0"/>
        <pt x="960" y="914" on="1"/>
        <pt x="960" y="1460" on="1"/>
        <pt x="1150" y="1550" on="1"/>
        <pt x="1160" y="1550" on="1"/>
        <pt x="1160" y="976" on="1"/>
        <pt x="1160" y="760" on="0"/>
        <pt x="1025" y="621" on="1"/>
        <pt x="916" y="509" on="0"/>
        <pt x="755" y="484" on="1"/>
        <pt x="755" y="50" on="1"/>
        <pt x="565" y="-40" on="1"/>
      </contour>
    </TTGlyph>
    <TTGlyph name="Yacute" xMin="150" yMin="-40" xMax="1160" yMax="1966">
      <contour>
        <pt x="555" y="-40" on="1"/>
        <pt x="555" y="484" on="1"/>
        <pt x="398" y="510" on="0"/>
        <pt x="285" y="621" on="1"/>
        <pt x="150" y="754" on="0"/>
        <pt x="150" y="976" on="1"/>
        <pt x="150" y="1460" on="1"/>
        <pt x="340" y="1550" on="1"/>
        <pt x="350" y="1550" on="1"/>
        <pt x="350" y="914" on="1"/>
        <pt x="350" y="780" on="0"/>
        <pt x="422" y="697" on="1"/>
        <pt x="511" y="594" on="0"/>
        <pt x="655" y="594" on="1"/>
        <pt x="807" y="594" on="0"/>
        <pt x="888" y="697" on="1"/>
        <pt x="960" y="789" on="0"/>
        <pt x="960" y="914" on="1"/>
        <pt x="960" y="1460" on="1"/>
        <pt x="1150" y="1550" on="1"/>
        <pt x="1160" y="1550" on="1"/>
        <pt x="1160" y="976" on="1"/>
        <pt x="1160" y="760" on="0"/>
        <pt x="1025" y="621" on="1"/>
        <pt x="916" y="509" on="0"/>
        <pt x="755" y="484" on="1"/>
        <pt x="755" y="50" on="1"/>
        <pt x="565" y="-40" on="1"/>
      </contour>
      <contour>
        <pt x="817" y="1966" on="1"/>
        <pt x="827" y="1966" on="1"/>
        <pt x="1003" y="1882" on="1"/>
        <pt x="782" y="1566" on="1"/>
        <pt x="772" y="1566" on="1"/>
        <pt x="655" y="1621" on="1"/>
      </contour>
    </TTGlyph>
    <TTGlyph name="Ycircumflex" xMin="150" yMin="-40" xMax="1160" yMax="1966">
      <contour>
        <pt x="555" y="-40" on="1"/>
        <pt x="555" y="484" on="1"/>
        <pt x="398" y="510" on="0"/>
        <pt x="285" y="621" on="1"/>
        <pt x="150" y="754" on="0"/>
        <pt x="150" y="976" on="1"/>
        <pt x="150" y="1460" on="1"/>
        <pt x="340" y="1550" on="1"/>
        <pt x="350" y="1550" on="1"/>
        <pt x="350" y="914" on="1"/>
        <pt x="350" y="780" on="0"/>
        <pt x="422" y="697" on="1"/>
        <pt x="511" y="594" on="0"/>
        <pt x="655" y="594" on="1"/>
        <pt x="807" y="594" on="0"/>
        <pt x="888" y="697" on="1"/>
        <pt x="960" y="789" on="0"/>
        <pt x="960" y="914" on="1"/>
        <pt x="960" y="1460" on="1"/>
        <pt x="1150" y="1550" on="1"/>
        <pt x="1160" y="1550" on="1"/>
        <pt x="1160" y="976" on="1"/>
        <pt x="1160" y="760" on="0"/>
        <pt x="1025" y="621" on="1"/>
        <pt x="916" y="509" on="0"/>
        <pt x="755" y="484" on="1"/>
        <pt x="755" y="50" on="1"/>
        <pt x="565" y="-40" on="1"/>
      </contour>
      <contour>
        <pt x="390" y="1621" on="1"/>
        <pt x="543" y="1882" on="1"/>
        <pt x="719" y="1966" on="1"/>
        <pt x="729" y="1966" on="1"/>
        <pt x="942" y="1621" on="1"/>
        <pt x="826" y="1566" on="1"/>
        <pt x="816" y="1566" on="1"/>
        <pt x="666" y="1774" on="1"/>
        <pt x="518" y="1566" on="1"/>
        <pt x="508" y="1566" on="1"/>
      </contour>
    </TTGlyph>
    <TTGlyph name="Ydieresis" xMin="150" yMin="-40" xMax="1160" yMax="1925">
      <contour>
        <pt x="555" y="-40" on="1"/>
        <pt x="555" y="484" on="1"/>
        <pt x="398" y="510" on="0"/>
        <pt x="285" y="621" on="1"/>
        <pt x="150" y="754" on="0"/>
        <pt x="150" y="976" on="1"/>
        <pt x="150" y="1460" on="1"/>
        <pt x="340" y="1550" on="1"/>
        <pt x="350" y="1550" on="1"/>
        <pt x="350" y="914" on="1"/>
        <pt x="350" y="780" on="0"/>
        <pt x="422" y="697" on="1"/>
        <pt x="511" y="594" on="0"/>
        <pt x="655" y="594" on="1"/>
        <pt x="807" y="594" on="0"/>
        <pt x="888" y="697" on="1"/>
        <pt x="960" y="789" on="0"/>
        <pt x="960" y="914" on="1"/>
        <pt x="960" y="1460" on="1"/>
        <pt x="1150" y="1550" on="1"/>
        <pt x="1160" y="1550" on="1"/>
        <pt x="1160" y="976" on="1"/>
        <pt x="1160" y="760" on="0"/>
        <pt x="1025" y="621" on="1"/>
        <pt x="916" y="509" on="0"/>
        <pt x="755" y="484" on="1"/>
        <pt x="755" y="50" on="1"/>
        <pt x="565" y="-40" on="1"/>
      </contour>
      <contour>
        <pt x="688" y="1752" on="0"/>
        <pt x="688" y="1853" on="0"/>
        <pt x="758" y="1925" on="0"/>
        <pt x="858" y="1925" on="0"/>
        <pt x="928" y="1853" on="0"/>
        <pt x="928" y="1752" on="0"/>
        <pt x="858" y="1680" on="0"/>
        <pt x="758" y="1680" on="0"/>
      </contour>
      <contour>
        <pt x="388" y="1752" on="0"/>
        <pt x="388" y="1853" on="0"/>
        <pt x="458" y="1925" on="0"/>
        <pt x="558" y="1925" on="0"/>
        <pt x="628" y="1853" on="0"/>
        <pt x="628" y="1752" on="0"/>
        <pt x="558" y="1680" on="0"/>
        <pt x="458" y="1680" on="0"/>
      </contour>
    </TTGlyph>
    <TTGlyph name="Ygrave" xMin="150" yMin="-40" xMax="1160" yMax="1966">
      <contour>
        <pt x="555" y="-40" on="1"/>
        <pt x="555" y="484" on="1"/>
        <pt x="398" y="510" on="0"/>
        <pt x="285" y="621" on="1"/>
        <pt x="150" y="754" on="0"/>
        <pt x="150" y="976" on="1"/>
        <pt x="150" y="1460" on="1"/>
        <pt x="340" y="1550" on="1"/>
        <pt x="350" y="1550" on="1"/>
        <pt x="350" y="914" on="1"/>
        <pt x="350" y="780" on="0"/>
        <pt x="422" y="697" on="1"/>
        <pt x="511" y="594" on="0"/>
        <pt x="655" y="594" on="1"/>
        <pt x="807" y="594" on="0"/>
        <pt x="888" y="697" on="1"/>
        <pt x="960" y="789" on="0"/>
        <pt x="960" y="914" on="1"/>
        <pt x="960" y="1460" on="1"/>
        <pt x="1150" y="1550" on="1"/>
        <pt x="1160" y="1550" on="1"/>
        <pt x="1160" y="976" on="1"/>
        <pt x="1160" y="760" on="0"/>
        <pt x="1025" y="621" on="1"/>
        <pt x="916" y="509" on="0"/>
        <pt x="755" y="484" on="1"/>
        <pt x="755" y="50" on="1"/>
        <pt x="565" y="-40" on="1"/>
      </contour>
      <contour>
        <pt x="596" y="1966" on="1"/>
        <pt x="606" y="1966" on="1"/>
        <pt x="768" y="1621" on="1"/>
        <pt x="651" y="1566" on="1"/>
        <pt x="641" y="1566" on="1"/>
        <pt x="420" y="1882" on="1"/>
      </contour>
    </TTGlyph>
    <TTGlyph name="Z" xMin="150" yMin="0" xMax="1117" yMax="1510">
      <contour>
        <pt x="150" y="0" on="1"/>
        <pt x="150" y="10" on="1"/>
        <pt x="831" y="1400" on="1"/>
        <pt x="160" y="1400" on="1"/>
        <pt x="160" y="1410" on="1"/>
        <pt x="207" y="1510" on="1"/>
        <pt x="1107" y="1510" on="1"/>
        <pt x="1107" y="1500" on="1"/>
        <pt x="423" y="110" on="1"/>
        <pt x="1117" y="110" on="1"/>
        <pt x="1117" y="100" on="1"/>
        <pt x="1070" y="0" on="1"/>
      </contour>
    </TTGlyph>
    <TTGlyph name="Zacute" xMin="150" yMin="0" xMax="1117" yMax="1966">
      <contour>
        <pt x="150" y="0" on="1"/>
        <pt x="150" y="10" on="1"/>
        <pt x="831" y="1400" on="1"/>
        <pt x="160" y="1400" on="1"/>
        <pt x="160" y="1410" on="1"/>
        <pt x="207" y="1510" on="1"/>
        <pt x="1107" y="1510" on="1"/>
        <pt x="1107" y="1500" on="1"/>
        <pt x="423" y="110" on="1"/>
        <pt x="1117" y="110" on="1"/>
        <pt x="1117" y="100" on="1"/>
        <pt x="1070" y="0" on="1"/>
      </contour>
      <contour>
        <pt x="699" y="1966" on="1"/>
        <pt x="709" y="1966" on="1"/>
        <pt x="885" y="1882" on="1"/>
        <pt x="664" y="1566" on="1"/>
        <pt x="654" y="1566" on="1"/>
        <pt x="537" y="1621" on="1"/>
      </contour>
    </TTGlyph>
    <TTGlyph name="Zcaron" xMin="150" yMin="0" xMax="1117" yMax="1966">
      <contour>
        <pt x="150" y="0" on="1"/>
        <pt x="150" y="10" on="1"/>
        <pt x="831" y="1400" on="1"/>
        <pt x="160" y="1400" on="1"/>
        <pt x="160" y="1410" on="1"/>
        <pt x="207" y="1510" on="1"/>
        <pt x="1107" y="1510" on="1"/>
        <pt x="1107" y="1500" on="1"/>
        <pt x="423" y="110" on="1"/>
        <pt x="1117" y="110" on="1"/>
        <pt x="1117" y="100" on="1"/>
        <pt x="1070" y="0" on="1"/>
      </contour>
      <contour>
        <pt x="569" y="1566" on="1"/>
        <pt x="356" y="1911" on="1"/>
        <pt x="472" y="1966" on="1"/>
        <pt x="482" y="1966" on="1"/>
        <pt x="632" y="1758" on="1"/>
        <pt x="780" y="1966" on="1"/>
        <pt x="790" y="1966" on="1"/>
        <pt x="908" y="1911" on="1"/>
        <pt x="755" y="1650" on="1"/>
        <pt x="579" y="1566" on="1"/>
      </contour>
    </TTGlyph>
    <TTGlyph name="Zdotaccent" xMin="150" yMin="0" xMax="1117" yMax="1925">
      <contour>
        <pt x="150" y="0" on="1"/>
        <pt x="150" y="10" on="1"/>
        <pt x="831" y="1400" on="1"/>
        <pt x="160" y="1400" on="1"/>
        <pt x="160" y="1410" on="1"/>
        <pt x="207" y="1510" on="1"/>
        <pt x="1107" y="1510" on="1"/>
        <pt x="1107" y="1500" on="1"/>
        <pt x="423" y="110" on="1"/>
        <pt x="1117" y="110" on="1"/>
        <pt x="1117" y="100" on="1"/>
        <pt x="1070" y="0" on="1"/>
      </contour>
      <contour>
        <pt x="527" y="1752" on="0"/>
        <pt x="527" y="1853" on="0"/>
        <pt x="597" y="1925" on="0"/>
        <pt x="697" y="1925" on="0"/>
        <pt x="767" y="1853" on="0"/>
        <pt x="767" y="1752" on="0"/>
        <pt x="697" y="1680" on="0"/>
        <pt x="597" y="1680" on="0"/>
      </contour>
    </TTGlyph>
    <TTGlyph name="a" xMin="100" yMin="-40" xMax="910" yMax="1120">
      <contour>
        <pt x="910" y="50" on="1"/>
        <pt x="720" y="-40" on="1"/>
        <pt x="710" y="-40" on="1"/>
        <pt x="710" y="65" on="1"/>
        <pt x="630" y="-20" on="0"/>
        <pt x="495" y="-20" on="1"/>
        <pt x="308" y="-20" on="0"/>
        <pt x="100" y="206" on="0"/>
        <pt x="100" y="360" on="1"/>
        <pt x="100" y="520" on="0"/>
        <pt x="213" y="632" on="1"/>
        <pt x="322" y="740" on="0"/>
        <pt x="495" y="740" on="1"/>
        <pt x="618" y="740" on="0"/>
        <pt x="710" y="655" on="1"/>
        <pt x="710" y="832" on="0"/>
        <pt x="586" y="1010" on="0"/>
        <pt x="495" y="1010" on="1"/>
        <pt x="252" y="1010" on="1"/>
        <pt x="252" y="1020" on="1"/>
        <pt x="299" y="1120" on="1"/>
        <pt x="495" y="1120" on="1"/>
        <pt x="670" y="1120" on="0"/>
        <pt x="786" y="1007" on="1"/>
        <pt x="910" y="886" on="0"/>
        <pt x="910" y="720" on="1"/>
      </contour>
      <contour>
        <pt x="296" y="360" on="1"/>
        <pt x="296" y="204" on="0"/>
        <pt x="350" y="146" on="1"/>
        <pt x="402" y="90" on="0"/>
        <pt x="496" y="90" on="1"/>
        <pt x="596" y="90" on="0"/>
        <pt x="648" y="147" on="1"/>
        <pt x="705" y="209" on="0"/>
        <pt x="705" y="365" on="1"/>
        <pt x="705" y="511" on="0"/>
        <pt x="644" y="573" on="1"/>
        <pt x="584" y="630" on="0"/>
        <pt x="495" y="630" on="1"/>
        <pt x="402" y="630" on="0"/>
        <pt x="296" y="512" on="0"/>
      </contour>
    </TTGlyph>
    <TTGlyph name="aacute" xMin="100" yMin="-40" xMax="910" yMax="1566">
      <contour>
        <pt x="910" y="50" on="1"/>
        <pt x="720" y="-40" on="1"/>
        <pt x="710" y="-40" on="1"/>
        <pt x="710" y="65" on="1"/>
        <pt x="630" y="-20" on="0"/>
        <pt x="495" y="-20" on="1"/>
        <pt x="308" y="-20" on="0"/>
        <pt x="100" y="206" on="0"/>
        <pt x="100" y="360" on="1"/>
        <pt x="100" y="520" on="0"/>
        <pt x="213" y="632" on="1"/>
        <pt x="322" y="740" on="0"/>
        <pt x="495" y="740" on="1"/>
        <pt x="618" y="740" on="0"/>
        <pt x="710" y="655" on="1"/>
        <pt x="710" y="832" on="0"/>
        <pt x="586" y="1010" on="0"/>
        <pt x="495" y="1010" on="1"/>
        <pt x="252" y="1010" on="1"/>
        <pt x="252" y="1020" on="1"/>
        <pt x="299" y="1120" on="1"/>
        <pt x="495" y="1120" on="1"/>
        <pt x="670" y="1120" on="0"/>
        <pt x="786" y="1007" on="1"/>
        <pt x="910" y="886" on="0"/>
        <pt x="910" y="720" on="1"/>
      </contour>
      <contour>
        <pt x="296" y="360" on="1"/>
        <pt x="296" y="204" on="0"/>
        <pt x="350" y="146" on="1"/>
        <pt x="402" y="90" on="0"/>
        <pt x="496" y="90" on="1"/>
        <pt x="596" y="90" on="0"/>
        <pt x="648" y="147" on="1"/>
        <pt x="705" y="209" on="0"/>
        <pt x="705" y="365" on="1"/>
        <pt x="705" y="511" on="0"/>
        <pt x="644" y="573" on="1"/>
        <pt x="584" y="630" on="0"/>
        <pt x="495" y="630" on="1"/>
        <pt x="402" y="630" on="0"/>
        <pt x="296" y="512" on="0"/>
      </contour>
      <contour>
        <pt x="663" y="1566" on="1"/>
        <pt x="673" y="1566" on="1"/>
        <pt x="849" y="1482" on="1"/>
        <pt x="628" y="1166" on="1"/>
        <pt x="618" y="1166" on="1"/>
        <pt x="501" y="1221" on="1"/>
      </contour>
    </TTGlyph>
    <TTGlyph name="abreve" xMin="100" yMin="-40" xMax="910" yMax="1541">
      <contour>
        <pt x="910" y="50" on="1"/>
        <pt x="720" y="-40" on="1"/>
        <pt x="710" y="-40" on="1"/>
        <pt x="710" y="65" on="1"/>
        <pt x="630" y="-20" on="0"/>
        <pt x="495" y="-20" on="1"/>
        <pt x="308" y="-20" on="0"/>
        <pt x="100" y="206" on="0"/>
        <pt x="100" y="360" on="1"/>
        <pt x="100" y="520" on="0"/>
        <pt x="213" y="632" on="1"/>
        <pt x="322" y="740" on="0"/>
        <pt x="495" y="740" on="1"/>
        <pt x="618" y="740" on="0"/>
        <pt x="710" y="655" on="1"/>
        <pt x="710" y="832" on="0"/>
        <pt x="586" y="1010" on="0"/>
        <pt x="495" y="1010" on="1"/>
        <pt x="252" y="1010" on="1"/>
        <pt x="252" y="1020" on="1"/>
        <pt x="299" y="1120" on="1"/>
        <pt x="495" y="1120" on="1"/>
        <pt x="670" y="1120" on="0"/>
        <pt x="786" y="1007" on="1"/>
        <pt x="910" y="886" on="0"/>
        <pt x="910" y="720" on="1"/>
      </contour>
      <contour>
        <pt x="296" y="360" on="1"/>
        <pt x="296" y="204" on="0"/>
        <pt x="350" y="146" on="1"/>
        <pt x="402" y="90" on="0"/>
        <pt x="496" y="90" on="1"/>
        <pt x="596" y="90" on="0"/>
        <pt x="648" y="147" on="1"/>
        <pt x="705" y="209" on="0"/>
        <pt x="705" y="365" on="1"/>
        <pt x="705" y="511" on="0"/>
        <pt x="644" y="573" on="1"/>
        <pt x="584" y="630" on="0"/>
        <pt x="495" y="630" on="1"/>
        <pt x="402" y="630" on="0"/>
        <pt x="296" y="512" on="0"/>
      </contour>
      <contour>
        <pt x="300" y="1382" on="1"/>
        <pt x="300" y="1392" on="1"/>
        <pt x="374" y="1541" on="1"/>
        <pt x="446" y="1407" on="0"/>
        <pt x="646" y="1407" on="0"/>
        <pt x="718" y="1541" on="1"/>
        <pt x="794" y="1392" on="1"/>
        <pt x="794" y="1382" on="1"/>
        <pt x="692" y="1232" on="0"/>
        <pt x="544" y="1232" on="1"/>
        <pt x="390" y="1232" on="0"/>
      </contour>
    </TTGlyph>
    <TTGlyph name="acircumflex" xMin="100" yMin="-40" xMax="910" yMax="1566">
      <contour>
        <pt x="910" y="50" on="1"/>
        <pt x="720" y="-40" on="1"/>
        <pt x="710" y="-40" on="1"/>
        <pt x="710" y="65" on="1"/>
        <pt x="630" y="-20" on="0"/>
        <pt x="495" y="-20" on="1"/>
        <pt x="308" y="-20" on="0"/>
        <pt x="100" y="206" on="0"/>
        <pt x="100" y="360" on="1"/>
        <pt x="100" y="520" on="0"/>
        <pt x="213" y="632" on="1"/>
        <pt x="322" y="740" on="0"/>
        <pt x="495" y="740" on="1"/>
        <pt x="618" y="740" on="0"/>
        <pt x="710" y="655" on="1"/>
        <pt x="710" y="832" on="0"/>
        <pt x="586" y="1010" on="0"/>
        <pt x="495" y="1010" on="1"/>
        <pt x="252" y="1010" on="1"/>
        <pt x="252" y="1020" on="1"/>
        <pt x="299" y="1120" on="1"/>
        <pt x="495" y="1120" on="1"/>
        <pt x="670" y="1120" on="0"/>
        <pt x="786" y="1007" on="1"/>
        <pt x="910" y="886" on="0"/>
        <pt x="910" y="720" on="1"/>
      </contour>
      <contour>
        <pt x="296" y="360" on="1"/>
        <pt x="296" y="204" on="0"/>
        <pt x="350" y="146" on="1"/>
        <pt x="402" y="90" on="0"/>
        <pt x="496" y="90" on="1"/>
        <pt x="596" y="90" on="0"/>
        <pt x="648" y="147" on="1"/>
        <pt x="705" y="209" on="0"/>
        <pt x="705" y="365" on="1"/>
        <pt x="705" y="511" on="0"/>
        <pt x="644" y="573" on="1"/>
        <pt x="584" y="630" on="0"/>
        <pt x="495" y="630" on="1"/>
        <pt x="402" y="630" on="0"/>
        <pt x="296" y="512" on="0"/>
      </contour>
      <contour>
        <pt x="274" y="1221" on="1"/>
        <pt x="427" y="1482" on="1"/>
        <pt x="603" y="1566" on="1"/>
        <pt x="613" y="1566" on="1"/>
        <pt x="826" y="1221" on="1"/>
        <pt x="710" y="1166" on="1"/>
        <pt x="700" y="1166" on="1"/>
        <pt x="550" y="1374" on="1"/>
        <pt x="402" y="1166" on="1"/>
        <pt x="392" y="1166" on="1"/>
      </contour>
    </TTGlyph>
    <TTGlyph name="acute" xMin="150" yMin="1150" xMax="498" yMax="1550">
      <contour>
        <pt x="312" y="1550" on="1"/>
        <pt x="322" y="1550" on="1"/>
        <pt x="498" y="1466" on="1"/>
        <pt x="277" y="1150" on="1"/>
        <pt x="267" y="1150" on="1"/>
        <pt x="150" y="1205" on="1"/>
      </contour>
    </TTGlyph>
    <TTGlyph name="adieresis" xMin="100" yMin="-40" xMax="910" yMax="1530">
      <contour>
        <pt x="910" y="50" on="1"/>
        <pt x="720" y="-40" on="1"/>
        <pt x="710" y="-40" on="1"/>
        <pt x="710" y="65" on="1"/>
        <pt x="630" y="-20" on="0"/>
        <pt x="495" y="-20" on="1"/>
        <pt x="308" y="-20" on="0"/>
        <pt x="100" y="206" on="0"/>
        <pt x="100" y="360" on="1"/>
        <pt x="100" y="520" on="0"/>
        <pt x="213" y="632" on="1"/>
        <pt x="322" y="740" on="0"/>
        <pt x="495" y="740" on="1"/>
        <pt x="618" y="740" on="0"/>
        <pt x="710" y="655" on="1"/>
        <pt x="710" y="832" on="0"/>
        <pt x="586" y="1010" on="0"/>
        <pt x="495" y="1010" on="1"/>
        <pt x="252" y="1010" on="1"/>
        <pt x="252" y="1020" on="1"/>
        <pt x="299" y="1120" on="1"/>
        <pt x="495" y="1120" on="1"/>
        <pt x="670" y="1120" on="0"/>
        <pt x="786" y="1007" on="1"/>
        <pt x="910" y="886" on="0"/>
        <pt x="910" y="720" on="1"/>
      </contour>
      <contour>
        <pt x="296" y="360" on="1"/>
        <pt x="296" y="204" on="0"/>
        <pt x="350" y="146" on="1"/>
        <pt x="402" y="90" on="0"/>
        <pt x="496" y="90" on="1"/>
        <pt x="596" y="90" on="0"/>
        <pt x="648" y="147" on="1"/>
        <pt x="705" y="209" on="0"/>
        <pt x="705" y="365" on="1"/>
        <pt x="705" y="511" on="0"/>
        <pt x="644" y="573" on="1"/>
        <pt x="584" y="630" on="0"/>
        <pt x="495" y="630" on="1"/>
        <pt x="402" y="630" on="0"/>
        <pt x="296" y="512" on="0"/>
      </contour>
      <contour>
        <pt x="577" y="1357" on="0"/>
        <pt x="577" y="1458" on="0"/>
        <pt x="647" y="1530" on="0"/>
        <pt x="747" y="1530" on="0"/>
        <pt x="817" y="1458" on="0"/>
        <pt x="817" y="1357" on="0"/>
        <pt x="747" y="1285" on="0"/>
        <pt x="647" y="1285" on="0"/>
      </contour>
      <contour>
        <pt x="277" y="1357" on="0"/>
        <pt x="277" y="1458" on="0"/>
        <pt x="347" y="1530" on="0"/>
        <pt x="447" y="1530" on="0"/>
        <pt x="517" y="1458" on="0"/>
        <pt x="517" y="1357" on="0"/>
        <pt x="447" y="1285" on="0"/>
        <pt x="347" y="1285" on="0"/>
      </contour>
    </TTGlyph>
    <TTGlyph name="ae" xMin="100" yMin="-40" xMax="1540" yMax="1120">
      <contour>
        <pt x="296" y="360" on="1"/>
        <pt x="296" y="204" on="0"/>
        <pt x="350" y="146" on="1"/>
        <pt x="402" y="90" on="0"/>
        <pt x="496" y="90" on="1"/>
        <pt x="596" y="90" on="0"/>
        <pt x="648" y="147" on="1"/>
        <pt x="705" y="209" on="0"/>
        <pt x="705" y="365" on="1"/>
        <pt x="705" y="513" on="0"/>
        <pt x="644" y="573" on="1"/>
        <pt x="586" y="630" on="0"/>
        <pt x="495" y="630" on="1"/>
        <pt x="402" y="630" on="0"/>
        <pt x="296" y="512" on="0"/>
      </contour>
      <contour>
        <pt x="710" y="-40" on="1"/>
        <pt x="710" y="65" on="1"/>
        <pt x="630" y="-20" on="0"/>
        <pt x="495" y="-20" on="1"/>
        <pt x="308" y="-20" on="0"/>
        <pt x="100" y="206" on="0"/>
        <pt x="100" y="360" on="1"/>
        <pt x="100" y="520" on="0"/>
        <pt x="213" y="632" on="1"/>
        <pt x="322" y="740" on="0"/>
        <pt x="495" y="740" on="1"/>
        <pt x="618" y="740" on="0"/>
        <pt x="710" y="655" on="1"/>
        <pt x="710" y="832" on="0"/>
        <pt x="586" y="1010" on="0"/>
        <pt x="495" y="1010" on="1"/>
        <pt x="252" y="1010" on="1"/>
        <pt x="252" y="1020" on="1"/>
        <pt x="299" y="1120" on="1"/>
        <pt x="495" y="1120" on="1"/>
        <pt x="664" y="1120" on="0"/>
        <pt x="786" y="1007" on="1"/>
        <pt x="799" y="995" on="0"/>
        <pt x="810" y="982" on="1"/>
        <pt x="821" y="995" on="0"/>
        <pt x="834" y="1007" on="1"/>
        <pt x="956" y="1120" on="0"/>
        <pt x="1125" y="1120" on="1"/>
        <pt x="1296" y="1120" on="0"/>
        <pt x="1416" y="1007" on="1"/>
        <pt x="1540" y="890" on="0"/>
        <pt x="1540" y="749" on="1"/>
        <pt x="916" y="245" on="1"/>
        <pt x="930" y="180" on="0"/>
        <pt x="972" y="144" on="1"/>
        <pt x="1035" y="90" on="0"/>
        <pt x="1215" y="90" on="0"/>
        <pt x="1340" y="198" on="0"/>
        <pt x="1340" y="353" on="1"/>
        <pt x="1530" y="443" on="1"/>
        <pt x="1540" y="443" on="1"/>
        <pt x="1540" y="380" on="1"/>
        <pt x="1540" y="214" on="0"/>
        <pt x="1416" y="93" on="1"/>
        <pt x="1300" y="-20" on="0"/>
        <pt x="1125" y="-20" on="1"/>
        <pt x="995" y="-20" on="0"/>
        <pt x="896" y="44" on="1"/>
        <pt x="720" y="-40" on="1"/>
      </contour>
      <contour>
        <pt x="910" y="788" on="1"/>
        <pt x="910" y="788" on="0"/>
        <pt x="910" y="399" on="1"/>
        <pt x="1340" y="748" on="1"/>
        <pt x="1340" y="788" on="1"/>
        <pt x="1340" y="902" on="0"/>
        <pt x="1278" y="956" on="1"/>
        <pt x="1215" y="1010" on="0"/>
        <pt x="1125" y="1010" on="1"/>
        <pt x="1036" y="1010" on="0"/>
        <pt x="972" y="956" on="1"/>
        <pt x="910" y="904" on="0"/>
      </contour>
    </TTGlyph>
    <TTGlyph name="aeacute" xMin="100" yMin="-40" xMax="1540" yMax="1566">
      <contour>
        <pt x="296" y="360" on="1"/>
        <pt x="296" y="204" on="0"/>
        <pt x="350" y="146" on="1"/>
        <pt x="402" y="90" on="0"/>
        <pt x="496" y="90" on="1"/>
        <pt x="596" y="90" on="0"/>
        <pt x="648" y="147" on="1"/>
        <pt x="705" y="209" on="0"/>
        <pt x="705" y="365" on="1"/>
        <pt x="705" y="513" on="0"/>
        <pt x="644" y="573" on="1"/>
        <pt x="586" y="630" on="0"/>
        <pt x="495" y="630" on="1"/>
        <pt x="402" y="630" on="0"/>
        <pt x="296" y="512" on="0"/>
      </contour>
      <contour>
        <pt x="710" y="-40" on="1"/>
        <pt x="710" y="65" on="1"/>
        <pt x="630" y="-20" on="0"/>
        <pt x="495" y="-20" on="1"/>
        <pt x="308" y="-20" on="0"/>
        <pt x="100" y="206" on="0"/>
        <pt x="100" y="360" on="1"/>
        <pt x="100" y="520" on="0"/>
        <pt x="213" y="632" on="1"/>
        <pt x="322" y="740" on="0"/>
        <pt x="495" y="740" on="1"/>
        <pt x="618" y="740" on="0"/>
        <pt x="710" y="655" on="1"/>
        <pt x="710" y="832" on="0"/>
        <pt x="586" y="1010" on="0"/>
        <pt x="495" y="1010" on="1"/>
        <pt x="252" y="1010" on="1"/>
        <pt x="252" y="1020" on="1"/>
        <pt x="299" y="1120" on="1"/>
        <pt x="495" y="1120" on="1"/>
        <pt x="664" y="1120" on="0"/>
        <pt x="786" y="1007" on="1"/>
        <pt x="799" y="995" on="0"/>
        <pt x="810" y="982" on="1"/>
        <pt x="821" y="995" on="0"/>
        <pt x="834" y="1007" on="1"/>
        <pt x="956" y="1120" on="0"/>
        <pt x="1125" y="1120" on="1"/>
        <pt x="1296" y="1120" on="0"/>
        <pt x="1416" y="1007" on="1"/>
        <pt x="1540" y="890" on="0"/>
        <pt x="1540" y="749" on="1"/>
        <pt x="916" y="245" on="1"/>
        <pt x="930" y="180" on="0"/>
        <pt x="972" y="144" on="1"/>
        <pt x="1035" y="90" on="0"/>
        <pt x="1215" y="90" on="0"/>
        <pt x="1340" y="198" on="0"/>
        <pt x="1340" y="353" on="1"/>
        <pt x="1530" y="443" on="1"/>
        <pt x="1540" y="443" on="1"/>
        <pt x="1540" y="380" on="1"/>
        <pt x="1540" y="214" on="0"/>
        <pt x="1416" y="93" on="1"/>
        <pt x="1300" y="-20" on="0"/>
        <pt x="1125" y="-20" on="1"/>
        <pt x="995" y="-20" on="0"/>
        <pt x="896" y="44" on="1"/>
        <pt x="720" y="-40" on="1"/>
      </contour>
      <contour>
        <pt x="910" y="788" on="1"/>
        <pt x="910" y="788" on="0"/>
        <pt x="910" y="399" on="1"/>
        <pt x="1340" y="748" on="1"/>
        <pt x="1340" y="788" on="1"/>
        <pt x="1340" y="902" on="0"/>
        <pt x="1278" y="956" on="1"/>
        <pt x="1215" y="1010" on="0"/>
        <pt x="1125" y="1010" on="1"/>
        <pt x="1036" y="1010" on="0"/>
        <pt x="972" y="956" on="1"/>
        <pt x="910" y="904" on="0"/>
      </contour>
      <contour>
        <pt x="910" y="1566" on="1"/>
        <pt x="920" y="1566" on="1"/>
        <pt x="1096" y="1482" on="1"/>
        <pt x="875" y="1166" on="1"/>
        <pt x="865" y="1166" on="1"/>
        <pt x="748" y="1221" on="1"/>
      </contour>
    </TTGlyph>
</ttFont>
